<?xml version="1.0" encoding="UTF-8" standalone="no"?>
<svg xmlns="http://www.w3.org/2000/svg" class="animated" height="600" width="600" version="1.1" xmlns:xlink="http://www.w3.org/1999/xlink" xmlns:svgjs="http://svgjs.com/svgjs" viewBox="0 0 500 500">
 <style>svg:not(.animated) .animable {opacity: 0;}.animated #Floor--inject-1--inject-32 {animation: 1s 1 forwards cubic-bezier(.36,-0.01,.5,1.38) zoomIn;animation-delay: 0s;}.animated #Shadows--inject-1--inject-32 {animation: 1s 1 forwards cubic-bezier(.36,-0.01,.5,1.38) lightSpeedRight;animation-delay: 0s;}.animated #Plants--inject-1--inject-32 {animation: 1s 1 forwards cubic-bezier(.36,-0.01,.5,1.38) slideLeft;animation-delay: 0s;}.animated #Cabinet--inject-1--inject-32 {animation: 1s 1 forwards cubic-bezier(.36,-0.01,.5,1.38) slideUp;animation-delay: 0s;}.animated #speech-bubble--inject-1--inject-32 {animation: 1s 1 forwards cubic-bezier(.36,-0.01,.5,1.38) slideRight,3.0s Infinite  linear floating;animation-delay: 0s,1s;}.animated #characters-and-desk--inject-1--inject-32 {animation: 1s 1 forwards cubic-bezier(.36,-0.01,.5,1.38) slideLeft;animation-delay: 0s;}            @keyframes zoomIn {                0% {                    opacity: 0;                    transform: scale(0.5);                }                100% {                    opacity: 1;                    transform: scale(1);                }            }                    @keyframes lightSpeedRight {              from {                transform: translate3d(50%, 0, 0) skewX(-20deg);                opacity: 0;              }              60% {                transform: skewX(10deg);                opacity: 1;              }              80% {                transform: skewX(-2deg);              }              to {                opacity: 1;                transform: translate3d(0, 0, 0);              }            }                    @keyframes slideLeft {                0% {                    opacity: 0;                    transform: translateX(-30px);                }                100% {                    opacity: 1;                    transform: translateX(0);                }            }                    @keyframes slideUp {                0% {                    opacity: 0;                    transform: translateY(30px);                }                100% {                    opacity: 1;                    transform: inherit;                }            }                    @keyframes slideRight {                0% {                    opacity: 0;                    transform: translateX(30px);                }                100% {                    opacity: 1;                    transform: translateX(0);                }            }                    @keyframes floating {                0% {                    opacity: 1;                    transform: translateY(0px);                }                50% {                    transform: translateY(-10px);                }                100% {                    opacity: 1;                    transform: translateY(0px);                }            }</style>
 <g id="Floor--inject-1--inject-32" style="transform-origin:253.08px 318.077px" class="animable animator-active">
  <path id="floor--inject-1--inject-32" class="animable" style="transform-origin:253.08px 318.077px" fill="#f5f5f5" d="m90.51 403c89.78 46.9 235.35 46.9 325.14 0s89.78-123 0-169.86-235.36-46.9-325.14 0-89.79 122.93 0 169.86z"/>
 </g>
 <g id="Shadows--inject-1--inject-32" style="transform-origin:238.993px 330.75px" fill="#e0e0e0" class="animable">
  <path id="Shadow--inject-1--inject-32" class="animable" style="transform-origin:289.938px 347.335px" d="m166.85 370.69l82.53 47.65a6.25 6.25 0 0 0 5.65 0l158-91c1.56-0.9 1.56-2.36 0-3.26l-82.7-47.75a6.25 6.25 0 0 0 -5.65 0l-157.8 91.11c-1.6 0.89-1.6 2.35-0.03 3.25z"/>
  <path id="shadow--inject-1--inject-32" class="animable" style="transform-origin:115.307px 272.15px" d="m65 276.32l43.19 24.82a6.25 6.25 0 0 0 5.65 0l51.82-29.92c1.56-0.9 1.56-2.36 0-3.26l-42.94-24.8a6.27 6.27 0 0 0 -5.66 0l-52.06 29.9c-1.62 0.94-1.62 2.36 0 3.26z"/>
 </g>
 <g id="Plants--inject-1--inject-32" style="transform-origin:430.097px 291.098px" class="animable">
  <g id="plants--inject-1--inject-32" style="transform-origin:430.097px 291.098px" class="animable">
   <path id="elbcaa3gqof4" class="animable" style="transform-origin:424.686px 276.083px" fill="#407bff" d="m409.53 293.66c-0.24-0.1-1-16.28 6-25.81s15.4-10.63 20.94-8.31 4.4 8-2.42 11.42-15.31 9.38-17.33 20.26z"/>
   <g id="el10i3orocpseb">
    <path opacity=".1" style="transform-origin:424.686px 276.083px" d="m409.53 293.66c-0.24-0.1-1-16.28 6-25.81s15.4-10.63 20.94-8.31 4.4 8-2.42 11.42-15.31 9.38-17.33 20.26z" class="animable"/>
   </g>
   <path id="el8kdf8osd65x" class="animable" style="transform-origin:422.583px 274.917px" fill="#fff" d="m412.09 288.91a0.52 0.52 0 0 0 0.51 -0.43c2.61-16.43 12.32-24.48 20.54-26.53a0.52 0.52 0 1 0 -0.25 -1c-8.54 2.13-18.62 10.45-21.32 27.37a0.53 0.53 0 0 0 0.44 0.6z"/>
   <path id="elkejkfpso75p" class="animable" style="transform-origin:430.156px 300.721px" fill="#407bff" d="m410.78 323.69c1.06-4.26 5.35-7.08 10.42-7.54 5.26-0.47 11.39-1 13-5.44s0-10.47 0.73-13.42c0.91-3.58 2.28-5.71 9.19-7.88 6.2-2 9.63-7.87 3.38-10.37s-12.5-0.92-16.75 1-4.45 3.91-10.43 3.4-10.45 3.25-10.82 6.87z"/>
   <path id="el0s9xv3713k7a" class="animable" style="transform-origin:426.859px 295.092px" fill="#fff" d="m410.78 309.23a0.53 0.53 0 0 0 0.49 -0.34c4.92-13.71 25-26.11 31.72-26.9a0.53 0.53 0 0 0 0.46 -0.58 0.51 0.51 0 0 0 -0.58 -0.45c-6.87 0.81-27.53 13.52-32.58 27.58a0.53 0.53 0 0 0 0.32 0.66 0.47 0.47 0 0 0 0.17 0.03z"/>
   <path id="elnvs67smeb6" class="animable" style="transform-origin:415.132px 294.449px" fill="#fff" d="m415.49 301h0.12a0.52 0.52 0 0 0 0.39 -0.62c-1.66-7.14 0-11.74 0-11.79a0.51 0.51 0 0 0 -0.31 -0.66 0.52 0.52 0 0 0 -0.67 0.31c-0.07 0.19-1.74 4.91 0 12.37a0.53 0.53 0 0 0 0.47 0.39z"/>
   <path id="elb4xofpqrsxj" class="animable" style="transform-origin:418.752px 305.132px" fill="#fff" d="m412.09 306.26a0.5 0.5 0 0 0 0.24 -0.06c4-2.2 12.8-0.63 12.89-0.62a0.52 0.52 0 1 0 0.19 -1c-0.38-0.07-9.21-1.64-13.57 0.72a0.52 0.52 0 0 0 -0.21 0.71 0.52 0.52 0 0 0 0.46 0.25z"/>
  </g>
 </g>
 <g id="Cabinet--inject-1--inject-32" style="transform-origin:115.235px 216.311px" class="animable">
  <g id="cabinet--inject-1--inject-32" style="transform-origin:115.235px 216.311px" class="animable">
   <polygon id="el4c632jkg5f7" style="transform-origin:156.095px 265.44px" points="160.18 268.98 152.01 264.26 160.18 261.9" class="animable"/>
   <polygon id="elhfhj1qnc96p" style="transform-origin:88.675px 280.995px" points="111.15 290.21 111.15 297.73 66.2 271.78 66.2 264.26" class="animable"/>
   <polygon id="elwbvhdaae9za" style="transform-origin:84.59px 248.92px" points="62.12 205.28 107.06 231.23 107.06 292.56 62.12 266.62" fill="#263238" class="animable"/>
   <polygon id="el8iwa4k3802y" style="transform-origin:137.705px 244.205px" points="107.06 231.23 168.35 195.85 168.35 257.18 107.06 292.56" fill="#37474f" class="animable"/>
   <polygon id="el81y602kxke" style="transform-origin:115.235px 200.565px" points="168.35 195.85 123.41 169.9 62.12 205.28 107.06 231.23" fill="#455a64" class="animable"/>
   <polygon id="el3ax5n7nry0w" style="transform-origin:137.705px 225.34px" points="111.15 233.59 164.26 202.93 164.26 217.08 111.15 247.75" fill="#455a64" class="animable"/>
   <g id="el6bhqxo0ihd" style="mix-blend-mode:multiply;transform-origin:139.75px 217.821px" class="animable">
    <path id="elaei8il33iwm" class="animable" style="transform-origin:139.75px 217.821px" fill="#263238" d="m131.58 223c0 0.65 1.95 0.05 4.35-1.34l7.63-4.41c2.41-1.38 4.36-3 4.36-3.69v-1.18l-16.34 9.44z"/>
   </g>
   <polygon id="elpon8qv14oal" style="transform-origin:137.705px 244.21px" points="111.15 252.46 164.26 221.8 164.26 235.95 111.15 266.62" fill="#455a64" class="animable"/>
   <g id="elzc67knqel5n" style="mix-blend-mode:multiply;transform-origin:139.75px 236.671px" class="animable">
    <path id="el4xgha53cz9m" class="animable" style="transform-origin:139.75px 236.671px" fill="#263238" d="m131.58 241.85c0 0.65 1.95 0.05 4.35-1.34l7.63-4.4c2.41-1.39 4.36-3.05 4.36-3.7v-1.18l-16.34 9.44z"/>
   </g>
   <polygon id="elhdww8s6ufew" style="transform-origin:137.705px 263.08px" points="111.15 271.33 164.26 240.67 164.26 254.82 111.15 285.49" fill="#455a64" class="animable"/>
   <g id="elknapnnxycq" style="mix-blend-mode:multiply;transform-origin:139.75px 255.537px" class="animable">
    <path id="el4wu4na11aia" class="animable" style="transform-origin:139.75px 255.537px" fill="#263238" d="m131.58 260.72c0 0.65 1.95 0 4.35-1.34l7.63-4.4c2.41-1.39 4.36-3 4.36-3.7v-1.18l-16.34 9.44z"/>
   </g>
   <polygon id="eljyd23kzidkq" style="transform-origin:113.19px 292.79px" points="111.15 297.73 115.23 295.37 115.23 287.85 111.15 290.21" fill="#263238" class="animable"/>
   <polygon id="elnrbdn99uele" style="transform-origin:162.22px 264.26px" points="160.18 268.98 164.26 266.62 164.26 259.54 160.18 261.9" fill="#263238" class="animable"/>
   <path id="elfcktz5d4a3c" class="animable" style="transform-origin:99.8363px 209.029px" fill="#e0e0e0" d="m105.14 226.13 24.43-14.13c0.48-0.27 0.48-0.72 0-1l-33.51-19.08a1.94 1.94 0 0 0 -1.74 0l-24.21 14c-0.49 0.27-0.49 0.72 0 1l33.28 19.22a1.93 1.93 0 0 0 1.75 -0.01z"/>
   <path id="elu39onofkl5k" class="animable" style="transform-origin:99.8043px 207.237px" fill="#f5f5f5" d="m70.08 205.87l27.5-17.48a1.84 1.84 0 0 1 1.72 0l9.9 5.72a1.08 1.08 0 0 1 0.42 1.4l-0.41 0.79a1.08 1.08 0 0 0 0.41 1.4l19.95 11.61a0.57 0.57 0 0 1 0 1l-24.49 15.77a1.81 1.81 0 0 1 -1.72 0l-33.25-19.17a0.56 0.56 0 0 1 -0.03 -1.04z"/>
   <path id="elwfeiwezk9lf" class="animable" style="transform-origin:142.265px 164.476px" fill="#407bff" d="m127.39 135a0.56 0.56 0 0 0 -0.56 -0.06l-0.62 0.36 0.38 39.51a1.79 1.79 0 0 0 0.8 1.39l30.93 17.86v-41.18z"/>
   <g id="elew6rtyhlovb">
    <path opacity=".2" style="transform-origin:142.265px 164.476px" d="m127.39 135a0.56 0.56 0 0 0 -0.56 -0.06l-0.62 0.36 0.38 39.51a1.79 1.79 0 0 0 0.8 1.39l30.93 17.86v-41.18z" class="animable"/>
   </g>
   <path id="eldccyx4aucha" class="animable" style="transform-origin:141.855px 164.851px" fill="#407bff" d="m126.79 135.37c-0.44-0.25-0.8 0-0.8 0.47v39.35a1.79 1.79 0 0 0 0.8 1.39l30.93 17.85v-41.21z"/>
   <g id="elukwklypho6o">
    <path opacity=".5" style="transform-origin:141.855px 164.851px" d="m126.79 135.37c-0.44-0.25-0.8 0-0.8 0.47v39.35a1.79 1.79 0 0 0 0.8 1.39l30.93 17.85v-41.21z" class="animable"/>
   </g>
   <path id="eljpvan89ob" class="animable" style="transform-origin:138.435px 165.229px" fill="#ebebeb" d="m150.12 190.6l-22.89-13.22a1.79 1.79 0 0 1 -0.8 -1.39v-36.3l-3-1.71 3.06-1.76h0.06c0.13-0.2 0.38-0.25 0.68-0.08l26.21 15.15v41.21l-3.34 1.92z"/>
   <path id="elsqprzrkfjpk" class="animable" style="transform-origin:136.605px 166.226px" fill="#fafafa" d="m123.89 138.1c-0.44-0.25-0.8 0-0.8 0.46v39.36a1.76 1.76 0 0 0 0.8 1.38l26.23 15.15v-41.21z"/>
   <polygon id="elw492us2lh1a" style="transform-origin:151.785px 172.885px" points="150.11 153.24 153.44 151.32 153.46 192.53 150.12 194.45" fill="#e6e6e6" class="animable"/>
   <path id="elyy00tg9rk7h" class="animable" style="transform-origin:148.575px 154.109px" fill="#263238" d="m149 154.36a1.07 1.07 0 0 0 -0.06 -0.3 1 1 0 0 0 -0.25 -0.41 0.4 0.4 0 0 0 -0.12 -0.1c-0.23-0.14-0.43 0-0.42 0.32a0.9 0.9 0 0 0 0.1 0.42 0.85 0.85 0 0 0 0.32 0.39s0 0 0.06 0c0.23 0.12 0.37-0.02 0.37-0.32z"/>
   <path id="elw3x38f2n3b" class="animable" style="transform-origin:151.43px 155.045px" fill="#263238" d="m153.65 156.36a2.15 2.15 0 0 0 0.95 -1 1.46 1.46 0 0 0 -0.1 -1.27 2.22 2.22 0 0 0 -0.84 -0.79l-0.21-0.12v0.53a1.21 1.21 0 0 1 0 2.28 4.42 4.42 0 0 1 -4 0 1.3 1.3 0 0 1 -0.81 -1.25 1 1 0 0 1 0.31 -0.65 1 1 0 0 0 -0.25 -0.41 1.75 1.75 0 0 0 -0.44 0.64 1.41 1.41 0 0 0 0.11 1.26 2.22 2.22 0 0 0 0.85 0.81 4.85 4.85 0 0 0 4.43 -0.03z"/>
   <path id="elpnrjtru0zpi" class="animable" style="transform-origin:136.015px 147.42px" fill="#407bff" d="m149.92 157.18-28.42-19.18l0.44-0.25a0.93 0.93 0 0 1 0.8 0l27.79 19z"/>
   <g id="elkvxuvyt4q1c">
    <path opacity=".2" style="transform-origin:136.015px 147.42px" d="m149.92 157.18-28.42-19.18l0.44-0.25a0.93 0.93 0 0 1 0.8 0l27.79 19z" class="animable"/>
   </g>
   <path id="el6uaimk0ma63" class="animable" style="transform-origin:135.825px 168.336px" fill="#407bff" d="m122.06 138.1c-0.44-0.25-0.8 0-0.8 0.47v39.35a1.74 1.74 0 0 0 0.81 1.38l28.32 19.37v-41.21z"/>
   <polygon id="el85zasscr8pt" style="transform-origin:154.35px 175.775px" points="158.31 152.88 158.32 194.09 150.38 198.67 150.38 157.45" fill="#407bff" class="animable"/>
   <g id="elbe8okdeg3k">
    <polygon opacity=".1" style="transform-origin:154.35px 175.775px" points="158.31 152.88 158.32 194.09 150.38 198.67 150.38 157.45" class="animable"/>
   </g>
   <path id="el8fzz15ybwg2" class="animable" style="transform-origin:154.604px 164.207px" fill="#455a64" d="m156.73 161.92a1.42 1.42 0 0 0 -1 -0.73 2.12 2.12 0 0 0 -1.36 0.31 4.85 4.85 0 0 0 -2.21 3.84 2.22 2.22 0 0 0 0.27 1.13 1.63 1.63 0 0 0 2.4 0.41 4.82 4.82 0 0 0 2.22 -3.83 2.45 2.45 0 0 0 -0.27 -1.13z"/>
   <path id="elz26yas2eyfg" class="animable" style="transform-origin:154.56px 164.192px" fill="#f5f5f5" d="m154.56 161.9c1.09-0.63 2-0.12 2 1.15a4.36 4.36 0 0 1 -2 3.43c-1.09 0.64-2 0.12-2-1.14a4.41 4.41 0 0 1 2 -3.44z"/>
   <path id="ell595t8jeywa" class="animable" style="transform-origin:154.47px 181.71px" fill="#f5f5f5" d="m154.17 170.44l0.6-0.35c1.2-0.69 2.18-0.13 2.18 1.26v17.86a4.81 4.81 0 0 1 -2.18 3.77l-0.6 0.35c-1.2 0.69-2.18 0.13-2.18-1.26v-17.86a4.81 4.81 0 0 1 2.18 -3.77z"/>
   <polygon id="elqbh74clssi9" style="transform-origin:154.125px 155.025px" points="157.84 152.6 149.94 157.16 150.38 157.45 158.31 152.88" fill="#407bff" class="animable"/>
   <g id="el8typsjm5whk">
    <polygon opacity=".2" style="transform-origin:154.125px 155.025px" points="157.84 152.6 149.94 157.16 150.38 157.45 158.31 152.88" class="animable"/>
   </g>
   <path id="el0kzszmrxawbm" class="animable" style="transform-origin:133.605px 168.995px" fill="#407bff" d="m148.51 199.37a0.76 0.76 0 0 0 0.3 -0.58v-40.4a0.78 0.78 0 0 0 -0.35 -0.61l-29.46-19.23-0.6 0.35v41.2l29.44 19.24a0.71 0.71 0 0 0 0.67 0.03z"/>
   <g id="eljr1caans2n">
    <path opacity=".1" style="transform-origin:148.32px 178.744px" d="m148.09 158.39l0.6-0.35a0.83 0.83 0 0 1 0.11 0.35v40.4a0.76 0.76 0 0 1 -0.3 0.58 0.74 0.74 0 0 1 -0.66 0c0.19 0.11 0.35 0 0.35-0.2v-40.4a0.66 0.66 0 0 0 -0.1 -0.38z" class="animable"/>
   </g>
   <g id="elcqo8mc61ddq">
    <path opacity=".5" style="transform-origin:133.31px 169.143px" d="m118.42 138.9l29.42 19.23a0.63 0.63 0 0 1 0.25 0.26 0.66 0.66 0 0 1 0.11 0.35v40.4c0 0.22-0.16 0.31-0.35 0.2l-29.43-19.24z" class="animable"/>
   </g>
   <g id="elh2wlynfl9pt">
    <path opacity=".2" style="transform-origin:133.555px 148.47px" d="m118.42 138.9l0.6-0.35 29.43 19.23a0.75 0.75 0 0 1 0.24 0.26l-0.6 0.35a0.63 0.63 0 0 0 -0.25 -0.26z" class="animable"/>
   </g>
   <polygon id="elmhko4ha645g" style="transform-origin:114.94px 162.07px" points="118.9 139.17 118.91 180.38 110.97 184.97 111.05 143.71" fill="#407bff" class="animable"/>
   <g id="elnjcgfvwuh8d">
    <polygon opacity=".7" style="transform-origin:114.94px 162.07px" points="118.9 139.17 118.91 180.38 110.97 184.97 111.05 143.71" class="animable"/>
   </g>
   <path id="elw1ijwb50mb" class="animable" style="transform-origin:132.58px 172.28px" fill="#ebebeb" d="m144 201.46a1 1 0 0 0 0.87 0l1.61-0.93a1 1 0 0 0 0.43 -0.75v-40.21a1 1 0 0 0 -0.44 -0.75l-25.74-15.82-2.48 1.43v41.21z"/>
   <path id="elkr31lp96yce" class="animable" style="transform-origin:131.335px 172.958px" fill="#fafafa" d="m118.26 185.62 25.74 15.84c0.24 0.14 0.43 0 0.43-0.25v-40.21a1 1 0 0 0 -0.44 -0.76l-25.75-15.84z"/>
   <path id="elvu2w67gqh3p" class="animable" style="transform-origin:119.725px 146.977px" fill="#263238" d="m120.15 147.23a1.07 1.07 0 0 0 -0.06 -0.3 1 1 0 0 0 -0.24 -0.41l-0.13-0.1c-0.23-0.14-0.42 0-0.42 0.32a1 1 0 0 0 0.1 0.42 0.86 0.86 0 0 0 0.33 0.39s0 0 0 0c0.27 0.11 0.42-0.02 0.42-0.32z"/>
   <path id="elzrnfwpf7x2" class="animable" style="transform-origin:145.52px 180.339px" fill="#e6e6e6" d="m144.3 160.58l2.49-1.44a0.93 0.93 0 0 1 0.13 0.44v40.2a1 1 0 0 1 -0.44 0.75l-1.61 0.93a0.93 0.93 0 0 1 -0.75 0c0.18 0.05 0.31-0.06 0.31-0.3v-40.16a0.78 0.78 0 0 0 -0.13 -0.42z"/>
   <path id="el2vf5s30xy5y" class="animable" style="transform-origin:118.7px 144.734px" fill="#263238" d="m114.38 145.19a1.75 1.75 0 0 0 1 1.5 6.17 6.17 0 0 0 4.38 0.31l-0.22-0.56a5.59 5.59 0 0 1 -3.87 -0.26 1.44 1.44 0 0 1 -0.57 -0.53 0.79 0.79 0 0 1 -0.12 -0.46c0-0.55 0.53-1.16 1.4-1.63a6.22 6.22 0 0 1 5.36 -0.29 1.46 1.46 0 0 1 0.64 0.66l0.64 0.38v-0.05a1.53 1.53 0 0 0 -0.2 -0.75 2.08 2.08 0 0 0 -0.8 -0.75 6.74 6.74 0 0 0 -5.93 0.28 2.77 2.77 0 0 0 -1.71 2.15z"/>
   <path id="elyr7k5gunuyb" class="animable" style="transform-origin:127.155px 172.726px" fill="#407bff" d="m143.46 202.28a0.72 0.72 0 0 0 0.31 -0.58v-40.4a0.78 0.78 0 0 0 -0.35 -0.61l-32.28-17.58-0.6 0.35v41.2l32.29 17.59a0.69 0.69 0 0 0 0.63 0.03z"/>
   <g id="elezzh7wyk26a">
    <path opacity=".1" style="transform-origin:143.253px 181.678px" d="m143.05 161.3l0.6-0.34a0.74 0.74 0 0 1 0.1 0.34v40.4a0.61 0.61 0 0 1 -1 0.55c0.19 0.11 0.35 0 0.35-0.2v-40.4a0.78 0.78 0 0 0 -0.05 -0.35z" class="animable"/>
   </g>
   <path id="elbgf001o83hw" class="animable" style="transform-origin:126.83px 172.858px" fill="#407bff" d="m110.52 143.46 32.28 17.54a0.75 0.75 0 0 1 0.35 0.61v40.4c0 0.22-0.16 0.31-0.35 0.2l-32.29-17.59z"/>
   <g id="elhr7jekt0bag">
    <path opacity=".2" style="transform-origin:127.085px 152.205px" d="m110.52 143.46l0.6-0.35 32.28 17.58a0.72 0.72 0 0 1 0.25 0.27l-0.6 0.34a0.78 0.78 0 0 0 -0.25 -0.26z" class="animable"/>
   </g>
   <polygon id="elwzzenw3jd3" style="transform-origin:114.715px 141.305px" points="118.42 138.9 110.53 143.46 111.05 143.71 118.9 139.17" fill="#407bff" class="animable"/>
   <g id="elw0aifix253q">
    <polygon opacity=".2" style="transform-origin:114.715px 141.305px" points="118.42 138.9 110.53 143.46 111.05 143.71 118.9 139.17" class="animable"/>
   </g>
   <path id="elk1057uadplc" class="animable" style="transform-origin:125.875px 174.027px" fill="#407bff" d="m111 144.51a0.55 0.55 0 0 0 -0.56 0l-0.62 0.35 0.38 39.52a1.76 1.76 0 0 0 0.8 1.38l30.93 17.86v-41.26z"/>
   <g id="eluq5a89hqrro">
    <path opacity=".2" style="transform-origin:125.875px 174.027px" d="m111 144.51a0.55 0.55 0 0 0 -0.56 0l-0.62 0.35 0.38 39.52a1.76 1.76 0 0 0 0.8 1.38l30.93 17.86v-41.26z" class="animable"/>
   </g>
   <path id="elrqnuhisyinn" class="animable" style="transform-origin:125.425px 174.334px" fill="#407bff" d="m110.36 144.86c-0.44-0.26-0.8-0.05-0.8 0.46v39.35a1.77 1.77 0 0 0 0.8 1.39l30.93 17.86v-41.21z"/>
   <g id="eletzpn66zq">
    <path opacity=".5" style="transform-origin:125.425px 174.334px" d="m110.36 144.86c-0.44-0.26-0.8-0.05-0.8 0.46v39.35a1.77 1.77 0 0 0 0.8 1.39l30.93 17.86v-41.21z" class="animable"/>
   </g>
   <path id="elql4lh2hh95" class="animable" style="transform-origin:122px 174.725px" fill="#ebebeb" d="m133.69 200.09-22.89-13.23a1.76 1.76 0 0 1 -0.8 -1.39v-36.29l-3-1.71 3.06-1.77a0.49 0.49 0 0 1 0.69 -0.07l26.25 15.17v41.2l-3.34 1.93z"/>
   <path id="elnvra13gnjer" class="animable" style="transform-origin:120.175px 175.709px" fill="#fafafa" d="m107.46 147.59c-0.44-0.26-0.8-0.05-0.8 0.46v39.35a1.79 1.79 0 0 0 0.8 1.39l26.23 15.15v-41.21z"/>
   <polygon id="el5m7904ivyo6" style="transform-origin:135.355px 182.37px" points="133.68 162.73 137.01 160.8 137.03 202.01 133.69 203.94" fill="#e6e6e6" class="animable"/>
   <path id="elkjbwbltr1yb" class="animable" style="transform-origin:132.165px 163.597px" fill="#263238" d="m132.59 163.85a1.21 1.21 0 0 0 -0.06 -0.31 1 1 0 0 0 -0.25 -0.4 0.29 0.29 0 0 0 -0.12 -0.1c-0.23-0.14-0.43 0-0.42 0.32a0.92 0.92 0 0 0 0.1 0.42 0.9 0.9 0 0 0 0.32 0.39h0.06c0.21 0.11 0.37-0.02 0.37-0.32z"/>
   <path id="elwxins3sw43" class="animable" style="transform-origin:135.019px 164.509px" fill="#263238" d="m137.22 165.84a2.1 2.1 0 0 0 0.95 -1 1.44 1.44 0 0 0 -0.1 -1.26 2.15 2.15 0 0 0 -0.84 -0.79 1.43 1.43 0 0 0 -0.21 -0.12v0.52a1.21 1.21 0 0 1 0 2.28 4.38 4.38 0 0 1 -4 0 1.3 1.3 0 0 1 -0.81 -1.25 1.06 1.06 0 0 1 0.31 -0.65 1 1 0 0 0 -0.25 -0.4 1.68 1.68 0 0 0 -0.44 0.64 1.41 1.41 0 0 0 0.17 1.19 2.2 2.2 0 0 0 0.85 0.8 4.79 4.79 0 0 0 4.37 0.04z"/>
   <path id="elzxk14tu1yd" class="animable" style="transform-origin:119.585px 156.926px" fill="#407bff" d="m133.49 166.67l-28.42-19.14 0.44-0.25a0.87 0.87 0 0 1 0.8 0l27.79 19z"/>
   <g id="ely0j4wsjdhx">
    <path opacity=".2" style="transform-origin:119.585px 156.926px" d="m133.49 166.67l-28.42-19.14 0.44-0.25a0.87 0.87 0 0 1 0.8 0l27.79 19z" class="animable"/>
   </g>
   <path id="eliivupr15wak" class="animable" style="transform-origin:119.415px 177.814px" fill="#407bff" d="m105.63 147.59c-0.44-0.26-0.8-0.05-0.8 0.46v39.35a1.77 1.77 0 0 0 0.8 1.39l28.37 19.36v-41.21z"/>
   <polygon id="el102qtpt1s97p" style="transform-origin:137.92px 185.26px" points="141.88 162.36 141.89 203.57 133.95 208.16 133.95 166.94" fill="#407bff" class="animable"/>
   <g id="elufpdw96sf6b">
    <polygon opacity=".1" style="transform-origin:137.92px 185.26px" points="141.88 162.36 141.89 203.57 133.95 208.16 133.95 166.94" class="animable"/>
   </g>
   <path id="elc8l6xdz6x0v" class="animable" style="transform-origin:138.174px 173.713px" fill="#455a64" d="m140.3 171.4a1.41 1.41 0 0 0 -1 -0.72 2.06 2.06 0 0 0 -1.36 0.31 4.83 4.83 0 0 0 -2.21 3.83 2.24 2.24 0 0 0 0.27 1.18 1.64 1.64 0 0 0 2.4 0.41 4.84 4.84 0 0 0 2.22 -3.84 2.33 2.33 0 0 0 -0.28 -1.13z"/>
   <path id="el4k6fbk52ph5" class="animable" style="transform-origin:138.13px 173.68px" fill="#f5f5f5" d="m138.13 171.39c1.09-0.63 2-0.12 2 1.15a4.36 4.36 0 0 1 -2 3.43c-1.09 0.63-2 0.12-2-1.14a4.39 4.39 0 0 1 2 -3.44z"/>
   <path id="elkkwrdz7ogs" class="animable" style="transform-origin:138.04px 191.195px" fill="#f5f5f5" d="m137.74 179.92l0.6-0.34c1.2-0.7 2.18-0.13 2.18 1.25v17.86a4.84 4.84 0 0 1 -2.18 3.78l-0.6 0.34c-1.2 0.7-2.18 0.13-2.18-1.25v-17.86a4.84 4.84 0 0 1 2.18 -3.78z"/>
   <polygon id="elos58h4s3h8i" style="transform-origin:137.695px 164.51px" points="141.41 162.08 133.51 166.64 133.95 166.94 141.88 162.36" fill="#407bff" class="animable"/>
   <g id="el7hjn7y81tn3">
    <polygon opacity=".2" style="transform-origin:137.695px 164.51px" points="141.41 162.08 133.51 166.64 133.95 166.94 141.88 162.36" class="animable"/>
   </g>
  </g>
 </g>
 <g id="speech-bubble--inject-1--inject-32" style="transform-origin:362.1px 114.481px" class="animable">
  <path id="el8trc836hr4y" class="animable" style="transform-origin:358.875px 140.33px" fill="#407bff" d="m364.12 151.44-3.95-7.44l3.18-9.17v-5.61l-9.72 5.61v5.62l4.18 7.23a0.58 0.58 0 0 0 0.28 0.26z"/>
  <g id="elfbqvzg1l9xb">
   <path opacity=".2" style="transform-origin:358.875px 140.33px" d="m364.12 151.44-3.95-7.44l3.18-9.17v-5.61l-9.72 5.61v5.62l4.18 7.23a0.58 0.58 0 0 0 0.28 0.26z" class="animable"/>
  </g>
  <path id="elvvnghqrnayh" class="animable" style="transform-origin:362.1px 114.447px" fill="#407bff" d="m387.33 84.63a6.45 6.45 0 0 0 -2.92 -5l-2.41-1.41a6.44 6.44 0 0 0 -5.83 0l-36.38 21a6.45 6.45 0 0 0 -2.92 5v40a6.45 6.45 0 0 0 2.92 5l2.37 1.37a6.44 6.44 0 0 0 5.83 0l11.7-6.76 4.17 7.22a0.62 0.62 0 0 0 1.13 -0.1l4.4-12.73 15-8.67a6.45 6.45 0 0 0 2.92 -5z"/>
  <g id="el91uqo5i389d">
   <path opacity=".2" style="transform-origin:342.22px 126.402px" d="m336.91 144.34a6.45 6.45 0 0 0 2.92 5l2.37 1.37a6.54 6.54 0 0 0 5.33 0.24c-1.37 0.52-2.42-0.26-2.42-1.92v-40.03a6 6 0 0 1 0.86 -2.87l-8.2-4.73a5.92 5.92 0 0 0 -0.86 2.87z" class="animable"/>
  </g>
  <g id="elovk5oglvgg">
   <path opacity=".3" style="transform-origin:362.49px 91.8763px" fill="#fff" d="m387.23 83.81c-0.34-1.24-1.47-1.63-2.81-0.86l-36.42 21.05a5.71 5.71 0 0 0 -2.06 2.18l-8.19-4.74a5.89 5.89 0 0 1 2.05 -2.17l36.38-21a6.44 6.44 0 0 1 5.83 0l2.38 1.37a6.43 6.43 0 0 1 2.84 4.17z" class="animable"/>
  </g>
  <path id="el1mpl0jr2x7e" class="animable" style="transform-origin:359.364px 115.875px" fill="#455a64" d="m370.2 112.57a0.37 0.37 0 0 0 -0.15 0l-2.05-0.17a0.34 0.34 0 0 1 -0.36 -0.34c0-0.33 0.05-0.66 0.05-1s0-0.7 0-1a0.93 0.93 0 0 1 0.23 -0.61l2.33-2.83a0.64 0.64 0 0 0 0.14 -0.58l-1.11-2.46a0.14 0.14 0 0 0 -0.06 -0.07c-0.09 0-0.23 0-0.36 0.11l-2.49 2.28a0.44 0.44 0 0 1 -0.55 0.09 3.78 3.78 0 0 0 -1.06 -0.62 0.4 0.4 0 0 1 -0.25 -0.44l0.77-3.49a0.21 0.21 0 0 0 -0.11 -0.24 0.34 0.34 0 0 0 -0.23 0l-2.44 0.24a0.65 0.65 0 0 0 -0.53 0.37l-1.33 3.55a1.1 1.1 0 0 1 -0.53 0.51 11.32 11.32 0 0 0 -1.51 0.88c-0.2 0.13-0.43 0.14-0.52 0l-1.25-1.91c-0.09-0.13-0.29-0.1-0.45 0.06l-2.68 2.83a0.74 0.74 0 0 0 -0.21 0.59l0.75 2.52a0.88 0.88 0 0 1 -0.13 0.61 22 22 0 0 0 -1.24 2.14 1 1 0 0 1 -0.58 0.43l-2.29 0.56a0.77 0.77 0 0 0 -0.52 0.43l-1.15 3.88a0.27 0.27 0 0 0 0.28 0.35l2.1 0.12a0.34 0.34 0 0 1 0.35 0.34 11.27 11.27 0 0 0 0 2 1 1 0 0 1 -0.22 0.62l-2.34 2.83a0.64 0.64 0 0 0 -0.14 0.58l1.11 2.45a0.14 0.14 0 0 0 0.07 0.08h0.08a0.48 0.48 0 0 0 0.27 -0.13l2.49-2.28a0.44 0.44 0 0 1 0.55 -0.09 4 4 0 0 0 1.06 0.62 0.39 0.39 0 0 1 0.25 0.44l-0.77 3.49a0.22 0.22 0 0 0 0.1 0.24 0.34 0.34 0 0 0 0.23 0l2.44-0.24a0.67 0.67 0 0 0 0.53 -0.37l1.33-3.55a1.14 1.14 0 0 1 0.53 -0.51 8.14 8.14 0 0 0 0.77 -0.41c0.25-0.14 0.49-0.3 0.74-0.47s0.43-0.14 0.52 0l1.25 1.91h0.06c0.1 0.07 0.26 0 0.39-0.11l2.64-2.8a0.7 0.7 0 0 0 0.2 -0.59l-0.74-2.52a0.84 0.84 0 0 1 0.14 -0.61 19.06 19.06 0 0 0 1.23 -2.14 1 1 0 0 1 0.58 -0.43l2.29-0.56a0.72 0.72 0 0 0 0.52 -0.43l1.15-3.88a0.24 0.24 0 0 0 -0.17 -0.27zm-12.2 9.48h-0.13-0.1-0.22-0.25-0.3a2.44 2.44 0 0 1 -2.29 -1.54 4.1 4.1 0 0 1 -0.34 -1.28 5.53 5.53 0 0 1 0 -0.71 10.92 10.92 0 0 1 3 -6.93 8.43 8.43 0 0 1 1.84 -1.5c0.21-0.12 0.42-0.23 0.62-0.32a3.9 3.9 0 0 1 1.73 -0.36h0.19 0.1a2.46 2.46 0 0 1 1.92 1.51c1 2.29-0.16 6.29-2.65 8.92a6.93 6.93 0 0 1 -3.12 2.21z"/>
  <path id="el9md5hosaha" class="animable" style="transform-origin:376.579px 120.572px" fill="#455a64" d="m384.85 118h-0.12l-1.58-0.09a0.25 0.25 0 0 1 -0.27 -0.25v-0.74a6.74 6.74 0 0 0 0 -0.79 0.76 0.76 0 0 1 0.17 -0.47l1.78-2.15a0.47 0.47 0 0 0 0.1 -0.44l-0.84-1.86-0.05-0.06c-0.07 0-0.17 0-0.27 0.08l-1.91 1.77a0.35 0.35 0 0 1 -0.42 0.07 2.81 2.81 0 0 0 -0.8 -0.47 0.3 0.3 0 0 1 -0.19 -0.33l0.58-2.65a0.18 0.18 0 0 0 -0.08 -0.19 0.48 0.48 0 0 0 -0.18 0l-1.85 0.19a0.51 0.51 0 0 0 -0.4 0.28l-1 2.69a0.87 0.87 0 0 1 -0.41 0.39 8.36 8.36 0 0 0 -1.14 0.66c-0.16 0.11-0.33 0.11-0.4 0l-0.95-1.44c-0.06-0.11-0.22-0.08-0.34 0l-2 2.15a0.56 0.56 0 0 0 -0.16 0.44l0.57 1.92a0.67 0.67 0 0 1 -0.1 0.46 15.48 15.48 0 0 0 -0.94 1.62 0.72 0.72 0 0 1 -0.44 0.33l-1.74 0.42a0.58 0.58 0 0 0 -0.39 0.32l-0.88 3a0.21 0.21 0 0 0 0.22 0.27l1.59 0.09a0.25 0.25 0 0 1 0.27 0.25 8.71 8.71 0 0 0 0 1.53 0.7 0.7 0 0 1 -0.17 0.47l-1.77 2.15a0.48 0.48 0 0 0 -0.11 0.44l0.84 1.86 0.05 0.05h0.08a0.37 0.37 0 0 0 0.21 -0.09l1.89-1.73a0.33 0.33 0 0 1 0.41 -0.07 3 3 0 0 0 0.81 0.47 0.3 0.3 0 0 1 0.19 0.33l-0.59 2.65a0.18 0.18 0 0 0 0.08 0.18 0.29 0.29 0 0 0 0.17 0l1.85-0.19a0.51 0.51 0 0 0 0.4 -0.28l1-2.69a0.84 0.84 0 0 1 0.4 -0.39c0.2-0.09 0.39-0.2 0.59-0.31l0.56-0.35c0.15-0.11 0.33-0.12 0.39 0l0.95 1.44a0.12 0.12 0 0 0 0.05 0.05 0.26 0.26 0 0 0 0.29 -0.09l2-2.15a0.56 0.56 0 0 0 0.16 -0.44l-0.57-1.92a0.68 0.68 0 0 1 0.11 -0.46 13.81 13.81 0 0 0 0.93 -1.62 0.75 0.75 0 0 1 0.44 -0.33l1.74-0.42a0.55 0.55 0 0 0 0.39 -0.33l0.88-2.94a0.19 0.19 0 0 0 -0.08 -0.29zm-9.28 7.19h-0.1-0.07-0.17-0.19-0.17a1.84 1.84 0 0 1 -1.74 -1.17 3 3 0 0 1 -0.26 -1 4.58 4.58 0 0 1 0 -0.53 8.24 8.24 0 0 1 2.3 -5.26 6.16 6.16 0 0 1 1.4 -1.14 5.06 5.06 0 0 1 0.43 -0.09 3 3 0 0 1 1.32 -0.27h0.22a1.85 1.85 0 0 1 1.45 1.15c0.78 1.73-0.12 4.76-2 6.76a5.32 5.32 0 0 1 -2.42 1.59z"/>
 </g>
 <g id="characters-and-desk--inject-1--inject-32" style="transform-origin:289.87px 258.241px" class="animable">
  <g id="Character--inject-1--inject-32" style="transform-origin:289.87px 258.241px" class="animable">
   <path id="el3kikbm5jerh" class="animable" style="transform-origin:234.325px 203.96px" fill="#263238" d="m238.39 225.05l-6.16-3.49a7.1 7.1 0 0 1 -3.58 -6.15v-32.54h3.27v32.54a3.79 3.79 0 0 0 1.92 3.31l6.16 3.5z"/>
   <path id="elq9udy50n92" class="animable" style="transform-origin:238.185px 169.689px" fill="#455a64" d="m220.14 194.75a4.14 4.14 0 0 1 -1.81 -3.27v-29a3.79 3.79 0 0 1 2 -3.15l32.08-14.82a4.7 4.7 0 0 1 3.82 0.11 4.14 4.14 0 0 1 1.81 3.27v29a3.79 3.79 0 0 1 -2 3.15l-32.04 14.82a4.7 4.7 0 0 1 -3.86 -0.11z"/>
   <path id="el54j31ej1ph8" class="animable" style="transform-origin:221.94px 177.921px" fill="#263238" d="m225.55 164.44l-6.61-3.82a3.61 3.61 0 0 0 -0.61 1.87v29a4.14 4.14 0 0 0 1.81 3.27 4.7 4.7 0 0 0 3.82 0.11l1.59-0.74z"/>
   <path id="el01w7ozbi20kf" class="animable" style="transform-origin:240.001px 170.73px" fill="#37474f" d="m224 161.42 32-14.81a1.31 1.31 0 0 1 2 1.29v29a3.79 3.79 0 0 1 -2 3.15l-32 14.81a1.32 1.32 0 0 1 -2 -1.29v-29a3.81 3.81 0 0 1 2 -3.15z"/>
   <path id="el8wulm7i4qlv" class="animable" style="transform-origin:227.64px 254.186px" fill="#263238" d="m231 226.92v54.42a1.61 1.61 0 0 1 -0.72 1.26l-1.94 1.12a1.61 1.61 0 0 1 -1.45 0l-1.89-1.12a1.61 1.61 0 0 1 -0.72 -1.26v-54.42a2.44 2.44 0 0 1 2.44 -2.44h1.88a2.44 2.44 0 0 1 2.4 2.44z"/>
   <path id="el5zhcsk16dbo" class="animable" style="transform-origin:226px 254.167px" fill="#37474f" d="m226 224.48a1.69 1.69 0 0 1 1.69 1.69v57.23c0 0.4-0.28 0.57-0.63 0.37l-2.06-1.19a1.54 1.54 0 0 1 -0.69 -1.2v-55.21a1.69 1.69 0 0 1 1.69 -1.69z"/>
   <path id="elfz2b2dh6s7" class="animable" style="transform-origin:264.285px 274.881px" fill="#263238" d="m267.68 246v56a1.59 1.59 0 0 1 -0.72 1.25l-1.96 1.18a1.61 1.61 0 0 1 -1.45 0l-1.94-1.12a1.59 1.59 0 0 1 -0.72 -1.25v-56.06a0.84 0.84 0 0 1 0.83 -0.84h5.11a0.84 0.84 0 0 1 0.85 0.84z"/>
   <path id="eln7pgkpu8v3h" class="animable" style="transform-origin:262.6px 274.865px" fill="#37474f" d="m261.74 245.19h1.72a0.84 0.84 0 0 1 0.83 0.84v58c0 0.46-0.32 0.64-0.72 0.41l-1.94-1.12a1.59 1.59 0 0 1 -0.72 -1.25v-56.07a0.84 0.84 0 0 1 0.83 -0.81z"/>
   <path id="eliw9k87v1xvi" class="animable" style="transform-origin:269.1px 228.347px" fill="#37474f" d="m224.27 225.76v0.75a4.85 4.85 0 0 0 1.8 3.52l36.42 25.4a3.74 3.74 0 0 0 3.73 0.19l45.78-26.46a4.22 4.22 0 0 0 1.93 -3.33v-0.77a3.78 3.78 0 0 0 -2 -3.16l-45.04-20.9a4.84 4.84 0 0 0 -3.94 0.18l-36.76 21.24a4.27 4.27 0 0 0 -1.92 3.34z"/>
   <path id="elm7aehq2ihfa" class="animable" style="transform-origin:269.114px 225.739px" fill="#455a64" d="m226.19 222.42 36.81-21.24a4.84 4.84 0 0 1 3.94 -0.18l45.06 20.9c1.12 0.52 1.16 1.43 0.09 2l-45.87 26.5a3.72 3.72 0 0 1 -3.73 -0.19l-36.42-25.37a1.34 1.34 0 0 1 0.12 -2.42z"/>
   <g id="Boy--inject-1--inject-32" style="transform-origin:290.685px 222.739px" class="animable">
    <g id="elvbeopurklxj">
     <rect style="transform:rotate(180deg);transform-origin:283.56px 315.22px" height="16.2" width="9.46" y="307.12" x="278.83" class="animable" fill="#ffa8a7"/>
    </g>
    <polygon id="ellwiek3r7r3n" style="transform-origin:311.21px 294.765px" points="306.24 303.18 315.7 303.5 316.18 286.35 306.72 286.03" fill="#ffa8a7" class="animable"/>
    <path id="elkfmt28nrcra" class="animable" style="transform-origin:291.669px 331.308px" fill="#263238" d="m288.3 319.07v-1.68c1 0.43 5.46 9.9 9.54 13.62 3.25 3 9 7 8.81 9.82-0.18 3.62-5.34 5.23-9.8 4.18-3.48-0.82-8.45-2.93-10.84-5.5s-3.16-6-4.4-7.65-4.12-3.56-4.79-5.51c-0.37-1.07 0.07-3.42 0.59-5.4 0.47-1.82 1-3.82 1.61-3.65v1.12c0.75 0.83 2.81 1.65 5.14 1.74 1.51 0.06 4.15 0.06 4.14-1.09z"/>
    <path id="el0lgdrtrqdlll" class="animable" style="transform-origin:322.342px 309.685px" fill="#263238" d="m315.8 300.58c0.49 0 0.89 0.71 2 1.89 1.31 1.41 4.24 2.9 6.35 3.95 3.55 1.78 12.82 4.16 15.94 5.56 1.95 0.88 1.46 3.91-1.3 5.61-2.06 1.27-8.62 2.49-14.46 1.19-3.18-0.72-8-2.92-10.38-3.29-2.6-0.41-7.37-0.91-9.3-2.24s-1.16-4.18-0.61-6.63c0.59-2.67 1.45-6.76 2.33-6.58v0.84c1.14 1.73 6.93 2.43 9.43 1.16z"/>
    <path id="eld6xnc9lqqad" class="animable" style="transform-origin:282.655px 256.087px" fill="#407bff" d="m240.71 208.58c-2.07 14.63 0.72 17.44 14.62 31.45 7.48 7.53 19.52 18.58 19.52 18.58s-0.17 4.67-0.27 15.15c-0.09 9.22 3.77 39.25 3.77 39.25s6.28 2.64 10.59-0.1 1.95-22.34 3-34c1.43-15.78 2.17-23.69 1.37-27.09-0.71-3-14.86-20.85-18.13-25.87l30.07 17.47a102.34 102.34 0 0 0 -0.88 13.35c0.33 12.53 1.87 37.54 1.87 37.54s6.89 3.08 10.3 0.42 8.67-54.7 8.67-59.19c0-6.82-29.63-27.18-35.24-31.93-3.2-2.7-6.77-5.59-6.77-5.59z"/>
    <g id="elzqtptvp7zuo">
     <path opacity=".3" style="transform-origin:282.655px 256.087px" d="m240.71 208.58c-2.07 14.63 0.72 17.44 14.62 31.45 7.48 7.53 19.52 18.58 19.52 18.58s-0.17 4.67-0.27 15.15c-0.09 9.22 3.77 39.25 3.77 39.25s6.28 2.64 10.59-0.1 1.95-22.34 3-34c1.43-15.78 2.17-23.69 1.37-27.09-0.71-3-14.86-20.85-18.13-25.87l30.07 17.47a102.34 102.34 0 0 0 -0.88 13.35c0.33 12.53 1.87 37.54 1.87 37.54s6.89 3.08 10.3 0.42 8.67-54.7 8.67-59.19c0-6.82-29.63-27.18-35.24-31.93-3.2-2.7-6.77-5.59-6.77-5.59z" class="animable"/>
    </g>
    <g id="elor8kd2wy7i">
     <path opacity=".1" style="transform-origin:290.215px 229.835px" d="m275.18 226a21.6 21.6 0 0 0 6.87 -9.8 48.18 48.18 0 0 1 -1.07 7.46c-0.81 3.25 24.27 19.81 24.27 19.81z" class="animable"/>
    </g>
    <path id="el29khwlx8i37" class="animable" style="transform-origin:291.141px 168.035px" fill="#ffa8a7" d="m292.6 174.59s1.66-14.92 1.66-20.38c0-5.85-2.47-9.31-10.07-9.48 0 0-5.52 37.76-2.53 40.61 1.64 1.56 8.8 3.91 15.92 6l3.93-11.34c-2.68-1.6-5.64-3.4-8.91-5.41z"/>
    <path id="el1cucbsil7mb" class="animable" style="transform-origin:286.402px 161.402px" fill="#e0e0e0" d="m283 144.17s6.28 0.16 9.07 2.83 2.86 4.95 2.57 9.88-1.27 17.72-1.27 17.72-4.72 4.46-15.32 4z"/>
    <path id="eloar16u9b748" class="animable" style="transform-origin:266.896px 180.122px" fill="#f5f5f5" d="m252.64 152.66c-2.25 3.38-8.9 20.44-12.17 57.56 6.64 7.22 39.34 8.81 49.5-6.58 0 0 3.42-30.84 3.35-38.21-0.05-5.11-0.19-17.45-9.13-20.7h-11.71l-13.35 2.27a17.06 17.06 0 0 0 -6.49 5.66z"/>
    <path id="elj18d90kxp0j" class="animable" style="transform-origin:285.125px 115.635px" fill="#263238" d="m271.7 115a13.44 13.44 0 1 0 14.06 -12.79 13.43 13.43 0 0 0 -14.06 12.79z"/>
    <path id="elp1olc36tnt" class="animable" style="transform-origin:264.09px 131.25px" fill="#263238" d="m261.47 124.11s1.69 10.32 2.48 12a4.64 4.64 0 0 0 2.57 2.28l0.19-7.19z"/>
    <path id="elr1v3ps2wquf" class="animable" style="transform-origin:262.552px 117.152px" fill="#263238" d="m264.89 109.6a5.05 5.05 0 0 0 -4.24 1.27c-1.87 1.74-1.15 7.52 0.82 13.24l4.07 0.66z"/>
    <path id="elgxchi9pf1lu" class="animable" style="transform-origin:276.681px 128.302px" fill="#ffa8a7" d="m266.77 124.83c-0.84 0.45-1.94-1.18-2.9-2.29s-4.21-2.71-6 0.69 1.07 8.29 3.63 9.23c4.42 1.62 5.23-1.22 5.23-1.22l-0.42 16.2c3.66 4.5 17.68 8.49 14.62 0.26l0.22-4.93a28.46 28.46 0 0 0 6 0.6c3.33-0.35 5.53-2.86 6.7-6.38 1.88-5.66 2.71-10.27 1.88-21.62-0.91-12.43-15.29-13.24-23.29-8.72s-5.67 18.18-5.67 18.18z"/>
    <path id="elup59p813nn" class="animable" style="transform-origin:281.718px 113.304px" fill="#263238" d="m266.71 126.21c-0.37-0.19-1.87-2.69-2.84-3.67-1.36-1.35 1-12.94 1-12.94a5.54 5.54 0 0 1 1.65 -5.84 11.7 11.7 0 0 1 11.28 -3.26 109.61 109.61 0 0 0 10.83 1.88 24.87 24.87 0 0 0 11.23 -1.33 11.5 11.5 0 0 1 -0.7 6 9.31 9.31 0 0 1 -3.86 4.23c-1.92 1.11-3.87 1.78-7.88 1.94a45.1 45.1 0 0 1 -14.65 -1.58c-1.51-0.28-1.91 1.18-2.92 5.18-0.85 3.46 0.05 11.1-3.14 9.39z"/>
    <path id="el49g51out9rr" class="animable" style="transform-origin:262.611px 108.331px" fill="#263238" d="m264.86 110.51-4.86-2.91a2.74 2.74 0 0 1 3.82 -1.06 3 3 0 0 1 1.04 3.97z"/>
    <path id="elfwacgxcg5ut" class="animable" style="transform-origin:274.53px 140.245px" fill="#f28f8f" d="m281.13 142.77s-7.3-1.83-9.81-3.32a8.49 8.49 0 0 1 -3.39 -3.69 11.59 11.59 0 0 0 1.83 4.25c1.76 2.5 11.28 4.72 11.28 4.72z"/>
    <path id="elzvqja4zp1bc" class="animable" style="transform-origin:281.524px 124.279px" fill="#263238" d="m283 124.41a1.48 1.48 0 1 1 -1.41 -1.61 1.53 1.53 0 0 1 1.41 1.61z"/>
    <path id="elgrpn9auuqen" class="animable" style="transform-origin:279.994px 119.58px" fill="#263238" d="m281.7 119.31l-3.24 1.6a1.9 1.9 0 0 1 0.86 -2.48 1.75 1.75 0 0 1 2.38 0.88z"/>
    <path id="elzddbetctg8" class="animable" style="transform-origin:282.467px 135.154px" fill="#f28f8f" d="m280.88 133.87l3.31 1.43a1.77 1.77 0 0 1 -2.34 1 1.9 1.9 0 0 1 -0.97 -2.43z"/>
    <path id="el5biqole4vl5" class="animable" style="transform-origin:293.32px 119.25px" fill="#263238" d="m294.5 120.77l-2.77-2.35a1.74 1.74 0 0 1 2.52 -0.27 1.9 1.9 0 0 1 0.25 2.62z"/>
    <path id="elih6ddpoatn" class="animable" style="transform-origin:292.145px 123.738px" fill="#263238" d="m293.62 123.87a1.48 1.48 0 1 1 -1.4 -1.61 1.5 1.5 0 0 1 1.4 1.61z"/>
    <polygon id="elay41varxr6p" style="transform-origin:288.6px 126.69px" points="287.12 122.25 285.89 131.13 291.31 130.8" fill="#f28f8f" class="animable"/>
   </g>
   <polygon id="elc5p5ps7a8jw" style="transform-origin:289.87px 249.725px" points="253.08 319.41 169.14 270.95 326.67 180.04 410.6 228.5" fill="#455a64" class="animable"/>
   <polygon id="el0s2wgwu35rcp" style="transform-origin:211.11px 343.64px" points="169.14 270.95 169.14 367.87 173.56 370.42 173.56 304.11 248.66 347.47 248.66 413.78 253.08 416.33 253.08 319.41" fill="#263238" class="animable"/>
   <polygon id="elzwqs6bd5hs" style="transform-origin:175.77px 337.265px" points="173.56 370.42 177.98 367.87 177.98 306.66 173.56 304.11" class="animable"/>
   <polygon id="elgz550yhy7um" style="transform-origin:331.84px 322.415px" points="253.08 416.33 257.5 413.78 257.5 347.47 406.19 261.66 406.19 327.97 410.6 325.42 410.6 228.5 253.08 319.41" fill="#37474f" class="animable"/>
   <polygon id="el0ni1gdg1zujq" style="transform-origin:403.98px 294.815px" points="406.19 327.97 401.77 325.42 401.77 264.21 406.19 261.66" fill="#263238" class="animable"/>
   <path id="ele0z9d8azs1p" class="animable" style="transform-origin:222.436px 264.29px" fill="#ebebeb" d="m252.43 262.27-33.43 19.31a2.1 2.1 0 0 1 -1.89 0l-24.62-14.21a0.58 0.58 0 0 1 0 -1.09l33.43-19.28a2.08 2.08 0 0 1 1.88 0l24.63 14.22a0.58 0.58 0 0 1 0 1.05z"/>
   <path id="elx81wm2zmdjj" class="animable" style="transform-origin:222.455px 263.03px" fill="#e0e0e0" d="m227.8 247l23.38 13.5-32.18 18.56a2.1 2.1 0 0 1 -1.89 0l-23.38-13.5 32.19-18.56a2.08 2.08 0 0 1 1.88 0z"/>
   <path id="elpndk65i0bn" class="animable" style="transform-origin:222.428px 260.885px" fill="#fafafa" d="m252.43 258.86-33.43 19.32a2.1 2.1 0 0 1 -1.89 0l-24.65-14.18a0.58 0.58 0 0 1 0 -1.09l33.46-19.32a2.08 2.08 0 0 1 1.88 0l24.63 14.22a0.57 0.57 0 0 1 0 1.05z"/>
   <path id="el6jduyjy7de" class="animable" style="transform-origin:315.25px 211.925px" fill="#e0e0e0" d="m279.91 224.86v-0.37a2.08 2.08 0 0 1 0.94 -1.63l55.55-32.07a2.08 2.08 0 0 1 1.88 0l11.37 6.56a2.08 2.08 0 0 1 0.94 1.63v0.38a2.08 2.08 0 0 1 -0.94 1.63l-55.54 32.07a2.1 2.1 0 0 1 -1.89 0l-11.37-6.57a2.08 2.08 0 0 1 -0.94 -1.63z"/>
   <path id="elpct5wxz8kgc" class="animable" style="transform-origin:315.247px 210.65px" fill="#fafafa" d="m280.85 223.94l11.37 6.57a2.08 2.08 0 0 0 1.88 0l55.55-32.07a0.58 0.58 0 0 0 0 -1.09l-11.37-6.56a2.08 2.08 0 0 0 -1.88 0l-55.55 32.07a0.57 0.57 0 0 0 0 1.08z"/>
   <path id="eliffdkipxe3" class="animable" style="transform-origin:316.187px 192.288px" fill="#ffa8a7" d="m333.08 198.26c-1-1.61-6.31-6.33-7.35-7.3s-5.57-1.63-9.54-2.87c-3.63-1.68-8.39-4.34-14.68-8.09l-3.93 11.32c5.89 1.71 11.77 3.23 14.49 4 2.29 0.88 2.21 1.56 4.08 2.62 3.46 2 5.72 1.58 5.72 1.58a31.57 31.57 0 0 0 3.27 2.71c2.46 1.68 4.92 3 7.94 2 3.31-1.08 0.98-4.35 0-5.97z"/>
   <path id="elyg327xo71ep" class="animable" style="transform-origin:313.072px 265.004px" fill="#ebebeb" d="m319.08 271c3.22-3.29 5.12-11.5 2-14.1h-16c-3.14 2.6-1.25 10.8 2 14.09l0.09 0.09a0.57 0.57 0 0 0 0.11 0.11 2.43 2.43 0 0 0 0.29 0.26l0.08 0.06a2.51 2.51 0 0 0 0.24 0.19l0.41 0.26a10.61 10.61 0 0 0 9.6 0 4.94 4.94 0 0 0 0.42 -0.27l0.23-0.17 0.09-0.07 0.28-0.25 0.13-0.13z"/>
   <path id="elugfktnsc9gp" class="animable" style="transform-origin:313.061px 259.66px" fill="#fafafa" d="m306.46 255.85c-3.65 2.1-3.65 5.52 0 7.62a14.58 14.58 0 0 0 13.21 0c3.64-2.1 3.64-5.52 0-7.62a14.58 14.58 0 0 0 -13.21 0z"/>
   <path id="elrrel8oifaa" class="animable" style="transform-origin:313.004px 259.66px" fill="#ebebeb" d="m309 257.34c-2.21 1.28-2.21 3.36 0 4.64a8.9 8.9 0 0 0 8 0c2.22-1.28 2.22-3.36 0-4.64a8.9 8.9 0 0 0 -8 0z"/>
   <path id="elh536akezav6" class="animable" style="transform-origin:313.04px 260.77px" fill="#e0e0e0" d="m317.08 259.54a8.9 8.9 0 0 0 -8 0 3.88 3.88 0 0 0 -1.33 1.22 3.88 3.88 0 0 0 1.25 1.24 8.9 8.9 0 0 0 8 0 3.7 3.7 0 0 0 1.33 -1.22 3.7 3.7 0 0 0 -1.25 -1.24z"/>
   <path id="el693zkb1hin5" class="animable" style="transform-origin:313.557px 253.393px" fill="#407bff" d="m309.53 260.76a18.27 18.27 0 0 1 -2.9 -3.86c-1.35-2.38-1.59-5.56-0.9-5.95s3.52 2.78 3.52 2.78a17 17 0 0 1 -0.3 -4c0.12-2.12 0.64-4 1.24-4.42s2 2.28 2.54 4.21 0.93 3.52 0.93 3.52a30.65 30.65 0 0 1 1 -4.45c0.71-2 1.34-2.46 1.84-2.26s0.82 1.13 1 3.81a26.61 26.61 0 0 1 -0.12 3.82s1-1.09 2.1-2.16 1.73-1.32 2.08-1.1 0.44 2-1.44 5.44a19 19 0 0 1 -3.55 4.67s-2.57 1.63-7.04-0.05z"/>
   <path id="elrlmoqbwe3b" class="animable" style="transform-origin:261.02px 284.96px" fill="#407bff" d="m296.85 286.55a0.61 0.61 0 0 0 0.36 -0.5v-0.77l-37.21-21a1.89 1.89 0 0 0 -1.73 0l-33.44 19.3 38.59 22.27z"/>
   <g id="el8q7fg9cnqd7">
    <path opacity=".2" style="transform-origin:261.02px 284.96px" d="m296.85 286.55a0.61 0.61 0 0 0 0.36 -0.5v-0.77l-37.21-21a1.89 1.89 0 0 0 -1.73 0l-33.44 19.3 38.59 22.27z" class="animable"/>
   </g>
   <path id="elnowhz5e24yl" class="animable" style="transform-origin:261.017px 284.21px" fill="#407bff" d="m296.85 285.8a0.53 0.53 0 0 0 0 -1l-36.85-21.27a1.89 1.89 0 0 0 -1.73 0l-33.44 19.3 38.59 22.27z"/>
   <g id="el0j9tosiss0v5">
    <path opacity=".5" style="transform-origin:261.017px 284.21px" d="m296.85 285.8a0.53 0.53 0 0 0 0 -1l-36.85-21.27a1.89 1.89 0 0 0 -1.73 0l-33.44 19.3 38.59 22.27z" class="animable"/>
   </g>
   <path id="eldsb7tw5kuzk" class="animable" style="transform-origin:262.59px 282.7px" fill="#ebebeb" d="m232.53 277.79l24.75-14.29a2 2 0 0 1 1.74 0l34 19.62 3.22-1.87v3.81h-0.06c0.11 0.23 0 0.49-0.29 0.67l-28.36 16.37-38.59-22.27v-4.16z"/>
   <path id="elojfcow5hgh" class="animable" style="transform-origin:262.562px 278.565px" fill="#fafafa" d="m295.87 281.61a0.53 0.53 0 0 0 0 -1l-36.87-21.27a1.91 1.91 0 0 0 -1.74 0l-28.36 16.37 38.61 22.29z"/>
   <polygon id="elw18xdef57oj" style="transform-origin:248.215px 288.925px" points="267.51 297.97 267.51 302.14 228.92 279.87 228.92 275.71" fill="#e6e6e6" class="animable"/>
   <path id="elk2l8zf0k6b" class="animable" style="transform-origin:267.511px 296.083px" fill="#263238" d="m267.05 296.34a1.1 1.1 0 0 0 0.32 0.11 1 1 0 0 0 0.51 0 0.44 0.44 0 0 0 0.16 -0.06c0.26-0.14 0.23-0.4-0.07-0.57a1.12 1.12 0 0 0 -0.45 -0.13 0.94 0.94 0 0 0 -0.54 0.09 0.1 0.1 0 0 0 -0.05 0c-0.2 0.22-0.16 0.4 0.12 0.56z"/>
   <path id="elgj1yfduc7pg" class="animable" style="transform-origin:265.274px 298.37px" fill="#263238" d="m262.68 299.6a2.25 2.25 0 0 0 0.44 1.44 1.55 1.55 0 0 0 1.24 0.59 2.4 2.4 0 0 0 1.2 -0.36l0.22-0.13-0.49-0.28c-1.18 0.66-2.12 0.1-2.12-1.26a4.75 4.75 0 0 1 2.14 -3.71 1.42 1.42 0 0 1 1.61 -0.08 1.14 1.14 0 0 1 0.44 0.64 1 1 0 0 0 0.51 0 1.79 1.79 0 0 0 -0.36 -0.76 1.55 1.55 0 0 0 -1.24 -0.58 2.45 2.45 0 0 0 -1.21 0.37 5.17 5.17 0 0 0 -2.38 4.12z"/>
   <path id="el64eexfgljrs" class="animable" style="transform-origin:280.57px 287.935px" fill="#407bff" d="m263.93 295.67l33.28-16.27v0.6a1 1 0 0 1 -0.43 0.75l-32.85 15.72z"/>
   <g id="elxotkjya40n">
    <path opacity=".2" style="transform-origin:280.57px 287.935px" d="m263.93 295.67l33.28-16.27v0.6a1 1 0 0 1 -0.43 0.75l-32.85 15.72z" class="animable"/>
   </g>
   <path id="eldto86xq6qaj" class="animable" style="transform-origin:261.02px 276.71px" fill="#407bff" d="m296.85 279.9c0.48-0.28 0.48-0.73 0-1l-36.85-21.27a1.89 1.89 0 0 0 -1.73 0l-33.44 16.05 38.59 22.32z"/>
   <polygon id="elo4ubfvpx03" style="transform-origin:244.125px 289.76px" points="263.42 305.85 224.83 283.58 224.83 273.67 263.42 295.95" fill="#407bff" class="animable"/>
   <g id="elll7xqxfli4">
    <polygon opacity=".1" style="transform-origin:244.125px 289.76px" points="263.42 305.85 224.83 283.58 224.83 273.67 263.42 295.95" class="animable"/>
   </g>
   <path id="elgnygmm4jbc9" class="animable" style="transform-origin:254.856px 296.22px" fill="#455a64" d="m255.81 299.49a1.58 1.58 0 0 0 1.25 -0.59 2.33 2.33 0 0 0 0.44 -1.44 5.27 5.27 0 0 0 -2.4 -4.15 2.4 2.4 0 0 0 -1.21 -0.36c-1 0-1.68 0.82-1.68 2a5.24 5.24 0 0 0 2.39 4.15 2.43 2.43 0 0 0 1.21 0.36z"/>
   <path id="elnaxykd3bftf" class="animable" style="transform-origin:254.855px 296.223px" fill="#f5f5f5" d="m257 297.46c0 1.37-1 1.92-2.15 1.24a4.76 4.76 0 0 1 -2.14 -3.72c0-1.36 1-1.92 2.14-1.23a4.77 4.77 0 0 1 2.15 3.71z"/>
   <path id="elexm4shmu7vk" class="animable" style="transform-origin:238.5px 286.67px" fill="#f5f5f5" d="m249.22 292.48v0.75c0 1.5-1.06 2.11-2.36 1.36l-16.72-9.65a5.23 5.23 0 0 1 -2.36 -4.08v-0.75c0-1.5 1.06-2.11 2.36-1.36l16.72 9.65a5.22 5.22 0 0 1 2.36 4.08z"/>
   <polygon id="el3xc8rlrow3z" style="transform-origin:263.68px 300.775px" points="263.94 305.56 263.94 295.7 263.42 295.95 263.42 305.85" fill="#407bff" class="animable"/>
   <g id="elikm0x5i1pg">
    <polygon opacity=".2" style="transform-origin:263.68px 300.775px" points="263.94 305.56 263.94 295.7 263.42 295.95 263.42 305.85" class="animable"/>
   </g>
   <path id="el321jczbn9vy" class="animable" style="transform-origin:261.63px 274.505px" fill="#407bff" d="m225.19 272.13a0.78 0.78 0 0 0 0.37 0.59l37.85 21.83a0.83 0.83 0 0 0 0.75 0l33.91-17.15v-0.76l-38.58-22.27-33.93 17.16a0.8 0.8 0 0 0 -0.37 0.6z"/>
   <g id="ellr8vwi1s34">
    <path opacity=".1" style="transform-origin:244.485px 283.085px" d="m263.78 293.89v0.75a0.79 0.79 0 0 1 -0.38 -0.09l-37.83-21.82a0.8 0.8 0 0 1 -0.38 -0.6 0.79 0.79 0 0 1 0.38 -0.6c-0.21 0.12-0.21 0.31 0 0.43l37.83 21.84a0.69 0.69 0 0 0 0.38 0.09z" class="animable"/>
   </g>
   <g id="elug2u8kh53rr">
    <path opacity=".5" style="transform-origin:261.741px 274.151px" d="m298.07 276.64-33.91 17.16a0.71 0.71 0 0 1 -0.38 0.09 0.69 0.69 0 0 1 -0.38 -0.09l-37.83-21.8c-0.21-0.12-0.21-0.31 0-0.43l33.93-17.16z" class="animable"/>
   </g>
   <g id="elogzjcjlpadi">
    <path opacity=".2" style="transform-origin:280.925px 285.64px" d="m298.07 276.64v0.76l-33.91 17.15a0.71 0.71 0 0 1 -0.38 0.09v-0.75a0.71 0.71 0 0 0 0.38 -0.09z" class="animable"/>
   </g>
   <polygon id="el0ovinf7m7a7" style="transform-origin:278.26px 260.85px" points="297.56 276.94 258.96 254.68 258.96 244.76 297.56 267.14" fill="#407bff" class="animable"/>
   <g id="elsk8g9yd0wro">
    <polygon opacity=".7" style="transform-origin:278.26px 260.85px" points="297.56 276.94 258.96 254.68 258.96 244.76 297.56 267.14" class="animable"/>
   </g>
   <path id="elb9b8kxdo1gi" class="animable" style="transform-origin:259.09px 271.749px" fill="#ebebeb" d="m225.66 266.79a1.06 1.06 0 0 0 -0.48 0.82v2a1 1 0 0 0 0.48 0.81l37.65 21.72a1 1 0 0 0 0.94 0l28.75-15.54v-3.09l-38.58-22.27z"/>
   <path id="elbud46v6eiu7" class="animable" style="transform-origin:259.231px 270.209px" fill="#fafafa" d="m254.42 251.24l-28.76 15.55a0.29 0.29 0 0 0 0 0.55l37.65 21.72a1 1 0 0 0 0.94 0l28.75-15.55z"/>
   <path id="eloxkzyqd6bo" class="animable" style="transform-origin:289.801px 273.503px" fill="#263238" d="m289.34 273.76a1.1 1.1 0 0 0 0.32 0.11 1 1 0 0 0 0.51 0 0.44 0.44 0 0 0 0.16 -0.06c0.26-0.14 0.23-0.4-0.07-0.57a1.12 1.12 0 0 0 -0.45 -0.13 0.94 0.94 0 0 0 -0.54 0.09c-0.27 0.18-0.21 0.4 0.07 0.56z"/>
   <path id="elxc6gcc4jpn" class="animable" style="transform-origin:244.485px 279.575px" fill="#e6e6e6" d="m263.78 289.16v3.1a1 1 0 0 1 -0.48 -0.11l-37.65-21.71a1.07 1.07 0 0 1 -0.46 -0.82v-2a1.06 1.06 0 0 1 0.35 -0.73c-0.14 0.14-0.1 0.33 0.11 0.46l37.65 21.71a0.85 0.85 0 0 0 0.48 0.1z"/>
   <path id="elvrzmnq8c5x" class="animable" style="transform-origin:292.587px 273.75px" fill="#263238" d="m294.37 269.47a1.89 1.89 0 0 0 -1.95 0.11 6.73 6.73 0 0 0 -2.66 3.94l0.64 0.1a6.12 6.12 0 0 1 2.34 -3.49 1.83 1.83 0 0 1 0.81 -0.25 0.89 0.89 0 0 1 0.49 0.14 2.39 2.39 0 0 1 0.77 2.19c-0.06 2.06-1.23 4.38-2.62 5.18a1.58 1.58 0 0 1 -1 0.24l-0.7 0.4a1.58 1.58 0 0 0 0.82 0.22 2.23 2.23 0 0 0 1.13 -0.34c1.58-0.91 2.87-3.42 2.94-5.71a3 3 0 0 0 -1.01 -2.73z"/>
   <path id="elprddvq8d97g" class="animable" style="transform-origin:261.63px 266.425px" fill="#407bff" d="m225.19 265.83a0.8 0.8 0 0 0 0.37 0.6l37.85 21.83a0.83 0.83 0 0 0 0.75 0l33.91-20.73v-0.75l-38.58-22.28-33.93 20.74a0.78 0.78 0 0 0 -0.37 0.59z"/>
   <g id="el38ic5mtrn49">
    <path opacity=".1" style="transform-origin:244.482px 276.785px" d="m263.78 287.59v0.75a0.92 0.92 0 0 1 -0.38 -0.08l-37.83-21.83a0.66 0.66 0 0 1 0 -1.2 0.23 0.23 0 0 0 0 0.44l37.83 21.84a0.79 0.79 0 0 0 0.38 0.08z" class="animable"/>
   </g>
   <path id="el4ed6fraaezl" class="animable" style="transform-origin:261.739px 266.045px" fill="#407bff" d="m298.07 266.78l-33.91 20.73a0.81 0.81 0 0 1 -0.38 0.08 0.79 0.79 0 0 1 -0.38 -0.08l-37.83-21.84a0.23 0.23 0 0 1 0 -0.44l33.93-20.73z"/>
   <g id="elidmp8dotozl">
    <path opacity=".2" style="transform-origin:280.925px 277.56px" d="m298.07 266.78v0.75l-33.91 20.73a0.81 0.81 0 0 1 -0.38 0.08v-0.75a0.81 0.81 0 0 0 0.38 -0.08z" class="animable"/>
   </g>
   <polygon id="elft7gm172c48" style="transform-origin:297.815px 271.865px" points="298.07 276.64 298.07 266.79 297.56 267.14 297.56 276.94" fill="#407bff" class="animable"/>
   <g id="elkbp781ohhbq">
    <polygon opacity=".2" style="transform-origin:297.815px 271.865px" points="298.07 276.64 298.07 266.79 297.56 267.14 297.56 276.94" class="animable"/>
   </g>
   <path id="elr0ifko66pj" class="animable" style="transform-origin:261.02px 265.052px" fill="#407bff" d="m296.85 266.63a0.61 0.61 0 0 0 0.36 -0.5v-0.77l-37.21-21a2 2 0 0 0 -1.73 0l-33.44 19.31 38.59 22.27z"/>
   <g id="elxadl8z90yea">
    <path opacity=".2" style="transform-origin:261.02px 265.052px" d="m296.85 266.63a0.61 0.61 0 0 0 0.36 -0.5v-0.77l-37.21-21a2 2 0 0 0 -1.73 0l-33.44 19.31 38.59 22.27z" class="animable"/>
   </g>
   <path id="eljx8gbtgzmji" class="animable" style="transform-origin:261.02px 264.292px" fill="#407bff" d="m296.85 265.88c0.48-0.28 0.48-0.73 0-1l-36.85-21.28a2 2 0 0 0 -1.73 0l-33.44 19.31 38.59 22.27z"/>
   <g id="ell8l1enii5sa">
    <path opacity=".5" style="transform-origin:261.02px 264.292px" d="m296.85 265.88c0.48-0.28 0.48-0.73 0-1l-36.85-21.28a2 2 0 0 0 -1.73 0l-33.44 19.31 38.59 22.27z" class="animable"/>
   </g>
   <path id="el9s7mb8kz5a8" class="animable" style="transform-origin:262.58px 262.775px" fill="#ebebeb" d="m232.53 257.87l24.75-14.29a1.91 1.91 0 0 1 1.74 0l34 19.62 3.22-1.88v3.82h-0.06a0.52 0.52 0 0 1 -0.29 0.68l-28.36 16.36-38.61-22.18v-4.17z"/>
   <path id="elaxmbafik3i9" class="animable" style="transform-origin:262.562px 258.63px" fill="#fafafa" d="m295.87 261.69a0.53 0.53 0 0 0 0 -1l-36.87-21.28a2 2 0 0 0 -1.74 0l-28.36 16.37 38.59 22.27z"/>
   <polygon id="elungnq5peofk" style="transform-origin:248.215px 268.995px" points="267.51 278.05 267.51 282.21 228.92 259.95 228.92 255.78" fill="#e6e6e6" class="animable"/>
   <path id="elvvs3fovzjvt" class="animable" style="transform-origin:267.511px 276.163px" fill="#263238" d="m267.05 276.42a1.1 1.1 0 0 0 0.32 0.11 1 1 0 0 0 0.51 0 0.44 0.44 0 0 0 0.16 -0.06c0.26-0.14 0.23-0.4-0.07-0.57a1.12 1.12 0 0 0 -0.45 -0.13 0.94 0.94 0 0 0 -0.54 0.09 0.1 0.1 0 0 0 -0.05 0c-0.2 0.14-0.16 0.4 0.12 0.56z"/>
   <path id="elte1b595kf4" class="animable" style="transform-origin:265.274px 278.45px" fill="#263238" d="m262.68 279.68a2.25 2.25 0 0 0 0.44 1.44 1.55 1.55 0 0 0 1.24 0.59 2.4 2.4 0 0 0 1.2 -0.36l0.22-0.13-0.49-0.28c-1.18 0.66-2.12 0.1-2.12-1.26a4.75 4.75 0 0 1 2.14 -3.71 1.42 1.42 0 0 1 1.61 -0.08 1.14 1.14 0 0 1 0.44 0.64 1 1 0 0 0 0.51 0 1.79 1.79 0 0 0 -0.36 -0.76 1.55 1.55 0 0 0 -1.24 -0.58 2.43 2.43 0 0 0 -1.21 0.36 5.2 5.2 0 0 0 -2.38 4.13z"/>
   <path id="elz91vrlopruq" class="animable" style="transform-origin:280.57px 267.99px" fill="#407bff" d="m263.93 275.74l33.28-16.26v0.52a1 1 0 0 1 -0.43 0.75l-32.85 15.75z"/>
   <g id="el3ph3caip3zf">
    <path opacity=".2" style="transform-origin:280.57px 267.99px" d="m263.93 275.74l33.28-16.26v0.52a1 1 0 0 1 -0.43 0.75l-32.85 15.75z" class="animable"/>
   </g>
   <path id="el5in5pvd5zgc" class="animable" style="transform-origin:261.02px 256.752px" fill="#407bff" d="m296.85 260c0.48-0.27 0.48-0.72 0-1l-36.85-21.3a2 2 0 0 0 -1.73 0l-33.44 16.06 38.59 22.24z"/>
   <polygon id="elae7ywfrrd1c" style="transform-origin:244.125px 269.835px" points="263.42 285.93 224.83 263.66 224.83 253.74 263.42 276.03" fill="#407bff" class="animable"/>
   <g id="el8bbyly2rfz">
    <polygon opacity=".1" style="transform-origin:244.125px 269.835px" points="263.42 285.93 224.83 263.66 224.83 253.74 263.42 276.03" class="animable"/>
   </g>
   <path id="elzg7se5pfj5" class="animable" style="transform-origin:254.856px 276.3px" fill="#455a64" d="m255.81 279.57a1.58 1.58 0 0 0 1.25 -0.59 2.33 2.33 0 0 0 0.44 -1.44 5.27 5.27 0 0 0 -2.4 -4.15 2.4 2.4 0 0 0 -1.21 -0.36c-1 0-1.68 0.82-1.68 2a5.24 5.24 0 0 0 2.39 4.15 2.43 2.43 0 0 0 1.21 0.36z"/>
   <path id="eliha0ic6wp9" class="animable" style="transform-origin:254.855px 276.297px" fill="#f5f5f5" d="m257 277.54c0 1.36-1 1.92-2.15 1.23a4.73 4.73 0 0 1 -2.14 -3.71c0-1.37 1-1.92 2.14-1.24a4.8 4.8 0 0 1 2.15 3.72z"/>
   <path id="elzwf0nvb7a9h" class="animable" style="transform-origin:238.5px 266.742px" fill="#f5f5f5" d="m249.22 272.56v0.75c0 1.5-1.06 2.11-2.36 1.36l-16.72-9.67a5.2 5.2 0 0 1 -2.36 -4.08v-0.75c0-1.5 1.06-2.11 2.36-1.35l16.72 9.65a5.22 5.22 0 0 1 2.36 4.09z"/>
   <polygon id="elicu6d50p9ah" style="transform-origin:263.68px 280.85px" points="263.94 285.63 263.94 275.77 263.42 276.03 263.42 285.93" fill="#407bff" class="animable"/>
   <g id="elh8ftbhzg2co">
    <polygon opacity=".2" style="transform-origin:263.68px 280.85px" points="263.94 285.63 263.94 275.77 263.42 276.03 263.42 285.93" class="animable"/>
   </g>
   <path id="elwjcn7zlxbmd" class="animable" style="transform-origin:261.63px 253.955px" fill="#407bff" d="m225.19 251.61a0.8 0.8 0 0 0 0.37 0.6l37.85 21.79a0.83 0.83 0 0 0 0.75 0l33.91-17.15v-0.76l-38.58-22.27-33.93 17.18a0.8 0.8 0 0 0 -0.37 0.61z"/>
   <g id="elo70wfvj45ce">
    <path opacity=".1" style="transform-origin:244.488px 262.575px" d="m263.78 273.38v0.75a0.92 0.92 0 0 1 -0.38 -0.09l-37.83-21.83a0.66 0.66 0 0 1 0 -1.19c-0.21 0.12-0.21 0.31 0 0.43l37.83 21.84a0.79 0.79 0 0 0 0.38 0.09z" class="animable"/>
   </g>
   <g id="ellq1ub5fkyx">
    <path opacity=".5" style="transform-origin:261.741px 253.62px" d="m298.07 256.13l-33.91 17.16a0.82 0.82 0 0 1 -0.38 0.09 0.79 0.79 0 0 1 -0.38 -0.09l-37.83-21.84c-0.21-0.12-0.21-0.31 0-0.43l33.93-17.16z" class="animable"/>
   </g>
   <g id="el9ybn9cjklpf">
    <path opacity=".2" style="transform-origin:280.925px 265.11px" d="m298.07 256.13v0.76l-33.91 17.11a0.71 0.71 0 0 1 -0.38 0.09v-0.75a0.82 0.82 0 0 0 0.38 -0.09z" class="animable"/>
   </g>
   <polygon id="elbkxbqrzhm9r" style="transform-origin:278.26px 240.34px" points="297.56 256.43 258.96 234.17 258.96 224.25 297.56 246.63" fill="#407bff" class="animable"/>
   <g id="elxgk2xiwbmob">
    <polygon opacity=".7" style="transform-origin:278.26px 240.34px" points="297.56 256.43 258.96 234.17 258.96 224.25 297.56 246.63" class="animable"/>
   </g>
   <path id="elirsvoo23qea" class="animable" style="transform-origin:259.09px 251.239px" fill="#ebebeb" d="m225.66 246.28a1.06 1.06 0 0 0 -0.48 0.82v2a1.06 1.06 0 0 0 0.48 0.82l37.65 21.72a1 1 0 0 0 0.94 0l28.75-15.55v-3.09l-38.58-22.28z"/>
   <path id="elj8ka44t1js" class="animable" style="transform-origin:259.227px 249.694px" fill="#fafafa" d="m254.42 230.72l-28.76 15.56a0.28 0.28 0 0 0 0 0.54l37.65 21.73a1 1 0 0 0 0.94 0l28.75-15.55z"/>
   <path id="elgnappgd5sy" class="animable" style="transform-origin:289.801px 252.993px" fill="#263238" d="m289.34 253.25a1.1 1.1 0 0 0 0.32 0.11 1 1 0 0 0 0.51 0 0.44 0.44 0 0 0 0.16 -0.06c0.26-0.14 0.23-0.4-0.07-0.57a1.12 1.12 0 0 0 -0.45 -0.13 0.94 0.94 0 0 0 -0.54 0.09c-0.27 0.18-0.21 0.4 0.07 0.56z"/>
   <path id="el3aow2s7lvkn" class="animable" style="transform-origin:244.485px 259.065px" fill="#e6e6e6" d="m263.78 268.65v3.1a1 1 0 0 1 -0.48 -0.11l-37.65-21.72a1 1 0 0 1 -0.46 -0.81v-2a1 1 0 0 1 0.35 -0.73c-0.14 0.14-0.1 0.32 0.11 0.45l37.65 21.72a0.85 0.85 0 0 0 0.48 0.1z"/>
   <path id="el2w4ew2fi2u6" class="animable" style="transform-origin:292.588px 253.287px" fill="#263238" d="m294.37 249a1.89 1.89 0 0 0 -1.95 0.12 6.73 6.73 0 0 0 -2.66 3.94l0.64 0.1a6.09 6.09 0 0 1 2.34 -3.49 1.71 1.71 0 0 1 0.81 -0.25 1 1 0 0 1 0.49 0.13 2.41 2.41 0 0 1 0.77 2.2c-0.06 2.06-1.23 4.38-2.62 5.18a1.58 1.58 0 0 1 -1 0.24l-0.7 0.4a1.68 1.68 0 0 0 0.82 0.22 2.23 2.23 0 0 0 1.13 -0.34c1.58-0.91 2.87-3.42 2.94-5.71a3 3 0 0 0 -1.01 -2.74z"/>
   <path id="eliqo2or6pgfo" class="animable" style="transform-origin:261.63px 245.915px" fill="#407bff" d="m225.19 245.32a0.78 0.78 0 0 0 0.37 0.59l37.85 21.83a0.83 0.83 0 0 0 0.75 0l33.91-20.74v-0.76l-38.58-22.24-33.93 20.73a0.8 0.8 0 0 0 -0.37 0.59z"/>
   <g id="elo81vr26lsma">
    <path opacity=".1" style="transform-origin:244.485px 256.275px" d="m263.78 267.08v0.75a0.79 0.79 0 0 1 -0.38 -0.09l-37.83-21.82a0.8 0.8 0 0 1 -0.38 -0.6 0.79 0.79 0 0 1 0.38 -0.6c-0.21 0.12-0.21 0.32 0 0.43l37.83 21.85a0.69 0.69 0 0 0 0.38 0.08z" class="animable"/>
   </g>
   <path id="elti2l1z55mxn" class="animable" style="transform-origin:261.741px 245.546px" fill="#407bff" d="m298.07 246.26-33.91 20.74a0.71 0.71 0 0 1 -0.38 0.09 0.69 0.69 0 0 1 -0.38 -0.09l-37.83-21.84c-0.21-0.11-0.21-0.31 0-0.43l33.93-20.73z"/>
   <g id="elt0iwr3kg86g">
    <path opacity=".2" style="transform-origin:280.925px 257.035px" d="m298.07 246.26v0.74l-33.91 20.72a0.71 0.71 0 0 1 -0.38 0.09v-0.75a0.71 0.71 0 0 0 0.38 -0.09z" class="animable"/>
   </g>
   <polygon id="elooepy85f71" style="transform-origin:297.815px 251.355px" points="298.07 256.13 298.07 246.28 297.56 246.63 297.56 256.43" fill="#407bff" class="animable"/>
   <g id="elxmn3c8m6om">
    <polygon opacity=".2" style="transform-origin:297.815px 251.355px" points="298.07 256.13 298.07 246.28 297.56 246.63 297.56 256.43" class="animable"/>
   </g>
   <path id="el0rd9247tfmk" class="animable" style="transform-origin:261.02px 244.537px" fill="#407bff" d="m296.85 246.11a0.59 0.59 0 0 0 0.36 -0.49v-0.77l-37.21-21a2 2 0 0 0 -1.73 0l-33.44 19.31 38.59 22.26z"/>
   <g id="elm4l1olqc5n">
    <path opacity=".2" style="transform-origin:261.02px 244.537px" d="m296.85 246.11a0.59 0.59 0 0 0 0.36 -0.49v-0.77l-37.21-21a2 2 0 0 0 -1.73 0l-33.44 19.31 38.59 22.26z" class="animable"/>
   </g>
   <path id="eln7tjzoduw5o" class="animable" style="transform-origin:261.02px 243.777px" fill="#407bff" d="m296.85 245.36c0.48-0.27 0.48-0.72 0-1l-36.85-21.27a2 2 0 0 0 -1.73 0l-33.44 19.31 38.59 22.26z"/>
   <g id="eljjfgd1drpar">
    <path opacity=".5" style="transform-origin:261.02px 243.777px" d="m296.85 245.36c0.48-0.27 0.48-0.72 0-1l-36.85-21.27a2 2 0 0 0 -1.73 0l-33.44 19.31 38.59 22.26z" class="animable"/>
   </g>
   <path id="elpif77d3q9dk" class="animable" style="transform-origin:262.58px 242.28px" fill="#ebebeb" d="m232.53 237.35l24.75-14.28a1.91 1.91 0 0 1 1.74 0l34 19.62 3.22-1.88v3.82h-0.06c0.11 0.24 0 0.49-0.29 0.68l-28.38 16.39-38.59-22.26v-4.17z"/>
   <path id="el7itb2cgfgio" class="animable" style="transform-origin:262.562px 238.115px" fill="#fafafa" d="m295.87 241.17a0.53 0.53 0 0 0 0 -1l-36.87-21.27a1.91 1.91 0 0 0 -1.74 0l-28.36 16.37 38.59 22.27z"/>
   <polygon id="elshvgenoyod" style="transform-origin:248.215px 248.485px" points="267.51 257.54 267.51 261.7 228.92 239.44 228.92 235.27" fill="#e6e6e6" class="animable"/>
   <path id="el84hsauxndq2" class="animable" style="transform-origin:267.487px 255.673px" fill="#263238" d="m267.05 255.91a1.1 1.1 0 0 0 0.32 0.11 1 1 0 0 0 0.51 0 0.44 0.44 0 0 0 0.12 -0.02c0.26-0.14 0.23-0.4-0.07-0.57a1.12 1.12 0 0 0 -0.45 -0.13 0.94 0.94 0 0 0 -0.54 0.09 0.1 0.1 0 0 0 -0.05 0c-0.16 0.14-0.12 0.36 0.16 0.52z"/>
   <path id="el4uzyd4l39e7" class="animable" style="transform-origin:265.274px 257.94px" fill="#263238" d="m262.68 259.17a2.25 2.25 0 0 0 0.44 1.44 1.55 1.55 0 0 0 1.24 0.59 2.4 2.4 0 0 0 1.2 -0.36l0.22-0.13-0.49-0.28c-1.18 0.66-2.12 0.1-2.12-1.26a4.75 4.75 0 0 1 2.14 -3.71 1.42 1.42 0 0 1 1.61 -0.08 1.14 1.14 0 0 1 0.44 0.64 1 1 0 0 0 0.51 0 1.79 1.79 0 0 0 -0.36 -0.76 1.55 1.55 0 0 0 -1.24 -0.58 2.43 2.43 0 0 0 -1.21 0.36 5.2 5.2 0 0 0 -2.38 4.13z"/>
   <path id="elq66gxq79uh" class="animable" style="transform-origin:280.57px 247.5px" fill="#407bff" d="m263.93 255.23 33.28-16.23v0.54a1 1 0 0 1 -0.43 0.75l-32.85 15.71z"/>
   <g id="elrb6f0dj0yqr">
    <path opacity=".2" style="transform-origin:280.57px 247.5px" d="m263.93 255.23 33.28-16.23v0.54a1 1 0 0 1 -0.43 0.75l-32.85 15.71z" class="animable"/>
   </g>
   <path id="elq54g0nqk3t" class="animable" style="transform-origin:261.02px 236.245px" fill="#407bff" d="m296.85 239.46c0.48-0.27 0.48-0.72 0-1l-36.85-21.27a1.89 1.89 0 0 0 -1.73 0l-33.44 16.05 38.59 22.27z"/>
   <polygon id="el4uaffmul1gh" style="transform-origin:244.125px 249.32px" points="263.42 265.41 224.83 243.15 224.83 233.23 263.42 255.51" fill="#407bff" class="animable"/>
   <g id="el70zhbuw1m8q">
    <polygon opacity=".1" style="transform-origin:244.125px 249.32px" points="263.42 265.41 224.83 243.15 224.83 233.23 263.42 255.51" class="animable"/>
   </g>
   <path id="elwkdjopip1cn" class="animable" style="transform-origin:254.856px 255.785px" fill="#455a64" d="m255.81 259.05a1.58 1.58 0 0 0 1.25 -0.59 2.31 2.31 0 0 0 0.44 -1.44 5.24 5.24 0 0 0 -2.4 -4.14 2.4 2.4 0 0 0 -1.21 -0.36c-1 0-1.68 0.81-1.68 2a5.2 5.2 0 0 0 2.39 4.14 2.43 2.43 0 0 0 1.21 0.36z"/>
   <path id="elvor4bbtl4u" class="animable" style="transform-origin:254.855px 255.765px" fill="#f5f5f5" d="m257 257c0 1.37-1 1.92-2.15 1.24a4.73 4.73 0 0 1 -2.14 -3.71c0-1.37 1-1.92 2.14-1.24a4.78 4.78 0 0 1 2.15 3.71z"/>
   <path id="elosw0pd1juns" class="animable" style="transform-origin:238.5px 246.235px" fill="#f5f5f5" d="m249.22 252.05v0.75c0 1.5-1.06 2.11-2.36 1.36l-16.72-9.66a5.22 5.22 0 0 1 -2.36 -4.08v-0.75c0-1.5 1.06-2.11 2.36-1.36l16.72 9.69a5.2 5.2 0 0 1 2.36 4.05z"/>
   <polygon id="elaris2oj2sbm" style="transform-origin:263.68px 260.335px" points="263.94 265.12 263.94 255.26 263.42 255.51 263.42 265.41" fill="#407bff" class="animable"/>
   <g id="elelvfekjq608">
    <polygon opacity=".2" style="transform-origin:263.68px 260.335px" points="263.94 265.12 263.94 255.26 263.42 255.51 263.42 265.41" class="animable"/>
   </g>
   <path id="elcmc2sz0wehr" class="animable" style="transform-origin:270.574px 186.046px" fill="#ffa8a7" d="m278.55 215.73c-6-1.74-27.38-7.73-33.88-9.83-4.53-1.47-7-2.51-7.09-6.42-0.12-3.64 5.28-33.45 7.23-40.8 1.72-6.44 8.5-11.31 14.32-11.68 1.95 6.44 2.92 21-2.2 25.52-1.9 7.57-4.12 21.34-4.12 21.34s10.95 5.69 19.64 9.88c4.34 2.09 10.15 4 13.61 4.36 2.75 0.29 7.68 1.58 8.73 2.55a81.82 81.82 0 0 1 7.06 8.19c1 1.61 3.31 4.88 0 5.93-3 0.95-5.48-0.34-7.94-2a32.24 32.24 0 0 1 -3.28 -2.71 12.09 12.09 0 0 1 -7.09 -1.4c-1.87-1.09-4.99-2.93-4.99-2.93z"/>
   <path id="elld46kkplwhp" class="animable" style="transform-origin:358.65px 210.629px" fill="#e0e0e0" d="m387.58 219.42l4-48.15a4.54 4.54 0 0 0 -2 -4 5 5 0 0 0 -4.56 0.08l-52.72 30.44a5.8 5.8 0 0 0 -2.58 4.07l-4 48.14a4.53 4.53 0 0 0 2 4 5.08 5.08 0 0 0 4.57 -0.09l52.71-30.43a5.79 5.79 0 0 0 2.58 -4.06z"/>
   <path id="eljhuued02ztb" class="animable" style="transform-origin:361.083px 208.46px" fill="#fafafa" d="m387.58 219.42l4-48.15a4.54 4.54 0 0 0 -2 -4 5 5 0 0 0 -4.56 0.08l-52.72 30.44a5.26 5.26 0 0 0 -1.72 1.73l8.2 4.73v45.91l46.22-26.68a5.79 5.79 0 0 0 2.58 -4.06z"/>
   <path id="elkutnqaxejf" class="animable" style="transform-origin:360.863px 211.921px" fill="#f0f0f0" d="m330.15 252.57l4-48.14a5.79 5.79 0 0 1 2.57 -4.07l52.72-30.44c1.3-0.75 2.26-0.14 2.14 1.35l-4 48.15a5.79 5.79 0 0 1 -2.57 4.06l-52.72 30.44c-1.29 0.75-2.29 0.15-2.14-1.35z"/>
   <path id="eln2kv0zx6gns" class="animable" style="transform-origin:360.855px 211.924px" fill="#407bff" d="m357.36 213.94a9.2 9.2 0 0 1 3.86 -6.48c1.93-1.12 3.33 0 3.13 2.44a9.2 9.2 0 0 1 -3.86 6.49c-1.93 1.11-3.33 0.02-3.13-2.45z"/>
   <polygon id="el731qta35rwj" style="transform-origin:364.175px 224.04px" points="356.44 229.78 374.11 219.57 371.9 218.3 354.24 228.5" fill="#fafafa" class="animable"/>
   <path id="elq63bimut5se" class="animable" style="transform-origin:365.194px 236.026px" fill="#f5f5f5" d="m377.58 243.07l-15.78 9.11a1.89 1.89 0 0 1 -1 0.23 2 2 0 0 1 -0.86 -0.22l-7-4a2 2 0 0 1 -0.9 -1.61v-0.37c0-0.6 0.41-0.85 0.94-0.55l4.19 2.42 0.94 0.54-0.21-1.06-3.64-19 2.2 1.28 17.67-10.2 4.21 21.88a1.64 1.64 0 0 1 -0.76 1.55z"/>
   <polygon id="el35cm0e3l79a" style="transform-origin:355.55px 246.06px" points="352.31 245.55 357.69 242.44 358.79 249.68" fill="#e0e0e0" class="animable"/>
   <path id="elwq0cl0tphnn" class="animable" style="transform-origin:356.44px 240.435px" fill="#ebebeb" d="m356.44 229.78l-2.2-1.28 3.64 19c0.12 0.58-0.21 0.82-0.73 0.52l-4.15-2.4c-0.53-0.3-0.94-0.05-0.94 0.55v0.37a2 2 0 0 0 0.9 1.61l7 4a2 2 0 0 0 0.86 0.22z"/>
   <path id="elnrmtkmmrv3g" class="animable" style="transform-origin:278.01px 154.775px" fill="#407bff" d="m284.87 155.28c-1 2.05-2.72 2.81-5.72 2.95a11.11 11.11 0 0 1 -8 -3.38l3.85-3.45 4.47 3.83 0.65-3.91z"/>
   <g id="eljvvckh2r21">
    <path opacity=".1" style="transform-origin:278.01px 154.775px" d="m284.87 155.28c-1 2.05-2.72 2.81-5.72 2.95a11.11 11.11 0 0 1 -8 -3.38l3.85-3.45 4.47 3.83 0.65-3.91z" class="animable"/>
   </g>
   <path id="elhwpmgqbu1if" class="animable" style="transform-origin:279.201px 157.834px" fill="#407bff" d="m282.61 154a10 10 0 0 1 0.24 4 6.9 6.9 0 0 1 -1.53 3.22 3.65 3.65 0 0 1 -3.22 0.14 8.71 8.71 0 0 1 -2.63 -6.81l4 0.72z"/>
   <path id="el46lh49fusha" class="animable" style="transform-origin:279.42px 180.45px" fill="#407bff" d="m281.32 161.18s3.12 26.88 3.18 29-3.39 9.59-5.23 9.54-5-7.18-4.93-9.13 3.76-29.3 3.76-29.3z"/>
   <g id="elflod883k66p">
    <path opacity=".1" style="transform-origin:279.64px 161.726px" d="m278.1 161.32a3.21 3.21 0 0 0 3.22 -0.14v0.42a3.64 3.64 0 0 1 -3.36 0.45z" class="animable"/>
   </g>
   <path id="elv11oyg0p5i" class="animable" style="transform-origin:270.915px 149.995px" fill="#e0e0e0" d="m279.51 155.23-13.13-11.23l0.09-3.43s-1.87 0.35-4.15 5.9a26.46 26.46 0 0 0 10 12.95l3.17-4.9z"/>
   <path id="elrhhhuj7f52" class="animable" style="transform-origin:282.59px 149.95px" fill="#e0e0e0" d="m281.13 142.77s1.83 0.5 3.25 3.41c1.15 2.36 1.29 10.95 1.29 10.95l-3.06-3.13-3.1 1.26c0.47-2.83 1.35-8 1.35-8z"/>
   <path id="elssxfvfs3pzc" class="animable" style="transform-origin:250.372px 168.618px" fill="#e0e0e0" d="m259.13 147s-6.37-0.49-10.65 3.51-5 7.43-6.75 17.51-2.91 18.67-2.91 18.67 7.14 5.05 15.9 3.13l3-16.83a45.46 45.46 0 0 0 3.71 -10.13c1.32-6.86-0.19-13.63-2.3-15.86z"/>
  </g>
 </g>
</svg>
