<?xml version="1.0" encoding="UTF-8" standalone="no"?>
<svg xmlns="http://www.w3.org/2000/svg" class="animated" height="600" width="600" version="1.1" xmlns:xlink="http://www.w3.org/1999/xlink" xmlns:svgjs="http://svgjs.com/svgjs" viewBox="0 0 500 500">
 <style>svg:not(.animated) .animable {opacity: 0;}.animated #background-complete--inject-166 {animation: 1s 1 forwards cubic-bezier(.36,-0.01,.5,1.38) slideRight;animation-delay: 0s;}.animated #Shadow--inject-166 {animation: 1s 1 forwards cubic-bezier(.36,-0.01,.5,1.38) slideDown;animation-delay: 0s;}.animated #Bucket--inject-166 {animation: 1s 1 forwards cubic-bezier(.36,-0.01,.5,1.38) slideDown;animation-delay: 0s;}.animated #Character--inject-166 {animation: 1s 1 forwards cubic-bezier(.36,-0.01,.5,1.38) zoomOut,3.5s Infinite  linear wind;animation-delay: 0s,1s;}            @keyframes slideRight {                0% {                    opacity: 0;                    transform: translateX(30px);                }                100% {                    opacity: 1;                    transform: translateX(0);                }            }                    @keyframes slideDown {                0% {                    opacity: 0;                    transform: translateY(-30px);                }                100% {                    opacity: 1;                    transform: translateY(0);                }            }                    @keyframes zoomOut {                0% {                    opacity: 0;                    transform: scale(1.5);                }                100% {                    opacity: 1;                    transform: scale(1);                }            }                    @keyframes wind {                0% {                    transform: rotate( 0deg );                }                25% {                    transform: rotate( 1deg );                }                75% {                    transform: rotate( -1deg );                }            }</style>
<!--171-Fishing-->
 <g id="background-complete--inject-166" style="transform-origin:250px 228.23px" class="animable">
  <rect id="el8winmgjjkpd" style="transform-origin:250px 382.525px" width="500" y="382.4" height=".25" class="animable" fill="#ebebeb"/>
  <rect id="el6zfts6attky" style="transform-origin:65.46px 392.045px" class="animable" height=".25" width="26" y="391.92" x="52.46" fill="#ebebeb"/>
  <rect id="els977fax1c0k" style="transform-origin:173.38px 389.335px" class="animable" height=".25" width="54.1" y="389.21" x="146.33" fill="#ebebeb"/>
  <rect id="el1gjqlnammot" style="transform-origin:92.62px 401.335px" class="animable" height=".25" width="26.32" y="401.21" x="79.46" fill="#ebebeb"/>
  <rect id="el27n1klzqd88" style="transform-origin:440.285px 399.655px" class="animable" height=".25" width="19.23" y="399.53" x="430.67" fill="#ebebeb"/>
  <rect id="elpu05cpa9dr9" style="transform-origin:406.615px 399.655px" class="animable" height=".25" width="30.29" y="399.53" x="391.47" fill="#ebebeb"/>
  <rect id="eld48xh6uwyjs" style="transform-origin:285.51px 395.435px" class="animable" height=".25" width="54.56" y="395.31" x="258.23" fill="#ebebeb"/>
  <path id="elwyv69xto3i" class="animable" style="transform-origin:140.46px 196.4px" fill="#ebebeb" d="m237 337.8h-193.08a5.71 5.71 0 0 1 -5.71 -5.71v-271.43a5.71 5.71 0 0 1 5.71 -5.66h193.08a5.71 5.71 0 0 1 5.71 5.71v271.38a5.71 5.71 0 0 1 -5.71 5.71zm-193.08-282.6a5.47 5.47 0 0 0 -5.46 5.46v271.43a5.47 5.47 0 0 0 5.46 5.46h193.08a5.47 5.47 0 0 0 5.46 -5.46v-271.43a5.47 5.47 0 0 0 -5.46 -5.46z"/>
  <path id="elghbotx7ht06" class="animable" style="transform-origin:356.75px 196.4px" fill="#ebebeb" d="m453.31 337.8h-193.1a5.72 5.72 0 0 1 -5.71 -5.71v-271.43a5.72 5.72 0 0 1 5.71 -5.66h193.1a5.71 5.71 0 0 1 5.69 5.66v271.43a5.71 5.71 0 0 1 -5.69 5.71zm-193.1-282.6a5.47 5.47 0 0 0 -5.46 5.46v271.43a5.47 5.47 0 0 0 5.46 5.46h193.1a5.47 5.47 0 0 0 5.46 -5.46v-271.43a5.47 5.47 0 0 0 -5.46 -5.46z"/>
  <path id="el9zlzmej72r" class="animable" style="transform-origin:327.133px 120.688px" fill="#fafafa" d="m292.23 125.81a10.65 10.65 0 0 1 7 -2.72 3 3 0 0 1 1.86 0.57 30.36 30.36 0 0 1 13.07 -3 9.8 9.8 0 0 1 4.72 1.13c4.52-3 10.29-5.06 14.47-5.06 2.38 0 1.86-1.13 2.38 0 4.65-2 11.42-1.4 15.27-1.4 6.13 0 8.12 3.1 5.61 7.46 1 0.82 5.84 2 5.65 3.34h-70.26z"/>
  <path id="elp34i0ut5jqn" class="animable" style="transform-origin:402.408px 169.305px" fill="#fafafa" d="m367.24 172.84a2.53 2.53 0 0 1 1.91 0.74c4.63-2.58 9.86-4.16 14.07-4a8.28 8.28 0 0 1 4.87 1.48c5-3.88 11.32-6.64 15.74-6.64 2.51 0 4 0.9 4.46 2.38 5.08-2.61 10.23-4.21 14.29-4.21 5 0 7.27 2.46 6.57 6.25a17.32 17.32 0 0 1 6.76 -1.75c2.69 0 3.95 1.24 3.73 3.2h0.7c4.11 0.32 5.68 2.85 3.71 5.73h-84.13a11 11 0 0 1 7.32 -3.18z"/>
  <path id="ela0p0dknmdrm" class="animable" style="transform-origin:110.23px 98.525px" fill="#fafafa" d="m78.92 101.66a2.23 2.23 0 0 1 1.71 0.66c4.13-2.3 8.79-3.71 12.54-3.55a7.36 7.36 0 0 1 4.34 1.32c4.48-3.46 10.08-5.91 14-5.91 2.25 0 3.58 0.79 4 2.12 4.53-2.33 9.11-3.76 12.74-3.76 4.49 0 6.47 2.19 5.85 5.57a15.44 15.44 0 0 1 6 -1.56c2.4 0 3.52 1.11 3.33 2.85h0.62c3.66 0.29 5.07 2.54 3.3 5.11h-75a9.74 9.74 0 0 1 6.57 -2.85z"/>
  <path id="el0beto9hfdq5j" class="animable" style="transform-origin:364.935px 228.335px" fill="#fafafa" d="m308.35 234a4 4 0 0 1 3.08 1.19c7.45-4.15 15.86-6.69 22.63-6.41 3.46 0.13 6.09 1 7.84 2.39 8.1-6.25 18.21-10.68 25.32-10.68 4 0 6.45 1.43 7.17 3.83 8.18-4.21 16.46-6.79 23-6.79 8.1 0 11.68 4 10.56 10.06a27.81 27.81 0 0 1 10.87 -2.82c4.33 0 6.35 2 6 5.15h1.13c6.61 0.52 9.14 4.58 6 9.22h-135.37c2.97-3.03 8.07-5.32 11.77-5.14z"/>
  <path id="eluafqfqb7z4" class="animable" style="transform-origin:301.04px 174.195px" fill="#ebebeb" d="m288 172.24c2 0.17 4 0.45 6 0.76s3.9 0.73 5.78 1.24a38 38 0 0 1 4.15 1.36 47.91 47.91 0 0 1 7.08 -3.47c1.51-0.59 3-1.14 4.61-1.6a44.92 44.92 0 0 1 4.77 -1.19l-4.08 2.15c-1.33 0.72-2.65 1.42-3.94 2.15s-2.53 1.46-3.76 2.19-2.36 1.52-3.46 2.29l-1.3 0.93-1.38-0.61a45.34 45.34 0 0 0 -4.84 -1.71c-1.71-0.53-3.48-1-5.26-1.52-3.54-1-7.17-2-10.68-3.25a61.39 61.39 0 0 1 6.31 0.28z"/>
  <path id="elme067uheu3" class="animable" style="transform-origin:373.11px 85.585px" fill="#ebebeb" d="m360.07 83.6c2.06 0.18 4.05 0.45 6 0.76s3.91 0.74 5.78 1.24a35.37 35.37 0 0 1 4.15 1.4 49.08 49.08 0 0 1 7.09 -3.48c1.51-0.58 3-1.13 4.6-1.6a44.92 44.92 0 0 1 4.77 -1.19l-4.07 2.15c-1.34 0.72-2.66 1.42-3.95 2.15s-2.53 1.46-3.75 2.2-2.36 1.51-3.46 2.29l-1.31 0.92-1.38-0.61a46 46 0 0 0 -4.83 -1.7c-1.71-0.53-3.49-1-5.27-1.53-3.54-1-7.17-2-10.68-3.24a58.69 58.69 0 0 1 6.31 0.24z"/>
  <path id="el462bmcglkv3" class="animable" style="transform-origin:90.22px 134.34px" fill="#ebebeb" d="m82.27 133.17c1.25 0.11 2.46 0.28 3.67 0.47a35.77 35.77 0 0 1 3.51 0.75 21.23 21.23 0 0 1 2.52 0.83 28.68 28.68 0 0 1 4.31 -2.11c0.92-0.36 1.85-0.69 2.8-1a28.56 28.56 0 0 1 2.9 -0.72l-2.48 1.31c-0.81 0.43-1.61 0.86-2.39 1.3s-1.54 0.89-2.29 1.34-1.43 0.92-2.1 1.39l-0.79 0.56-0.84-0.37a28 28 0 0 0 -2.94 -1c-1-0.33-2.12-0.63-3.2-0.93-2.15-0.63-4.36-1.22-6.49-2a34 34 0 0 1 3.81 0.18z"/>
  <path id="elxhhw6zjuljj" class="animable" style="transform-origin:414.175px 137.29px" fill="#ebebeb" d="m406.23 136.12c1.25 0.11 2.46 0.28 3.67 0.47s2.37 0.44 3.51 0.75a23.22 23.22 0 0 1 2.52 0.83 28.22 28.22 0 0 1 4.31 -2.11c0.92-0.36 1.85-0.69 2.8-1a27.91 27.91 0 0 1 2.9 -0.72l-2.48 1.31c-0.81 0.43-1.62 0.86-2.4 1.3s-1.54 0.89-2.28 1.34-1.44 0.92-2.1 1.39l-0.8 0.56-0.84-0.37a28.66 28.66 0 0 0 -2.94 -1c-1-0.33-2.11-0.63-3.19-0.93-2.16-0.63-4.37-1.22-6.5-2a36.82 36.82 0 0 1 3.82 0.18z"/>
  <path id="elp7mp5rfg9vd" class="animable" style="transform-origin:225.67px 127.435px" fill="#ebebeb" d="m220.12 126.59c0.87 0.08 1.72 0.19 2.56 0.33s1.67 0.31 2.47 0.52a15.15 15.15 0 0 1 1.76 0.59 19.21 19.21 0 0 1 3 -1.48c0.64-0.25 1.3-0.49 2-0.69a17.68 17.68 0 0 1 2 -0.5l-1.73 0.91-1.68 0.92c-0.56 0.3-1.08 0.62-1.6 0.93s-1 0.65-1.48 1l-0.55 0.39-0.59-0.26a18.28 18.28 0 0 0 -2.06 -0.72c-0.73-0.23-1.48-0.44-2.24-0.65-1.51-0.44-3.06-0.85-4.55-1.38a26.21 26.21 0 0 1 2.69 0.09z"/>
  <path id="el3w17cgubq1s" class="animable" style="transform-origin:201.705px 88.63px" fill="#ebebeb" d="m196.16 87.79c0.88 0.07 1.73 0.19 2.57 0.32a24.38 24.38 0 0 1 2.46 0.53 16.66 16.66 0 0 1 1.77 0.58 21.13 21.13 0 0 1 3 -1.48c0.64-0.25 1.29-0.48 2-0.68a20.08 20.08 0 0 1 2 -0.51l-1.73 0.92c-0.57 0.31-1.14 0.6-1.68 0.91s-1.08 0.63-1.6 0.94-1 0.64-1.48 1l-0.55 0.39-0.59-0.26a20.46 20.46 0 0 0 -2.06 -0.73l-2.27-0.67c-1.51-0.44-3.06-0.85-4.55-1.38a25.85 25.85 0 0 1 2.71 0.12z"/>
  <path id="elckeyap78nqh" class="animable" style="transform-origin:197.065px 361.565px" fill="#f0f0f0" d="m92.64 381.28c1.54-6.08 8.47-10.78 15.49-10.49a12.13 12.13 0 0 1 6.64 2.18 48.2 48.2 0 0 1 33 -11.7 36.22 36.22 0 0 1 16.23 4.35c7.7-11.42 20.78-19.52 33.25-19.52 7.08 0 12.81 2.62 16.59 7 10-7.67 21.78-12.38 33.24-12.38 18.27 0 30.27 12 31.3 28.79 4.6 3.16 21.25 7.6 23.35 12.9h-209.33c0.07-0.41 0.14-0.75 0.24-1.13z"/>
  <path id="elwnskmh7onb" class="animable" style="transform-origin:315.352px 357.1px" fill="#f0f0f0" d="m208.16 370.23a11.21 11.21 0 0 1 7 2.79c8.55-9.72 20.72-15.68 33.29-15a33 33 0 0 1 17 5.6s0 0 0 0c7.23-14.64 20.24-25 33.09-25a21.2 21.2 0 0 1 17.5 9c9.79-9.85 21.69-15.89 33.51-15.89 14.65 0 25.81 9.28 31 23.57 5-4.15 10.65-6.61 16.29-6.61 7.83 0 13.87 4.7 17 12.06 0.69 0 1.39 0 2.1 0.11 12.55 1.23 21.94 10.74 21.7 21.61h-244.58c1.72-7.24 8.23-12.6 15.1-12.24z"/>
  <polygon id="el5yt0ic6i0fo" style="transform-origin:156.99px 292.005px" points="186.84 332.55 188.36 300.53 185.4 299.19 184.2 238.79 171.94 238.79 172.24 272.28 168.3 272.28 171.83 297.28 169.16 289.9 169.85 289.54 161 258.73 157.77 258.42 137.22 201.61 125.62 205.54 136.66 237.16 132.93 238.42 146.51 265.33 153.81 286.23 152.35 286.3 165.14 318.66 172.02 338.33 173.02 358.61 173.23 382.4 187.05 382.4 186.06 332.66" fill="#f0f0f0" class="animable"/>
  <path id="el1apffi4ylej" class="animable" style="transform-origin:170.176px 230.761px" fill="#e6e6e6" d="m147.33 166.5c-12.49-7-28.35-1.81-30 17.21s-18.65 2.94-27.33 32.29 20.1 39.11 6.22 56.9-7 41.21 20.79 35.22 9.54 6.81 38.67 3.6 15.24-40.17 35.56-32 49.39 13.93 47.09-8.33c-3.48-33.53 8.14-11.53 13-35.54 5.61-27.5-24.75-14.67-32.24-49.58s-29.26-49.15-42.85-24.92c-10.51 18.82-15.62 12.65-28.91 5.15z"/>
 </g>
 <g id="Shadow--inject-166" style="transform-origin:250px 416.24px" class="animable">
  <ellipse id="path--inject-166" style="transform-origin:250px 416.24px" rx="193.89" ry="11.32" class="animable" cy="416.24" cx="250" fill="#f5f5f5"/>
 </g>
 <g id="Bucket--inject-166" style="transform-origin:229.555px 371.698px" class="animable">
  <path id="el3gq5k9tbu1p" class="animable" style="transform-origin:229.565px 382.99px" fill="#407bff" d="m249.79 406.9l6.52-50.44h-53.49l6.52 50.44a1.33 1.33 0 0 0 -1 1.27 1.36 1.36 0 0 0 1.35 1.35h39.73a1.36 1.36 0 0 0 1.35 -1.35 1.34 1.34 0 0 0 -0.98 -1.27z"/>
  <g id="ellp7r17t6dhr">
   <path opacity=".4" style="transform-origin:229.565px 382.99px" fill="#fff" d="m249.79 406.9l6.52-50.44h-53.49l6.52 50.44a1.33 1.33 0 0 0 -1 1.27 1.36 1.36 0 0 0 1.35 1.35h39.73a1.36 1.36 0 0 0 1.35 -1.35 1.34 1.34 0 0 0 -0.98 -1.27z" class="animable"/>
  </g>
  <g id="eldlwroxfj47e">
   <polygon opacity=".2" style="transform-origin:229.565px 360.075px" points="256.31 356.46 202.82 356.46 203.75 363.69 255.8 360.41" class="animable"/>
  </g>
  <path id="el9xlmnucxgov" class="animable" style="transform-origin:229.555px 346.063px" fill="#407bff" d="m255.61 354.67h-3.55a22.57 22.57 0 0 0 -45 0h-3.55a1.79 1.79 0 0 0 0 3.58h52.09a1.79 1.79 0 0 0 0 -3.58zm-26.05-19.78a21.6 21.6 0 0 1 21.44 19.78h-42.91a21.59 21.59 0 0 1 21.47 -19.78z"/>
  <g id="el98vzh1oxt3v">
   <path opacity=".4" style="transform-origin:229.555px 346.063px" fill="#fff" d="m255.61 354.67h-3.55a22.57 22.57 0 0 0 -45 0h-3.55a1.79 1.79 0 0 0 0 3.58h52.09a1.79 1.79 0 0 0 0 -3.58zm-26.05-19.78a21.6 21.6 0 0 1 21.44 19.78h-42.91a21.59 21.59 0 0 1 21.47 -19.78z" class="animable"/>
  </g>
 </g>
 <g id="Character--inject-166" style="transform-origin:232.08px 313.064px" class="animable animator-active">
  <rect id="ellhp2gighruk" style="transform-origin:352.49px 342.62px" class="animable" height="6.36" width="72.32" y="339.44" x="316.33" fill="#407bff"/>
  <g id="elwnzit825mtk">
   <rect opacity=".2" style="transform-origin:379.815px 342.62px" height="6.36" width="17.65" y="339.44" x="370.99" class="animable"/>
  </g>
  <polygon id="el0fpbfznbyt2" style="transform-origin:352.485px 378.835px" points="328.63 411.86 321.85 411.86 376.34 345.81 383.12 345.81" fill="#263238" class="animable"/>
  <polygon id="elxz2a09dtuk" style="transform-origin:352.485px 378.835px" points="376.34 411.86 383.12 411.86 328.63 345.81 321.85 345.81" fill="#263238" class="animable"/>
  <path id="elompwteczok" class="animable" style="transform-origin:367.378px 241.24px" fill="#407bff" d="m348.71 241c5.26-3.92 11.72-8.88 25.31-8.5 17.81 0.5 11.21 17.68 8.94 17.5z"/>
  <g id="elxg98u42mjdb">
   <path opacity=".2" style="transform-origin:367.643px 236.774px" d="m355.43 238.68c0.45-2.07 10.46-5.86 19.17-4.9 9.1 1 3.93 6.25 2.48 6.14z" class="animable"/>
  </g>
  <path id="elp56vj42brsk" class="animable" style="transform-origin:338.462px 270.772px" fill="#407bff" d="m350.51 242.23a7 7 0 0 0 -7.9 6v0.09c-0.23 1.68-0.53 3.56-0.85 5.36s-0.66 3.63-1 5.44q-1.1 5.43-2.45 10.78c-0.91 3.57-1.95 7.07-3.08 10.52-0.28 0.81-0.59 1.61-0.88 2.41-0.62-1.16-1.23-2.38-1.84-3.64l-1.1-2.19-0.54-1.11-0.25-0.56c-0.08-0.08 0-0.2-0.24-0.23a5.79 5.79 0 0 0 -1.68 0.19l-3.19 0.65a16.9 16.9 0 0 0 -3.5 1.16 5.4 5.4 0 0 0 -1.5 0.85c-0.17 0.18 0 0.27-0.05 0.41l0.14 0.73 0.3 1.45c0.21 1 0.49 1.91 0.76 2.86a36.36 36.36 0 0 0 2.34 5.6 28.32 28.32 0 0 0 3.83 5.73 15.81 15.81 0 0 0 3.36 2.91 11.31 11.31 0 0 0 5.72 1.74 6.18 6.18 0 0 0 5.57 -3.42v-0.1c1.82-3.67 3.42-7.39 4.83-11.13s2.64-7.51 3.75-11.3 2.11-7.59 3-11.42q0.66-2.87 1.25-5.76c0.41-2 0.76-3.82 1.11-5.91a1.25 1.25 0 0 0 0 -0.19 7 7 0 0 0 -5.91 -7.92zm-13 44.84a0.72 0.72 0 0 1 -0.25 -0.13c0.2 0.06 0.31 0.15 0.25 0.13z"/>
  <path id="el2akokabrwhf" class="animable" style="transform-origin:327.22px 275.723px" fill="#ffc3bd" d="m331.44 276.19l-2.09-5-6.35 5.57s2.16 4.86 5.56 3.12z"/>
  <polygon id="ela4ox2b54ktn" style="transform-origin:324.31px 272.695px" points="322.97 268.63 319.27 273.22 323.01 276.76 329.35 271.2" fill="#ffc3bd" class="animable"/>
  <path id="elw48z2hxfewp" class="animable" style="transform-origin:363.851px 274.957px" fill="#407bff" d="m367.33 238.71a90.9 90.9 0 0 0 -15.41 0.88 11.19 11.19 0 0 0 -9.26 8.26c-2.67 10.27-6.18 31.78-1 63.39h43.48c0.3-3.88-0.59-16.51 0.07-32.6a228.36 228.36 0 0 1 3.18 -29.77c0.06-0.34 0.12-0.67 0.19-1a6.92 6.92 0 0 0 -6.11 -8.2c-3.99-0.38-9.29-0.79-15.14-0.96z"/>
  <g id="elupf547padx">
   <path opacity=".2" style="transform-origin:378.785px 305.18px" d="m385.1 300.9c-1.22 0.11-6.23 1.34-7.43 1.43l-5.29 7.13c5.87 0 11.75-2.31 12.81-3.78-0.02-1.41-0.06-3.01-0.09-4.78z" class="animable"/>
  </g>
  <path id="el4x9njgt52hp" class="animable" style="transform-origin:368.236px 248.805px" fill="#fff" d="m369.72 242.67h-1.72c-0.72 1.22-2 11.05-0.67 12.27l2.39-0.5s-1.28-7.05 0-11.77z"/>
  <path id="elubioc9c2f" class="animable" style="transform-origin:353.498px 248.315px" fill="#fff" d="m356.12 242.62l-1.75-0.15c-1.08 1.1-4.12 9.15-3.38 11.16l2.29 0.53s0.22-7.16 2.84-11.54z"/>
  <g id="el2mf5eb4gf0x">
   <path opacity=".2" style="transform-origin:383.562px 268.875px" d="m381.42 259c-0.86 4 0 14.18 3.82 19.75v-0.06c0.16-3.86 0.43-7.75 0.77-11.52z" class="animable"/>
  </g>
  <g id="elck7gxd30jeo">
   <path opacity=".2" style="transform-origin:359.695px 294.487px" fill="#fff" d="m349.61 282.41l19.44 0.69a1.48 1.48 0 0 1 1.45 1.51c-0.06 3.41 0.17 12.12 3.61 19a1.5 1.5 0 0 1 -1.09 2.17c-4.6 0.7-16 1.88-26.27-1.46a1.45 1.45 0 0 1 -0.94 -0.9c-1.33-3.77-0.89-14.16 2.45-20.3a1.48 1.48 0 0 1 1.35 -0.71z" class="animable"/>
  </g>
  <polygon id="elr1putjl8v4" style="transform-origin:243.59px 399.605px" points="239.59 409.73 234.56 403.34 247.58 389.48 252.62 395.87" fill="#ffc3bd" class="animable"/>
  <path id="elbe4fg0e2jms" class="animable" style="transform-origin:231.139px 403.802px" fill="#263238" d="m235.85 401.39l5.65 7.18a0.57 0.57 0 0 1 -0.06 0.81l-5.44 4.82a1.44 1.44 0 0 1 -2 -0.22c-1.92-2.53-2.72-3.84-5.2-7-1.53-1.94-5.84-7.13-7.61-10.05s1.18-4.58 2.19-3.5c4.52 4.85 8.36 6.48 11.19 7.17a2.28 2.28 0 0 1 1.28 0.79z"/>
  <g id="elt1iwqyhsr3i">
   <polygon opacity=".2" style="transform-origin:246.745px 396.25px" points="252.62 395.88 247.58 389.48 240.87 396.63 245.9 403.02" class="animable"/>
  </g>
  <path id="elo4amga485mt" class="animable" style="transform-origin:307.074px 356.025px" fill="#263238" d="m341.64 310.83s-44.4 6.89-53.07 21.55c-17 28.85-46.18 57.51-46.18 57.51l9.67 11.33s46.83-36.88 62.19-61c15.6 0.2 52.22 1.71 55.77-7.92a31.43 31.43 0 0 0 -0.27 -21.36z"/>
  <g id="elg9zxzkwxz6b">
   <path opacity=".3" style="transform-origin:307.074px 356.025px" d="m341.64 310.83s-44.4 6.89-53.07 21.55c-17 28.85-46.18 57.51-46.18 57.51l9.67 11.33s46.83-36.88 62.19-61c15.6 0.2 52.22 1.71 55.77-7.92a31.43 31.43 0 0 0 -0.27 -21.36z" class="animable"/>
  </g>
  <polygon id="elwxrtim8zs9" style="transform-origin:248.12px 395.28px" points="250 404.4 239.7 391.32 243.83 386.16 256.54 399.61" fill="#407bff" class="animable"/>
  <path id="eljznmk6nh26n" class="animable" style="transform-origin:233.64px 399.588px" fill="#407bff" d="m233 400a11.17 11.17 0 0 0 1.57 1.53 0.22 0.22 0 0 0 0.21 0 0.18 0.18 0 0 0 0.1 -0.18c0-0.32-0.21-3.1-1.13-3.64a0.7 0.7 0 0 0 -0.69 0 1 1 0 0 0 -0.66 0.82 2.22 2.22 0 0 0 0.6 1.47zm1.47 0.95c-1.13-1-1.76-1.84-1.7-2.37a0.7 0.7 0 0 1 0.45 -0.52 0.34 0.34 0 0 1 0.34 0c0.44 0.29 0.75 1.77 0.86 2.94z"/>
  <path id="elwrcd6u7wrj" class="animable" style="transform-origin:235.666px 399.785px" fill="#407bff" d="m234.49 401.49a0.19 0.19 0 0 0 0.07 0.06 0.21 0.21 0 0 0 0.19 0c0.08-0.06 2-1.36 2.14-2.5a0.92 0.92 0 0 0 -0.29 -0.79 0.72 0.72 0 0 0 -0.87 -0.19c-0.81 0.41-1.4 2.41-1.28 3.34a0.19 0.19 0 0 0 0.04 0.08zm1.9-2.91a0.61 0.61 0 0 1 0.13 0.43c-0.07 0.67-1.08 1.55-1.7 2 0-0.92 0.54-2.35 1.08-2.62 0.1 0 0.24-0.08 0.44 0.12z"/>
  <polygon id="elu1lycylfno" style="transform-origin:292.045px 403.3px" points="292.5 412.85 284.44 411.82 291.58 393.75 299.65 394.79" fill="#ffc3bd" class="animable"/>
  <path id="elsf83o4qbpjp" class="animable" style="transform-origin:280.003px 414.795px" fill="#263238" d="m284.22 409.6l9 1.33a0.58 0.58 0 0 1 0.51 0.64l-0.61 7.21a1.43 1.43 0 0 1 -1.62 1.22c-3.13-0.51-4.61-0.92-8.59-1.5-2.44-0.36-10.77-1.32-14.15-1.82s-2.79-3.82-1.31-3.91c6.61-0.41 12.74-1.42 15.27-2.88a2.32 2.32 0 0 1 1.5 -0.29z"/>
  <g id="el0sxqx32gxomd">
   <polygon opacity=".2" style="transform-origin:293.775px 398.93px" points="299.65 394.79 291.58 393.76 287.9 403.07 295.97 404.1" class="animable"/>
  </g>
  <path id="elxig0x6fb53" class="animable" style="transform-origin:335.941px 354.206px" fill="#263238" d="m361.89 310.83s-60.14-13.11-58.82 10.17c1.44 25.49-17.22 77.75-17.22 77.75l13.55 2.51s28.76-39.48 25.5-65.44c12.29 4.05 53.81 10.65 58.84-3a40 40 0 0 0 1.43 -21.6z"/>
  <polygon id="eltzkeoko3ew" style="transform-origin:294.08px 397.765px" points="301.39 403.1 284.44 400.05 285.5 392.43 303.72 396.25" fill="#407bff" class="animable"/>
  <path id="eln9sexzak0c" class="animable" style="transform-origin:281.519px 409.514px" fill="#407bff" d="m281.16 410.59a10.08 10.08 0 0 0 2.19 0 0.17 0.17 0 0 0 0.16 -0.12 0.19 0.19 0 0 0 -0.05 -0.2c-0.23-0.22-2.28-2.11-3.32-1.87a0.71 0.71 0 0 0 -0.51 0.47 1 1 0 0 0 0.08 1.05 2.24 2.24 0 0 0 1.45 0.67zm1.71-0.32c-1.48 0.07-2.53-0.13-2.85-0.56a0.66 0.66 0 0 1 0 -0.69 0.34 0.34 0 0 1 0.25 -0.23c0.52-0.13 1.73 0.75 2.6 1.48z"/>
  <path id="elq5hvyxkcvs" class="animable" style="transform-origin:282.749px 408.712px" fill="#407bff" d="m283.3 410.61a0.14 0.14 0 0 0 0.09 0 0.21 0.21 0 0 0 0.13 -0.13c0-0.1 0.54-2.39-0.16-3.29a1 1 0 0 0 -0.76 -0.38 0.73 0.73 0 0 0 -0.76 0.47c-0.31 0.85 0.64 2.71 1.37 3.3a0.18 0.18 0 0 0 0.09 0.03zm-0.62-3.42a0.57 0.57 0 0 1 0.38 0.22 4.24 4.24 0 0 1 0.16 2.64c-0.62-0.7-1.23-2.09-1-2.65 0-0.1 0.12-0.22 0.39-0.22z"/>
  <path id="elaau0eu710w7" class="animable" style="transform-origin:266.745px 249.285px" fill="#263238" d="m159.74 188c18.63 8.54 37 17.5 55.34 26.71s36.42 18.75 54.41 28.57 35.7 20.12 53.24 30.73 34.66 21.93 51.41 33.8l-2 2.76c-16.54-12-33.56-23.3-50.88-34.17s-35-21.17-52.84-31.19-35.89-19.68-54.07-29.07-36.51-18.52-55-27.23z"/>
  <path id="elhhk8gak0of8" class="animable" style="transform-origin:196.188px 313.215px" fill="#263238" d="m327.06 282.05c-13.51-8.44-27.1-16.77-40.9-24.73s-27.67-15.81-41.69-23.39-28.1-15-42.29-22.29-28.45-14.35-42.85-21.18h0.17a164.16 164.16 0 0 0 -11.64 12.1c-3.71 4.2-7.19 8.59-10.57 13.07a296.31 296.31 0 0 0 -18.57 28 373.14 373.14 0 0 0 -28.49 60.8 408.46 408.46 0 0 0 -17.65 64.8q-3 16.55-4.77 33.27c-1.12 11.11-1.81 22.3-2.1 33.5a0.25 0.25 0 0 1 -0.26 0.24 0.25 0.25 0 0 1 -0.24 -0.25c0.33-11.21 1-22.41 2.12-33.58s2.79-22.26 4.81-33.3a407.6 407.6 0 0 1 17.71 -64.85 374 374 0 0 1 28.56 -60.85 297.09 297.09 0 0 1 18.62 -28c3.38-4.48 6.87-8.87 10.59-13.08a160.81 160.81 0 0 1 11.68 -12.11 0.12 0.12 0 0 1 0.16 0c14.4 6.85 28.66 14 42.85 21.22s28.27 14.72 42.27 22.33 27.89 15.43 41.67 23.43 27.38 16.31 40.89 24.76a0.07 0.07 0 0 1 0 0.11 0.08 0.08 0 0 1 -0.08 -0.02z"/>
  <path id="elc96udkem8bu" class="animable" style="transform-origin:65.4546px 437.643px" fill="#407bff" d="m64.51 433.9a2.94 2.94 0 0 0 -1.93 2.83v4.81h5.75v-4.91a2.89 2.89 0 0 0 -3.82 -2.73z"/>
  <g id="elhvqd87auxvg">
   <rect opacity=".8" style="transform-origin:65.455px 438.915px" height="1.67" width="5.75" y="438.08" x="62.58" class="animable" fill="#fff"/>
  </g>
  <path id="elpes3oli2u8c" class="animable" style="transform-origin:172.085px 195.795px" fill="#263238" d="m173.3 196l-0.38 0.7a1.16 1.16 0 0 1 -1.58 0.47 1.16 1.16 0 0 1 -0.47 -1.58l0.38-0.7a1.16 1.16 0 0 1 1.58 -0.47 1.16 1.16 0 0 1 0.47 1.58z"/>
  <path id="el2pgnfldfr5n" class="animable" style="transform-origin:225.683px 223.085px" fill="#263238" d="m226.9 223.29l-0.38 0.7a1.17 1.17 0 0 1 -1.59 0.47 1.18 1.18 0 0 1 -0.47 -1.58l0.38-0.7a1.17 1.17 0 0 1 1.59 -0.47 1.16 1.16 0 0 1 0.47 1.58z"/>
  <path id="elet7ukxgw8j" class="animable" style="transform-origin:281.884px 253.605px" fill="#263238" d="m283.1 253.81l-0.38 0.7a1.17 1.17 0 0 1 -1.59 0.47 1.16 1.16 0 0 1 -0.46 -1.58l0.38-0.7a1.16 1.16 0 0 1 1.58 -0.47 1.16 1.16 0 0 1 0.47 1.58z"/>
  <path id="elvyevb769in" class="animable" style="transform-origin:329.815px 281.7px" fill="#263238" d="m338.85 282l-4.54 8.35a0.86 0.86 0 0 1 -1.25 0.3l-12-8.11a0.88 0.88 0 0 1 -0.28 -1.14l4.54-8.35a0.86 0.86 0 0 1 1.25 -0.3l12 8.11a0.88 0.88 0 0 1 0.28 1.14z"/>
  <path id="elmo5etnvaq8c" class="animable" style="transform-origin:327.715px 285.477px" fill="#263238" d="m330.12 291.52a0.79 0.79 0 0 1 -0.45 -0.13l-7.67-5.17a0.79 0.79 0 0 1 -0.26 -1.05l2.89-5.32a0.79 0.79 0 0 1 0.52 -0.39 0.77 0.77 0 0 1 0.64 0.11l7.64 5.17a0.79 0.79 0 0 1 0.26 1.05l-2.89 5.31a0.79 0.79 0 0 1 -0.51 0.4 0.65 0.65 0 0 1 -0.17 0.02zm-4.76-11.59h-0.08a0.32 0.32 0 0 0 -0.19 0.15l-2.89 5.32a0.31 0.31 0 0 0 0.1 0.4l7.7 5.2a0.29 0.29 0 0 0 0.24 0 0.32 0.32 0 0 0 0.19 -0.15l2.89-5.32a0.3 0.3 0 0 0 -0.1 -0.4l-7.69-5.13a0.34 0.34 0 0 0 -0.17 -0.07zm8.13 5.74z"/>
  <path id="elj42tc62u7dj" class="animable" style="transform-origin:333.456px 276.715px" fill="#263238" d="m338.07 279.37l-0.37 0.68a0.38 0.38 0 0 1 -0.56 0.14l-8.14-5.51a0.47 0.47 0 0 1 -0.15 -0.62l0.37-0.68a0.38 0.38 0 0 1 0.56 -0.14l8.11 5.51a0.47 0.47 0 0 1 0.18 0.62z"/>
  <path id="elj3t84bbt7g" class="animable" style="transform-origin:370.549px 304.815px" fill="#ffc3bd" d="m372 300.76l-5.39 0.24 3 7.87s5.31-0.34 4.85-4.13z"/>
  <polygon id="el8dua98gpu7c" style="transform-origin:365.8px 306.075px" points="361.98 306.09 365 311.15 369.62 308.87 366.61 301" fill="#ffc3bd" class="animable"/>
  <path id="elf4cduns00f7" class="animable" style="transform-origin:366.826px 229.295px" fill="#ffc3bd" d="m375.28 218l-4.95 4.1-6.73 5.6a21.87 21.87 0 0 1 0.42 2.72c0.37 3.65-0.68 7.26-6 8.53 0 0-4.21 1.48 6.36 1.63s12.08-1.39 12.08-1.39c-4.08-3.99-2.55-15.25-1.18-21.19z"/>
  <g id="el4sk2irlt0ca">
   <path opacity=".2" style="transform-origin:366.982px 226.24px" d="m363.6 227.68a21.87 21.87 0 0 1 0.42 2.72c2.52-0.51 5.87-3.18 6.22-5.75a11.57 11.57 0 0 0 0.09 -2.57z" class="animable"/>
  </g>
  <path id="elygh2l0ipce" class="animable" style="transform-origin:361.796px 205.389px" fill="#263238" d="m359 213.63c-3.85-0.88-5.7-7-4.32-11.76 1.83-6.26 8-5.84 12.69-2.19 5.83 4.5-2.37 15.32-8.37 13.95z"/>
  <path id="el6nunzq4s0nl" class="animable" style="transform-origin:365.423px 212.111px" fill="#ffc3bd" d="m377.32 209.42c-1.72 7.9-2.33 12.6-7 16.21a10.51 10.51 0 0 1 -17 -7.57c-0.62-7.36 2.3-19.05 10.62-21.29a10.64 10.64 0 0 1 13.38 12.65z"/>
  <path id="eliew78o7b2b" class="animable" style="transform-origin:378.52px 208.52px" fill="#263238" d="m373.24 215.31c-3.46-1.9-2.43-10.94-0.92-12.5s9.3-3.42 12.81 1.38c4.32 5.92-6.53 14.05-11.89 11.12z"/>
  <path id="elskg0l57swil" class="animable" style="transform-origin:369.236px 195.457px" fill="#263238" d="m375.83 203.15c-4.88 1.22-4-3-12.61-2-6.35 0.69-11.65-3.9-11.52-9.28 0.16-6.61 9.11-10.09 13.92-4.47s8.62 10 16.42 9.34c6.06-0.5 6.59 8.76-0.08 9.55-3.96 0.44-6.13-3.14-6.13-3.14z"/>
  <path id="el92mbfq8xps" class="animable" style="transform-origin:357.224px 197.399px" fill="#263238" d="m360.55 201.49a10.87 10.87 0 0 1 -5.94 -1.73 8.93 8.93 0 0 1 -4.08 -6.17 0.25 0.25 0 0 1 0.21 -0.28 0.26 0.26 0 0 1 0.29 0.21 8.33 8.33 0 0 0 3.85 5.82 10.71 10.71 0 0 0 8.73 1.23 0.24 0.24 0 0 1 0.3 0.17 0.25 0.25 0 0 1 -0.17 0.31 11.63 11.63 0 0 1 -3.19 0.44z"/>
  <path id="elyllv1cvaru" class="animable" style="transform-origin:375.679px 216.091px" fill="#ffc3bd" d="m378.71 216.57a7.24 7.24 0 0 1 -3.89 3.31c-2.15 0.72-3.13-1.21-2.45-3.34 0.61-1.9 2.47-4.58 4.59-4.38s2.81 2.49 1.75 4.41z"/>
  <path id="elb1v5yr7f6ys" class="animable" style="transform-origin:362.985px 210.05px" fill="#263238" d="m363.78 210.14c-0.1 0.65-0.53 1.13-1 1.08s-0.69-0.61-0.59-1.26 0.53-1.13 1-1.08 0.69 0.61 0.59 1.26z"/>
  <path id="elq9adyfzw3on" class="animable" style="transform-origin:355.625px 209.175px" fill="#263238" d="m356.42 209.27c-0.1 0.64-0.53 1.13-1 1.08s-0.69-0.62-0.59-1.27 0.53-1.13 1-1.08 0.69 0.62 0.59 1.27z"/>
  <path id="el2bt0a2r29si" class="animable" style="transform-origin:357.12px 212.191px" fill="#ed847e" d="m358.66 209.53a21 21 0 0 1 -3.08 4.62 3.18 3.18 0 0 0 2.62 0.64z"/>
  <path id="el4bcn0ss6d3u" class="animable" style="transform-origin:359.929px 217.31px" fill="#263238" d="m358.22 218a5.66 5.66 0 0 0 4.28 -1.11 0.19 0.19 0 0 0 0 -0.27 0.18 0.18 0 0 0 -0.27 0 5.44 5.44 0 0 1 -4.69 0.88 0.19 0.19 0 0 0 -0.23 0.13 0.19 0.19 0 0 0 0.14 0.24 6.63 6.63 0 0 0 0.77 0.13z"/>
  <path id="elncc09uotagl" class="animable" style="transform-origin:366.448px 205.165px" fill="#263238" d="m368 206.12a0.38 0.38 0 0 0 0.17 -0.08 0.39 0.39 0 0 0 0 -0.55 3.72 3.72 0 0 0 -3.24 -1.27 0.37 0.37 0 0 0 -0.31 0.44 0.39 0.39 0 0 0 0.44 0.32 2.94 2.94 0 0 1 2.53 1 0.38 0.38 0 0 0 0.41 0.14z"/>
  <path id="elebev619l1wb" class="animable" style="transform-origin:355.654px 203.733px" fill="#263238" d="m354 204.55a0.38 0.38 0 0 0 0.35 -0.08 3.19 3.19 0 0 1 2.75 -0.74 0.38 0.38 0 0 0 0.47 -0.27 0.38 0.38 0 0 0 -0.26 -0.47 4 4 0 0 0 -3.45 0.89 0.39 0.39 0 0 0 -0.05 0.54 0.35 0.35 0 0 0 0.19 0.13z"/>
  <path id="el1slldy8amfu" class="animable" style="transform-origin:385.702px 277.477px" fill="#407bff" d="m401.09 276.45a51.36 51.36 0 0 0 -2.85 -9.78 87 87 0 0 0 -4 -8.74c-0.75-1.4-1.51-2.78-2.32-4.14l-1.22-2c-0.44-0.69-0.82-1.31-1.35-2.1l-0.16-0.23a7 7 0 1 0 -11.31 8.26c0.31 0.43 0.74 1.05 1.11 1.6l1.12 1.72c0.75 1.16 1.46 2.34 2.15 3.54a74.91 74.91 0 0 1 3.73 7.22 39 39 0 0 1 2.46 7.13 13.78 13.78 0 0 1 0.35 4.93 28.72 28.72 0 0 1 -3.22 3.82 40.38 40.38 0 0 1 -4.91 4.14c-1.77 1.29-3.61 2.51-5.51 3.68-0.93 0.61-1.9 1.16-2.86 1.74l-1.44 0.83-0.72 0.38c-0.1 0.1-0.26 0-0.3 0.3a2.41 2.41 0 0 0 0 0.58 4.32 4.32 0 0 0 0.1 0.5 5.84 5.84 0 0 0 0.15 0.6l1.61 5.14a4.45 4.45 0 0 0 0.74 1.39c0.13 0.17 0.25 0.35 0.37 0.52a2.53 2.53 0 0 0 0.31 0.42 1.91 1.91 0 0 0 0.44 0.41c0.25 0.14 0.38 0 0.55 0l1-0.32c0.64-0.22 1.28-0.44 1.9-0.68 1.26-0.47 2.47-1 3.69-1.58a49.06 49.06 0 0 0 6.94 -4.08 56.75 56.75 0 0 0 6.39 -5.2 47.08 47.08 0 0 0 5.68 -6.37 5 5 0 0 0 0.69 -1.31l0.08-0.22a19.84 19.84 0 0 0 1.1 -6.39 29.77 29.77 0 0 0 -0.49 -5.71z"/>
 </g>
</svg>
