<?xml version="1.0" encoding="UTF-8" standalone="no"?>
<svg xmlns="http://www.w3.org/2000/svg" class="animated" height="600" width="600" version="1.1" xmlns:xlink="http://www.w3.org/1999/xlink" xmlns:svgjs="http://svgjs.com/svgjs" viewBox="0 0 500 500">
 <style>svg:not(.animated) .animable {opacity: 0;}.animated #background-complete--inject-48 {animation: 1s 1 forwards cubic-bezier(.36,-0.01,.5,1.38) fadeIn;animation-delay: 0s;}.animated #Shadow--inject-48 {animation: 1s 1 forwards cubic-bezier(.36,-0.01,.5,1.38) lightSpeedRight;animation-delay: 0s;}.animated #Programming--inject-48 {animation: 1s 1 forwards cubic-bezier(.36,-0.01,.5,1.38) fadeIn;animation-delay: 0s;}.animated #Character--inject-48 {animation: 1s 1 forwards cubic-bezier(.36,-0.01,.5,1.38) slideDown;animation-delay: 0s;}.animated #JS--inject-48 {animation: 1s 1 forwards cubic-bezier(.36,-0.01,.5,1.38) zoomIn,3.1s Infinite  linear floating;animation-delay: 0s,1s;}            @keyframes fadeIn {                0% {                    opacity: 0;                }                100% {                    opacity: 1;                }            }                    @keyframes lightSpeedRight {              from {                transform: translate3d(50%, 0, 0) skewX(-20deg);                opacity: 0;              }              60% {                transform: skewX(10deg);                opacity: 1;              }              80% {                transform: skewX(-2deg);              }              to {                opacity: 1;                transform: translate3d(0, 0, 0);              }            }                    @keyframes slideDown {                0% {                    opacity: 0;                    transform: translateY(-30px);                }                100% {                    opacity: 1;                    transform: translateY(0);                }            }                    @keyframes zoomIn {                0% {                    opacity: 0;                    transform: scale(0.5);                }                100% {                    opacity: 1;                    transform: scale(1);                }            }                    @keyframes floating {                0% {                    opacity: 1;                    transform: translateY(0px);                }                50% {                    transform: translateY(-10px);                }                100% {                    opacity: 1;                    transform: translateY(0px);                }            }</style>
<!--102-JavaScript frameworks-->
 <g id="background-complete--inject-48" style="transform-origin:250px 226.935px" class="animable">
  <rect id="el9t87sjf8oob" style="transform-origin:250px 382.525px" width="500" y="382.4" height=".25" class="animable" fill="#ebebeb"/>
  <rect id="elhhj979k18m" style="transform-origin:433.34px 398.615px" class="animable" height=".25" width="33.12" y="398.49" x="416.78" fill="#ebebeb"/>
  <rect id="elwepfdryatn" style="transform-origin:297.095px 398.745px" class="animable" height=".25" width="8.69" y="398.62" x="292.75" fill="#ebebeb"/>
  <rect id="elt950gm2luqp" style="transform-origin:385.05px 389.335px" class="animable" height=".25" width="61.44" y="389.21" x="354.33" fill="#ebebeb"/>
  <rect id="elqu9jx9wooh" style="transform-origin:218.795px 395.235px" class="animable" height=".25" width="12.69" y="395.11" x="212.45" fill="#ebebeb"/>
  <rect id="ell9b5gxitbfp" style="transform-origin:185.135px 395.235px" class="animable" height=".25" width="36.83" y="395.11" x="166.72" fill="#ebebeb"/>
  <rect id="el9zs36r5lyjp" style="transform-origin:65.175px 391.015px" class="animable" height=".25" width="25.43" y="390.89" x="52.46" fill="#ebebeb"/>
  <rect id="els9m0ah9zpde" style="transform-origin:121.335px 391.015px" class="animable" height=".25" width="74.89" y="390.89" x="83.89" fill="#ebebeb"/>
  <path id="ell7visqf440m" class="animable" style="transform-origin:140.46px 196.4px" fill="#ebebeb" d="m237 337.8h-193.09a5.71 5.71 0 0 1 -5.7 -5.71v-271.43a5.71 5.71 0 0 1 5.7 -5.66h193.09a5.71 5.71 0 0 1 5.71 5.71v271.38a5.71 5.71 0 0 1 -5.71 5.71zm-193.09-282.6a5.46 5.46 0 0 0 -5.45 5.46v271.43a5.46 5.46 0 0 0 5.45 5.46h193.09a5.47 5.47 0 0 0 5.46 -5.46v-271.43a5.47 5.47 0 0 0 -5.46 -5.46z"/>
  <path id="elgbwy7ft68xu" class="animable" style="transform-origin:356.75px 196.4px" fill="#ebebeb" d="m453.31 337.8h-193.1a5.72 5.72 0 0 1 -5.71 -5.71v-271.43a5.72 5.72 0 0 1 5.71 -5.66h193.1a5.71 5.71 0 0 1 5.69 5.66v271.43a5.71 5.71 0 0 1 -5.69 5.71zm-193.1-282.6a5.47 5.47 0 0 0 -5.46 5.46v271.43a5.47 5.47 0 0 0 5.46 5.46h193.1a5.47 5.47 0 0 0 5.46 -5.46v-271.43a5.47 5.47 0 0 0 -5.46 -5.46z"/>
  <g id="elbitxplk80ph">
   <rect style="transform:rotate(180deg);transform-origin:139.99px 180.33px" height="189.78" width="135.7" y="85.44" x="72.14" class="animable" fill="#e6e6e6"/>
  </g>
  <g id="el2fxjkn5mo06">
   <rect style="transform:rotate(180deg);transform-origin:136.97px 180.33px" height="189.78" width="135.7" y="85.44" x="69.12" class="animable" fill="#f5f5f5"/>
  </g>
  <g id="elz2kuoy80hoo">
   <rect style="transform:rotate(90deg);transform-origin:136.97px 180.325px" height="124.87" width="177.62" y="117.89" x="48.16" class="animable" fill="#fff"/>
  </g>
  <g id="el6axzhfsppem">
   <rect style="transform:rotate(90deg);transform-origin:75.68px 180.33px" height="2.28" width="177.62" y="179.19" x="-13.13" class="animable" fill="#e6e6e6"/>
  </g>
  <g id="elvqjnbyl0xj">
   <rect style="transform:rotate(180deg);transform-origin:136.97px 155.13px" height="8.16" width="131.22" y="151.05" x="71.36" class="animable" fill="#f5f5f5"/>
  </g>
  <path id="el7kyvlm7o0jx" class="animable" style="transform-origin:138.48px 76.205px" fill="#e6e6e6" d="m63.22 75.37h150.52a0.84 0.84 0 0 1 0.83 0.84 0.83 0.83 0 0 1 -0.83 0.83h-150.52a0.83 0.83 0 0 1 -0.83 -0.83 0.84 0.84 0 0 1 0.83 -0.84z"/>
  <path id="el0rf1ua8cpjup" class="animable" style="transform-origin:62.3898px 76.17px" fill="#e6e6e6" d="m58.22 76.21a4.17 4.17 0 1 0 4.17 -4.21 4.17 4.17 0 0 0 -4.17 4.21z"/>
  <path id="elpq8mm668t6o" class="animable" style="transform-origin:206.715px 78.545px" fill="#e6e6e6" d="m206.71 80.88a1.14 1.14 0 0 0 1.13 -1.13v-2.42a1.13 1.13 0 0 0 -1.13 -1.12 1.12 1.12 0 0 0 -1.12 1.12v2.42a1.13 1.13 0 0 0 1.12 1.13z"/>
  <path id="elzk857dvbty" class="animable" style="transform-origin:75.795px 78.545px" fill="#e6e6e6" d="m75.79 80.88a1.14 1.14 0 0 0 1.13 -1.13v-2.42a1.13 1.13 0 0 0 -1.13 -1.12 1.12 1.12 0 0 0 -1.12 1.12v2.42a1.13 1.13 0 0 0 1.12 1.13z"/>
  <g id="el1op96i42vvv">
   <path opacity=".5" style="transform:rotate(180deg);transform-origin:133.035px 153.27px" fill="#e0e0e0" d="m84.84 76.21h96.39a21.35 21.35 0 0 1 21.35 21.35v132.77h-139.09v-132.77a21.35 21.35 0 0 1 21.35 -21.35z" class="animable"/>
  </g>
  <path id="el1r53oxgdfuk" class="animable" style="transform-origin:193.32px 76.17px" fill="#e6e6e6" d="m189.15 76.21a4.17 4.17 0 1 0 4.16 -4.21 4.16 4.16 0 0 0 -4.16 4.21z"/>
  <rect id="elycclebw18bk" style="transform-origin:353.33px 144.955px" class="animable" height="116.39" width="116.08" y="86.76" x="295.29" fill="#f0f0f0"/>
  <g id="elv2mkk2isukd">
   <rect style="transform:rotate(180deg);transform-origin:412.37px 144.955px" height="116.39" width="2" y="86.76" x="411.37" class="animable" fill="#e0e0e0"/>
  </g>
  <rect id="eljqhcuz7z71" style="transform-origin:353.33px 144.955px" class="animable" rx="47.79" height="101.69" width="95.58" y="94.11" x="305.54" fill="#fff"/>
  <rect id="elmhbz6pyw0a" style="transform-origin:353.335px 144.96px" class="animable" rx="2.2" height="43.44" width="40.83" y="123.24" x="332.92" fill="#f5f5f5"/>
  <g id="el5kw53ak4u3l">
   <rect style="transform:rotate(180deg);transform-origin:198.26px 348.815px" height="59.39" width="26.78" y="319.12" x="184.87" class="animable" fill="#f0f0f0"/>
  </g>
  <g id="elrnl5djbwp8">
   <rect style="transform:rotate(180deg);transform-origin:140.465px 380.39px" height="3.76" width="132.09" y="378.51" x="74.42" class="animable" fill="#f0f0f0"/>
  </g>
  <rect id="elglzztvijgja" style="transform-origin:127.075px 348.815px" class="animable" height="59.39" width="115.59" y="319.12" x="69.28" fill="#f5f5f5"/>
  <path id="el98mbsg6h4o9" class="animable" style="transform-origin:127.075px 336.17px" fill="#f0f0f0" d="m174.34 346.41h-94.53a0.5 0.5 0 0 1 -0.5 -0.5v-19.48a0.5 0.5 0 0 1 0.5 -0.5h94.53a0.51 0.51 0 0 1 0.5 0.5v19.48a0.5 0.5 0 0 1 -0.5 0.5zm-94-1h93.53v-18.48h-93.56z"/>
  <path id="el8mmp2dfkj5p" class="animable" style="transform-origin:127.075px 361.46px" fill="#f0f0f0" d="m174.34 371.7h-94.53a0.5 0.5 0 0 1 -0.5 -0.5v-19.48a0.5 0.5 0 0 1 0.5 -0.5h94.53a0.51 0.51 0 0 1 0.5 0.5v19.48a0.5 0.5 0 0 1 -0.5 0.5zm-94-1h93.53v-18.48h-93.56z"/>
  <g id="elh8q3c3lb2a">
   <rect style="transform:rotate(180deg);transform-origin:127.075px 336.175px" rx="1.18" height="2.67" width="26.45" y="334.84" x="113.85" class="animable" fill="#fff"/>
  </g>
  <g id="elhg976opz5bd">
   <rect style="transform:rotate(180deg);transform-origin:127.075px 361.465px" rx="1.18" height="2.67" width="26.45" y="360.13" x="113.85" class="animable" fill="#fff"/>
  </g>
  <path id="el9ulikqdqf5g" class="animable" style="transform-origin:108.485px 314.13px" fill="#f5f5f5" d="m121.15 309.13s-0.32 10-12.66 10-12.67-10-12.67-10z"/>
  <path id="el7tg6m2xljbm" class="animable" style="transform-origin:137.335px 314.13px" fill="#f5f5f5" d="m150 309.13s-0.33 10-12.67 10-12.66-10-12.66-10z"/>
  <path id="elq0krksn0ct" class="animable" style="transform-origin:166.235px 314.13px" fill="#f5f5f5" d="m178.9 309.13s-0.32 10-12.67 10-12.66-10-12.66-10z"/>
  <g id="elh6ozjxue03k">
   <rect style="transform:rotate(180deg);transform-origin:433.785px 310.035px" height="132.51" width="20.21" y="243.78" x="423.68" class="animable" fill="#f0f0f0"/>
  </g>
  <g id="el3dfl2gdnq0c">
   <rect style="transform:rotate(180deg);transform-origin:355.225px 379.335px" height="6.09" width="166.67" y="376.29" x="271.89" class="animable" fill="#f0f0f0"/>
  </g>
  <rect id="el4nyysdvdvpl" style="transform-origin:345.12px 310.035px" class="animable" height="132.51" width="157.12" y="243.78" x="266.56" fill="#f5f5f5"/>
  <rect id="elgeiatbwcoz" style="transform-origin:345.12px 307.43px" class="animable" height="31.52" width="135.28" y="291.67" x="277.48" fill="#f0f0f0"/>
  <rect id="elljtveui7w4" style="transform-origin:345.12px 348.7px" class="animable" height="31.52" width="135.28" y="332.94" x="277.48" fill="#f0f0f0"/>
  <g id="elqbuorqtubv">
   <rect style="transform:rotate(180deg);transform-origin:345.115px 291.67px" rx="2.05" height="4.32" width="82.13" y="289.51" x="304.05" class="animable" fill="#f5f5f5"/>
  </g>
  <g id="elbzp2bd9zsjo">
   <rect style="transform:rotate(180deg);transform-origin:345.115px 332.93px" rx="2.05" height="4.32" width="82.13" y="330.77" x="304.05" class="animable" fill="#f5f5f5"/>
  </g>
  <rect id="el5f834el7f1u" style="transform-origin:345.12px 266.17px" class="animable" height="31.52" width="135.28" y="250.41" x="277.48" fill="#f0f0f0"/>
  <g id="elvo2w2wqjyyc">
   <rect style="transform:rotate(180deg);transform-origin:345.115px 250.41px" rx="2.05" height="4.32" width="82.13" y="248.25" x="304.05" class="animable" fill="#f5f5f5"/>
  </g>
 </g>
 <g id="Shadow--inject-48" style="transform-origin:250px 416.24px" class="animable">
  <ellipse id="path--inject-48" style="transform-origin:250px 416.24px" rx="193.89" ry="11.32" class="animable" cy="416.24" cx="250" fill="#f5f5f5"/>
 </g>
 <g id="Programming--inject-48" style="transform-origin:292.755px 181.805px" class="animable">
  <g id="el4sv67poa7w">
   <rect style="transform:rotate(-83.53deg);transform-origin:290.27px 104.14px" height="5.28" width="1" y="101.5" x="289.77" class="animable" fill="#407bff"/>
  </g>
  <g id="elewt0soufvzo">
   <rect style="transform:rotate(-83.53deg);transform-origin:273.4px 102.225px" height="17.13" width="1" y="93.66" x="272.9" class="animable" fill="#407bff"/>
  </g>
  <g id="elgcqnfbksky4">
   <rect style="transform:rotate(6.47deg);transform-origin:292.755px 181.805px" rx="4.9" height="147.79" width="190.87" y="107.91" x="197.32" class="animable" fill="#407bff"/>
  </g>
  <g id="el0sz46c7ofvf">
   <path opacity=".7" style="transform-origin:292.767px 181.821px" fill="#263238" d="m192.78 238l15.11-133.29a3.59 3.59 0 0 1 4 -3.16l177.7 20.14a3.6 3.6 0 0 1 3.16 4l-15.15 133.24a3.58 3.58 0 0 1 -4 3.16l-177.7-20.15a3.58 3.58 0 0 1 -3.12 -3.94z" class="animable"/>
  </g>
  <g id="elaxh9t2relzn">
   <rect style="transform:rotate(6.47deg);transform-origin:325.35px 152.125px" height="3.71" width="75.36" y="150.27" x="287.67" class="animable" fill="#407bff"/>
  </g>
  <g id="elp0k0kaa2jd">
   <rect style="transform:rotate(6.47deg);transform-origin:334.6px 159.125px" height="3.71" width="79.84" y="157.27" x="294.68" class="animable" fill="#407bff"/>
  </g>
  <g id="elb9t1baki3ff">
   <rect style="transform:rotate(6.47deg);transform-origin:327.135px 164.235px" height="3.71" width="66.15" y="162.38" x="294.06" class="animable" fill="#407bff"/>
  </g>
  <g id="elq8egbvehwf">
   <rect style="transform:rotate(6.47deg);transform-origin:323.035px 169.725px" height="3.71" width="59.25" y="167.87" x="293.41" class="animable" fill="#407bff"/>
  </g>
  <g id="elignq17mdv9">
   <rect style="transform:rotate(6.47deg);transform-origin:309.15px 177.845px" height="3.71" width="48.96" y="175.99" x="284.67" class="animable" fill="#407bff"/>
  </g>
  <g id="eldikdwbqj0gl">
   <rect style="transform:rotate(6.47deg);transform-origin:316.635px 196.565px" height="3.71" width="52.57" y="194.71" x="290.35" class="animable" fill="#407bff"/>
  </g>
  <g id="elfemrmt40i97">
   <rect style="transform:rotate(6.47deg);transform-origin:312.82px 190.175px" height="3.71" width="43.56" y="188.32" x="291.04" class="animable" fill="#407bff"/>
  </g>
  <g id="elr3fsl4j8vr">
   <rect style="transform:rotate(6.47deg);transform-origin:315.685px 184.545px" height="3.71" width="47.97" y="182.69" x="291.7" class="animable" fill="#407bff"/>
  </g>
  <g id="eld68p00a85i">
   <rect style="transform:rotate(6.47deg);transform-origin:304.07px 222.695px" height="3.71" width="48.96" y="220.84" x="279.59" class="animable" fill="#407bff"/>
  </g>
  <g id="elnmw30h94f4">
   <rect style="transform:rotate(6.47deg);transform-origin:311.545px 241.415px" height="3.71" width="52.57" y="239.56" x="285.26" class="animable" fill="#407bff"/>
  </g>
  <g id="elnd02zd19q">
   <rect style="transform:rotate(6.34019deg);transform-origin:307.74px 235.025px" height="3.71" width="43.56" y="233.17" x="285.96" class="animable" fill="#407bff"/>
  </g>
  <g id="eli8a00fpvyu">
   <rect style="transform:rotate(6.47deg);transform-origin:310.595px 229.395px" height="3.71" width="47.97" y="227.54" x="286.61" class="animable" fill="#407bff"/>
  </g>
  <g id="el870guol789t">
   <rect style="transform:rotate(6.47deg);transform-origin:235.78px 114.185px" height="3.71" width="39.76" y="112.33" x="215.9" class="animable" fill="#fff"/>
  </g>
  <g id="elm1wsb8zzq5l">
   <rect style="transform:rotate(6.47deg);transform-origin:241.47px 132.695px" height="3.71" width="42.68" y="130.84" x="220.13" class="animable" fill="#fff"/>
  </g>
  <g id="el6hco7cat9kn">
   <rect style="transform:rotate(6.47deg);transform-origin:238.505px 126.405px" height="3.71" width="35.37" y="124.55" x="220.82" class="animable" fill="#fff"/>
  </g>
  <g id="el5p6r8yzw1ke">
   <rect style="transform:rotate(6.47deg);transform-origin:240.945px 120.725px" height="3.71" width="38.95" y="118.87" x="221.47" class="animable" fill="#fff"/>
  </g>
  <g id="elnp20vetdyv">
   <rect style="transform:rotate(6.47deg);transform-origin:314.635px 214.205px" height="3.71" width="52.57" y="212.35" x="288.35" class="animable" fill="#407bff"/>
  </g>
  <g id="el7ub1zzu2rh">
   <rect style="transform:rotate(6.47deg);transform-origin:310.82px 207.815px" height="3.71" width="43.56" y="205.96" x="289.04" class="animable" fill="#407bff"/>
  </g>
  <g id="elxfr3uks4iyn">
   <rect style="transform:rotate(6.47deg);transform-origin:313.685px 202.185px" height="3.71" width="47.97" y="200.33" x="289.7" class="animable" fill="#407bff"/>
  </g>
 </g>
 <g id="Character--inject-48" style="transform-origin:214.485px 281.277px" class="animable">
  <polygon id="elxypx49mct1c" style="transform-origin:226.695px 404.505px" points="230.46 412.25 223.85 412.1 222.93 396.76 229.54 396.91" fill="#ffc3bd" class="animable"/>
  <path id="elhpvj2t23mhe" class="animable" style="transform-origin:221.45px 415.17px" fill="#263238" d="m223.61 411.33l7.22 0.16a0.58 0.58 0 0 1 0.55 0.46l1.18 5.91a1 1 0 0 1 -1 1.15c-2.6-0.1-6.36-0.33-9.63-0.41-3.83-0.08-4.52 0.59-9 0.12-2.7-0.28-3.17-3.09-2-3.22 5.26-0.59 6.52-1 11-3.69a3.06 3.06 0 0 1 1.68 -0.48z"/>
  <g id="el4nsklscz6na">
   <polygon opacity=".2" style="transform-origin:226.475px 400.795px" points="222.93 396.77 223.41 404.67 230.02 404.82 229.55 396.92" class="animable"/>
  </g>
  <path id="eljjxfinmmq8" class="animable" style="transform-origin:197.24px 208.853px" fill="#ffc3bd" d="m220 194.49c-2.2 4.31-4.52 8.48-7 12.64s-5 8.22-8 12.3c-0.38 0.51-0.8 1-1.2 1.55-0.17 0.23-0.46 0.56-0.72 0.85s-0.53 0.61-0.82 0.88a16.86 16.86 0 0 1 -3.79 2.86 20.81 20.81 0 0 1 -8.44 2.58 29.4 29.4 0 0 1 -8.05 -0.39 34.26 34.26 0 0 1 -3.79 -0.9 30.23 30.23 0 0 1 -3.71 -1.33l1.6-5.05c1 0.11 2.14 0.23 3.22 0.29s2.2 0.06 3.28 0a26.88 26.88 0 0 0 6.15 -0.78 13.54 13.54 0 0 0 4.88 -2.21 9.14 9.14 0 0 0 1.7 -1.64 4.1 4.1 0 0 0 0.35 -0.47c0.12-0.16 0.22-0.29 0.38-0.54l0.88-1.35c2.35-3.76 4.62-7.89 6.87-12l6.75-12.34z"/>
  <path id="elzt1mp7e7l0q" class="animable" style="transform-origin:214.576px 197.203px" fill="#fff" d="m225.93 188c1 6-12.71 24.09-12.71 24.09l-10.05-12.09a97.55 97.55 0 0 1 9.8 -13.89c5.21-5.84 11.85-4.73 12.96 1.89z"/>
  <g id="ely8jhy2libg">
   <path opacity=".2" style="transform-origin:216.69px 202.572px" d="m222.72 193.13c-4 1-10.74 5.25-14 13.51l4.53 5.46s8.13-10.69 11.41-18.37a1.76 1.76 0 0 0 -1.94 -0.6z" class="animable"/>
  </g>
  <path id="elq3hfet86vgn" class="animable" style="transform-origin:232.588px 211.562px" fill="#fff" d="m218.84 182.33s-10.54 13.44-9.84 52.23l35.61 6.44c1.23-5.42 1.67-27.47 11.6-52.27a94.52 94.52 0 0 0 -11.65 -3.66 131.4 131.4 0 0 0 -15.14 -2.74 68 68 0 0 0 -10.58 0z"/>
  <g id="eld6amb41x2up">
   <path opacity=".2" style="transform-origin:248.551px 209.87px" d="m248.67 203.87c-1.52 2.15-2.44 8-0.39 12 0.48-2.48 1.05-5.08 1.73-7.79z" class="animable"/>
  </g>
  <path id="elgc1925a6bi9" class="animable" style="transform-origin:236.138px 188.705px" fill="#263238" d="m229.42 182.33s-4.27 8.39 0.71 12.75c8.71-0.74 14.43-10 14.43-10z"/>
  <polygon id="eligekwva0sar" style="transform-origin:167.455px 221.17px" points="164.28 217.13 164.39 222.1 168.69 225.21 170.63 218.39" fill="#ffc3bd" class="animable"/>
  <path id="elflpy7bt6v0c" class="animable" style="transform-origin:173.49px 222.148px" fill="#ffc3bd" d="m178.29 221l-7.66-2.61-1.94 6.82s4.46 1.94 8-0.66z"/>
  <path id="el1b0zpx6ilmf" class="animable" style="transform-origin:237.48px 179.045px" fill="#ffc3bd" d="m246.14 167.75c-1.84 4.7-4.4 13.45-1.58 17.32 0 0-3.88 4.53-12.59 5.27-5-4.36-2.55-8-2.55-8 5.67-0.32 6.25-4.37 6-8.33z"/>
  <g id="ell7oqw496uni">
   <path opacity=".2" style="transform-origin:238.689px 173.812px" d="m241.77 170.3l-6.35 3.7a17 17 0 0 1 0 2.77c2.82 1.45 5.12-0.07 6.35-3.12a7.53 7.53 0 0 0 0 -3.35z" class="animable"/>
  </g>
  <path id="ele14y65j9wb9" class="animable" style="transform-origin:237.914px 157.272px" fill="#263238" d="m232.08 162.35c0.41 3 9.66-1.89 11.22-2.92s-0.23-4.6-3.74-7.48-8.43 3.39-7.48 10.4z"/>
  <path id="elmc858sy4tik" class="animable" style="transform-origin:241.045px 163.45px" fill="#ffc3bd" d="m251.06 163.73c-2.83 6.09-4.17 9.8-8.58 11.76-6.62 3-13.21-2.91-12.26-9.72 0.85-6.13 5.33-15.06 12.41-15.16a9.16 9.16 0 0 1 8.43 13.12z"/>
  <path id="el6ongxk9kuh" class="animable" style="transform-origin:252.184px 162.674px" fill="#263238" d="m248.56 169.43c-3 0.45-0.88-9.8-0.33-11.58s5.31-3.41 8 0.25c3.23 4.47-0.67 10.29-7.67 11.33z"/>
  <path id="el5f8mb01vrht" class="animable" style="transform-origin:247.38px 151.472px" fill="#263238" d="m247.66 148.58c-2.69-0.54-1.92-3.39 0.06-3.24-1.59-1.93-11-3.69-11.51 2.55s11.62 9.7 14.9 10.14l4.89 1.37c6.59-3.29-0.72-9.29-8.34-10.82z"/>
  <path id="el1ic68anixgn" class="animable" style="transform-origin:248.57px 169.442px" fill="#ffc3bd" d="m251.39 171.1a6.38 6.38 0 0 1 -4.57 1.71c-2.23-0.1-2.66-2.26-1.46-4 1.07-1.58 3.54-3.43 5.51-2.48a2.87 2.87 0 0 1 0.52 4.77z"/>
  <polygon id="elghq3j8oodie" style="transform-origin:205.505px 393px" points="210.34 399.85 203.85 401.13 200.67 386.15 207.16 384.87" fill="#ffc3bd" class="animable"/>
  <path id="el1wm1dqs3rfq" class="animable" style="transform-origin:202.205px 404.335px" fill="#263238" d="m203.44 400.43l7.09-1.4a0.58 0.58 0 0 1 0.64 0.34l2.41 5.51a1 1 0 0 1 -0.7 1.34c-2.57 0.46-6.29 1-9.5 1.67-3.76 0.74-5 0.82-9.37 1.69-2.67 0.52-3.94-2-2.87-2.49 4.86-2.11 7-2.28 10.84-5.85a3 3 0 0 1 1.46 -0.81z"/>
  <g id="elc4319ufay5w">
   <polygon opacity=".2" style="transform-origin:204.735px 389.37px" points="200.67 386.15 202.31 393.87 208.8 392.59 207.16 384.87" class="animable"/>
  </g>
  <path id="elm5bqtvd62z8" class="animable" style="transform-origin:200.839px 401.402px" fill="#407bff" d="m201 402a2 2 0 0 1 -1.34 0.12 0.93 0.93 0 0 1 -0.6 -0.68 0.5 0.5 0 0 1 0.1 -0.52c0.56-0.61 3.08-0.11 3.36-0.05a0.17 0.17 0 0 1 0.13 0.13 0.16 0.16 0 0 1 -0.07 0.16 8 8 0 0 1 -1.58 0.84zm-1.42-1a0.5 0.5 0 0 0 -0.18 0.11s-0.07 0.09 0 0.21a0.63 0.63 0 0 0 0.4 0.47 3.25 3.25 0 0 0 2.3 -0.71 6.49 6.49 0 0 0 -2.56 -0.08z"/>
  <path id="eld4o4tzh7jg" class="animable" style="transform-origin:201.173px 399.906px" fill="#407bff" d="m202.51 401.13h-0.08c-0.79-0.12-2.57-1-2.7-1.8a0.52 0.52 0 0 1 0.34 -0.57 0.84 0.84 0 0 1 0.71 0c1 0.33 1.78 2.11 1.82 2.18a0.15 0.15 0 0 1 0 0.16 0.13 0.13 0 0 1 -0.09 0.03zm-2.23-2.13h-0.07c-0.18 0.1-0.17 0.2-0.16 0.24 0.07 0.44 1.27 1.2 2.1 1.46-0.27-0.51-0.86-1.51-1.47-1.72a0.61 0.61 0 0 0 -0.4 0.02z"/>
  <path id="ell6itvaophj" class="animable" style="transform-origin:210.075px 313.495px" fill="#407bff" d="m209 234.56s-15.81 60.18-20.38 80.31c-4.74 20.95 11.23 77.56 11.23 77.56l10.55-2.08s-4.43-57.72-2.92-66.88c6.05-22.18 24.93-84.67 24.93-84.67z"/>
  <g id="elxf9go8vli">
   <path opacity=".2" style="transform-origin:218.655px 283.65px" d="m211 284.44a133.93 133.93 0 0 0 0.4 25.16c4.52-15.73 10.8-36.83 15.32-51.9-4.56 1.97-14.03 8.22-15.72 26.74z" class="animable"/>
  </g>
  <path id="el6xqsil6lnte" class="animable" style="transform-origin:228.993px 319.895px" fill="#407bff" d="m221.3 236.79s-8.28 61.32-7.57 81.14c0.77 21.69 5.9 84.77 5.9 84.77l12.37 0.3s-0.19-59.64 1-80.78c1.24-22.94 11.3-81.25 11.3-81.25z"/>
  <polygon id="elyujsn7u8ted" style="transform-origin:225.82px 400.53px" points="232.83 403.25 219.48 402.96 218.43 397.9 233.21 397.81" fill="#263238" class="animable"/>
  <polygon id="eljyuutz9w6c" style="transform-origin:204.87px 389.135px" points="212.48 390.21 199.38 392.79 197.26 388.07 211.78 385.48" fill="#263238" class="animable"/>
  <path id="ell0v0b9mpgo8" class="animable" style="transform-origin:240.678px 161.68px" fill="#263238" d="m241.3 161.91c-0.2 0.51-0.63 0.82-1 0.69s-0.44-0.65-0.24-1.16 0.63-0.81 1-0.68 0.43 0.65 0.24 1.15z"/>
  <path id="elewx7bnwslp8" class="animable" style="transform-origin:234.93px 159.43px" fill="#263238" d="m235.55 159.67c-0.2 0.5-0.63 0.81-1 0.68s-0.44-0.65-0.24-1.15 0.63-0.82 1-0.69 0.44 0.65 0.24 1.16z"/>
  <path id="el2jt2dskp8qq" class="animable" style="transform-origin:234.825px 162.885px" fill="#ed847e" d="m236.89 160.48a19.51 19.51 0 0 1 -4.13 3.4 3.18 3.18 0 0 0 2.25 1.41z"/>
  <path id="el1lx7k1zf2q9" class="animable" style="transform-origin:237.012px 167.746px" fill="#263238" d="m234.92 167.75a0.16 0.16 0 1 1 0.13 -0.29 4.35 4.35 0 0 0 3.91 -0.13 0.16 0.16 0 1 1 0.17 0.27 4.55 4.55 0 0 1 -4.21 0.15z"/>
  <path id="el7xc540etc2y" class="animable" style="transform-origin:243.869px 159.396px" fill="#263238" d="m244.48 160.76a0.35 0.35 0 0 1 -0.16 -0.23 2.57 2.57 0 0 0 -1.32 -1.93 0.32 0.32 0 0 1 -0.16 -0.42 0.33 0.33 0 0 1 0.43 -0.16 3.18 3.18 0 0 1 1.65 2.41 0.32 0.32 0 0 1 -0.27 0.37 0.34 0.34 0 0 1 -0.17 -0.04z"/>
  <path id="elophiid0ep19" class="animable" style="transform-origin:235.572px 155.738px" fill="#263238" d="m234.1 156.24a0.24 0.24 0 0 1 -0.1 -0.1 0.31 0.31 0 0 1 0.1 -0.44 3.2 3.2 0 0 1 2.91 -0.29 0.33 0.33 0 0 1 0.16 0.43 0.32 0.32 0 0 1 -0.43 0.15 2.54 2.54 0 0 0 -2.3 0.25 0.32 0.32 0 0 1 -0.34 0z"/>
  <path id="elqdibyj7sgtj" class="animable" style="transform-origin:244.537px 212.094px" fill="#407bff" d="m251.15 186.57l-1.66-0.45a0.33 0.33 0 0 0 -0.4 0.2c-9.22 24.28-11.41 51.43-11.41 51.43l1.85 0.33a243.61 243.61 0 0 1 11.84 -51.08 0.32 0.32 0 0 0 -0.22 -0.43z"/>
  <g id="elzcjlwglr6sa">
   <g opacity=".99" style="transform-origin:238.57px 239.024px" class="animable">
    <path id="el4lxt16ngq25" class="animable" style="transform-origin:238.57px 239.024px" fill="#263238" d="m239.8 238.13a0.6 0.6 0 0 0 -0.49 -0.7l-1.28-0.24a0.61 0.61 0 0 0 -0.36 1.15l-0.28 1.59a0.79 0.79 0 1 0 1.56 0.28l0.29-1.59a0.61 0.61 0 0 0 0.56 -0.49z"/>
   </g>
  </g>
  <path id="el0pjaat13ro8m" class="animable" style="transform-origin:217.596px 207.595px" fill="#407bff" d="m222.89 181.81h-1.72a0.33 0.33 0 0 0 -0.31 0.23c-8.08 24.5-8.88 51-8.88 51l1.85 0.34c2.18-27.86 8.36-48 9.38-51.2a0.33 0.33 0 0 0 -0.32 -0.37z"/>
  <g id="el11apquuyxiem">
   <path opacity=".99" style="transform-origin:212.861px 234.387px" fill="#263238" d="m214.1 233.49a0.64 0.64 0 0 0 -0.52 -0.71l-1.28-0.24a0.58 0.58 0 0 0 -0.68 0.5 0.65 0.65 0 0 0 0.38 0.66l-0.21 1.6a0.84 0.84 0 0 0 0.68 0.93 0.75 0.75 0 0 0 0.89 -0.65l0.21-1.6a0.56 0.56 0 0 0 0.53 -0.49z" class="animable"/>
  </g>
  <path id="eld21ryi0ovfq" class="animable" style="transform-origin:220.883px 411.521px" fill="#407bff" d="m220.86 412.28a2 2 0 0 1 -1.33 -0.16 1 1 0 0 1 -0.45 -0.8 0.5 0.5 0 0 1 0.21 -0.48c0.69-0.48 3 0.55 3.3 0.67a0.18 0.18 0 0 1 0.1 0.15 0.18 0.18 0 0 1 -0.11 0.14 7.49 7.49 0 0 1 -1.72 0.48zm-1.18-1.28a0.4 0.4 0 0 0 -0.2 0.07 0.19 0.19 0 0 0 -0.08 0.2 0.68 0.68 0 0 0 0.3 0.55 3.21 3.21 0 0 0 2.39 -0.21 6.53 6.53 0 0 0 -2.41 -0.61z"/>
  <path id="el60gnfat66kv" class="animable" style="transform-origin:221.452px 410.382px" fill="#407bff" d="m222.55 411.81h-0.08c-0.75-0.29-2.29-1.57-2.25-2.34a0.54 0.54 0 0 1 0.45 -0.49 0.9 0.9 0 0 1 0.71 0.12c0.86 0.53 1.29 2.44 1.3 2.52a0.16 0.16 0 0 1 -0.05 0.16 0.11 0.11 0 0 1 -0.08 0.03zm-1.72-2.53h-0.08c-0.2 0.06-0.2 0.16-0.21 0.2 0 0.45 1 1.44 1.75 1.87a3.94 3.94 0 0 0 -1.08 -2 0.54 0.54 0 0 0 -0.38 -0.07z"/>
  <polygon id="elp14a6j4uoda" style="transform-origin:230.35px 256.94px" points="225.46 257.8 231.05 261.75 235.24 258.66 229.88 252.13" fill="#ffc3bd" class="animable"/>
  <path id="elc7pqpdgqnch" class="animable" style="transform-origin:235.161px 254.8px" fill="#ffc3bd" d="m237.79 250.94l-7.91 1.19 5.36 6.53s5.49-1.34 5.19-5.74z"/>
  <path id="eltekgzczgccd" class="animable" style="transform-origin:248.48px 227.675px" fill="#ffc3bd" d="m261.09 199.08c0.3 5.22 0.46 10.42 0.49 15.66v7.87c0 1.31-0.05 2.63-0.12 4l-0.1 2-0.05 1c0 0.47-0.1 1-0.17 1.5a16.86 16.86 0 0 1 -1.7 5 31.48 31.48 0 0 1 -2.44 3.89 50.64 50.64 0 0 1 -5.61 6.32 80.73 80.73 0 0 1 -12.77 9.95l-3.24-4.2c1.74-1.76 3.56-3.59 5.24-5.47s3.35-3.75 4.88-5.67a50.74 50.74 0 0 0 4.09 -5.84 22.27 22.27 0 0 0 1.41 -2.87 8.75 8.75 0 0 0 0.63 -2.42 3.37 3.37 0 0 1 0 -0.45v-0.92l-0.05-1.88-0.16-3.81-0.42-7.74c-0.26-5.14-0.47-10.32-0.61-15.47z"/>
  <path id="elheqox7tbsnn" class="animable" style="transform-origin:256.33px 202.766px" fill="#fff" d="m256.21 188.73c8.55 3.18 8.48 26.05 8.48 26.05l-14.47 2.66s-3.5-10.39-1.77-18.57c1.65-7.81 1.26-12.57 7.76-10.14z"/>
 </g>
 <g id="JS--inject-48" style="transform-origin:139.023px 177.325px" class="animable animator-active">
  <path id="el0b2yxjb8d12" class="animable" style="transform-origin:139.04px 177.325px" fill="#407bff" d="m145.84 218.15l-38.76-14.52-6.81-40.82 32-26.31 38.73 14.5 6.81 40.83zm-37.13-15.86 36.78 13.77 30.31-25-6.46-38.73-36.78-13.77-30.31 25z"/>
  <g id="el76rqidrp8x5">
   <circle style="transform:rotate(-54.47deg);transform-origin:132.39px 137.55px" cy="137.55" cx="132.39" r="6.21" class="animable" fill="#407bff"/>
  </g>
  <g id="ela28gzd3zs7s">
   <circle style="transform:rotate(-54.47deg);transform-origin:145.66px 217.1px" cy="217.1" cx="145.66" r="6.21" class="animable" fill="#407bff"/>
  </g>
  <path id="eld6gxz9aq68p" class="animable" style="transform-origin:170.159px 151.687px" fill="#407bff" d="m166.55 156.74a6.21 6.21 0 1 1 8.66 -1.44 6.21 6.21 0 0 1 -8.66 1.44z"/>
  <path id="elowcyroghy3m" class="animable" style="transform-origin:101.245px 163.111px" fill="#407bff" d="m97.64 168.17a6.21 6.21 0 1 1 8.66 -1.45 6.22 6.22 0 0 1 -8.66 1.45z"/>
  <path id="elqx2z78t1gfl" class="animable" style="transform-origin:176.801px 191.538px" fill="#407bff" d="m173.19 196.59a6.21 6.21 0 1 1 8.67 -1.45 6.21 6.21 0 0 1 -8.67 1.45z"/>
  <path id="elqxw6gkqnbph" class="animable" style="transform-origin:107.899px 202.949px" fill="#407bff" d="m104.29 208a6.21 6.21 0 1 1 8.66 -1.44 6.2 6.2 0 0 1 -8.66 1.44z"/>
  <path id="elyqakzd6a969" class="animable" style="transform-origin:126.37px 179.529px" fill="#263238" d="m125.94 167l7.83-1.31 2.29 13.73a21.92 21.92 0 0 1 0.33 6.71 7.66 7.66 0 0 1 -2.45 4.34 10.45 10.45 0 0 1 -5.68 2.56 13.94 13.94 0 0 1 -6.1 0 7.62 7.62 0 0 1 -3.76 -2.49 11.53 11.53 0 0 1 -2.17 -4.69l7.29-2.27a8.85 8.85 0 0 0 0.71 2.44 2.77 2.77 0 0 0 1.15 1.15 2.17 2.17 0 0 0 1.33 0.12 2.13 2.13 0 0 0 1.76 -1.3 6.61 6.61 0 0 0 0.07 -3.38z"/>
  <path id="elz5wb4zerlc" class="animable" style="transform-origin:151.551px 175.785px" fill="#263238" d="m140.43 181.94l7.36-1.7a5.7 5.7 0 0 0 1.44 2.59 4.19 4.19 0 0 0 3.71 1 3.83 3.83 0 0 0 2.44 -1.21 2.4 2.4 0 0 0 0.61 -2 2.36 2.36 0 0 0 -1.16 -1.62 10.19 10.19 0 0 0 -4.25 -0.79q-5.33-0.3-7.84-1.85a6.28 6.28 0 0 1 -3 -4.51 6.78 6.78 0 0 1 0.52 -3.87 7.58 7.58 0 0 1 2.94 -3.29 16 16 0 0 1 6 -2q4.85-0.81 7.69 0.57a7.85 7.85 0 0 1 4 5.22l-7.29 1.66a3.49 3.49 0 0 0 -4.37 -2.62 3.19 3.19 0 0 0 -2 0.92 1.8 1.8 0 0 0 -0.46 1.52 1.44 1.44 0 0 0 0.75 1 6.58 6.58 0 0 0 2.78 0.49 33.38 33.38 0 0 1 7.71 1 7.88 7.88 0 0 1 3.69 2.26 7.23 7.23 0 0 1 1.63 3.58 8.08 8.08 0 0 1 -0.6 4.7 8.39 8.39 0 0 1 -3.24 3.74 15.33 15.33 0 0 1 -5.91 2.08q-6.45 1.08-9.34-1a10 10 0 0 1 -3.81 -5.87z"/>
 </g>
</svg>
