<?xml version="1.0" encoding="UTF-8" standalone="no"?>
<svg xmlns="http://www.w3.org/2000/svg" class="animated" height="600" width="600" version="1.1" xmlns:xlink="http://www.w3.org/1999/xlink" xmlns:svgjs="http://svgjs.com/svgjs" viewBox="0 0 500 500">
 <style>svg:not(.animated) .animable {opacity: 0;}.animated #Floor--inject-1 {animation: 1s 1 forwards cubic-bezier(.36,-0.01,.5,1.38) fadeIn;animation-delay: 0s;}.animated #Shadows--inject-1 {animation: 1s 1 forwards cubic-bezier(.36,-0.01,.5,1.38) fadeIn;animation-delay: 0s;}.animated #Photos--inject-1 {animation: 1s 1 forwards cubic-bezier(.36,-0.01,.5,1.38) slideDown;animation-delay: 0s;}.animated #Window--inject-1 {animation: 1s 1 forwards cubic-bezier(.36,-0.01,.5,1.38) zoomOut;animation-delay: 0s;}.animated #Icons--inject-1 {animation: 1s 1 forwards cubic-bezier(.36,-0.01,.5,1.38) slideLeft,3.9s Infinite  linear floating;animation-delay: 0s,1s;}.animated #Character--inject-1 {animation: 1s 1 forwards cubic-bezier(.36,-0.01,.5,1.38) slideLeft;animation-delay: 0s;}            @keyframes fadeIn {                0% {                    opacity: 0;                }                100% {                    opacity: 1;                }            }                    @keyframes slideDown {                0% {                    opacity: 0;                    transform: translateY(-30px);                }                100% {                    opacity: 1;                    transform: translateY(0);                }            }                    @keyframes zoomOut {                0% {                    opacity: 0;                    transform: scale(1.5);                }                100% {                    opacity: 1;                    transform: scale(1);                }            }                    @keyframes slideLeft {                0% {                    opacity: 0;                    transform: translateX(-30px);                }                100% {                    opacity: 1;                    transform: translateX(0);                }            }                    @keyframes floating {                0% {                    opacity: 1;                    transform: translateY(0px);                }                50% {                    transform: translateY(-10px);                }                100% {                    opacity: 1;                    transform: translateY(0px);                }            }</style>
<!--Statics Assets-->
 <g id="Floor--inject-1" style="transform-origin:250.05px 346.02px" class="animable">
  <ellipse id="floor--inject-1" style="transform-origin:250.05px 346.02px" rx="227.88" ry="125.27" class="animable" cy="346.02" cx="250.05" fill="#f5f5f5"/>
 </g>
 <g id="Shadows--inject-1" style="transform-origin:202.599px 347.831px" fill="#e0e0e0" class="animable">
  <ellipse id="Shadow--inject-1" style="transform-origin:292.78px 410.1px" rx="72.58" ry="41.9" class="animable" cy="410.1" cx="292.78"/>
  <path id="shadow--inject-1" class="animable" style="transform-origin:268.065px 303.358px" d="m234.13 359.32 130.87-75.58c1.55-0.89 1.55-2.34 0-3.23l-57.4-33.14a6.14 6.14 0 0 0 -5.6 0l-130.87 75.63c-1.55 0.89-1.55 2.34 0 3.23l57.41 33.14a6.12 6.12 0 0 0 5.59 -0.05z"/>
  <path id="shadow--inject-1" class="animable" style="transform-origin:152.904px 309.405px" d="m123.85 374.48l-83.66-48.3c-1.54-0.89-1.54-2.34 0-3.23l136.16-78.62a6.21 6.21 0 0 1 5.6 0l83.66 48.3c1.55 0.9 1.55 2.34 0 3.24l-136.16 78.61a6.21 6.21 0 0 1 -5.6 0z"/>
 </g>
 <g id="Photos--inject-1" style="transform-origin:148.04px 203.165px" class="animable">
  <g id="photos--inject-1" style="transform-origin:148.04px 261.72px" class="animable">
   <path id="elyxyvjvo63pm" class="animable" style="transform-origin:148.04px 301.565px" fill="#37474f" d="m167.92 236.93-125.69 72.58a3.6 3.6 0 0 0 -1.64 2.83v3.31a3.6 3.6 0 0 0 1.64 2.83l82.64 47.72a3.62 3.62 0 0 0 3.27 0l125.72-72.59a3.62 3.62 0 0 0 1.63 -2.83v-3.31a3.6 3.6 0 0 0 -1.64 -2.83l-82.66-47.71a3.62 3.62 0 0 0 -3.27 0z"/>
   <path id="el0by2dy73m6x8" class="animable" style="transform-origin:148.033px 298.02px" fill="#455a64" d="m124.87 359.11-82.64-47.71a1 1 0 0 1 0 -1.89l125.69-72.58a3.62 3.62 0 0 1 3.27 0l82.66 47.71a1 1 0 0 1 0 1.88l-125.71 72.59a3.62 3.62 0 0 1 -3.27 0z"/>
   <path id="elgouwsvc3mit" class="animable" style="transform-origin:83.6px 338.152px" fill="#263238" d="m126.61 359.5v7.08a3.39 3.39 0 0 1 -1.73 -0.37l-82.66-47.73a3.61 3.61 0 0 1 -1.63 -2.82v-3.31a3.67 3.67 0 0 1 1.33 -2.63c-0.58 0.53-0.48 1.22 0.3 1.67l82.66 47.72a3.4 3.4 0 0 0 1.73 0.39z"/>
   <polygon id="el0el5m5lqjae8" style="transform-origin:238.5px 246.445px" points="234.11 291.5 230.67 293.5 242.88 201.38 246.33 199.39" fill="#e0e0e0" class="animable"/>
   <polygon id="elw1w0e2wyub" style="transform-origin:199.94px 226.185px" points="230.67 293.5 157 250.98 169.21 158.87 242.88 201.38" fill="#fafafa" class="animable"/>
   <polygon id="elwunrj8txvkh" style="transform-origin:207.77px 179.115px" points="246.33 199.39 242.88 201.38 169.21 158.87 172.71 156.85" fill="#ebebeb" class="animable"/>
   <polygon id="el1ndbzg82h15" style="transform-origin:199.73px 225.34px" points="239.03 202.77 171.51 163.8 160.43 247.97 227.95 286.88" fill="#407bff" class="animable"/>
   <g id="elfqhpd8s6yo7">
    <polygon opacity=".8" style="transform-origin:199.73px 225.34px" points="239.03 202.77 171.51 163.8 160.43 247.97 227.95 286.88" class="animable" fill="#fff"/>
   </g>
   <path id="eljaccq5pwe0m" class="animable" style="transform-origin:198.255px 240.828px" fill="#407bff" d="m167.67 215.55 17.33-16.42c1.81-1.71 3.95-1.18 4.75 1.18l12.42 36.58a0.82 0.82 0 0 0 1.6 -0.32l-0.54-7.71 11.05-7.78a3.79 3.79 0 0 1 5.73 1.45l13 26-4.62 35-64.89-37.4z"/>
   <path id="elqtye8ebj53" class="animable" style="transform-origin:225.601px 208.878px" fill="#407bff" d="m226.42 203c-3-1.76-5.9-0.56-6.37 2.67s1.66 7.29 4.74 9.07 5.93 0.59 6.37-2.66-1.69-7.34-4.74-9.08z"/>
   <polygon id="elv9w9xqwy4p9" style="transform-origin:167.505px 205.855px" points="174.57 165.58 163.5 246.13 160.44 247.91 171.51 163.8" fill="#e0e0e0" class="animable"/>
   <polygon id="el9ijscb3hysf" style="transform-origin:194.415px 266.505px" points="163.5 246.13 228.39 283.57 227.95 286.88 160.44 247.91" fill="#ebebeb" class="animable"/>
   <polygon id="el0gq9s0k3iib5" style="transform-origin:220.175px 257.06px" points="215.79 302.12 212.34 304.11 224.56 212 228.01 210.01" fill="#e0e0e0" class="animable"/>
   <polygon id="ellycbfrxbm2m" style="transform-origin:181.615px 236.795px" points="212.34 304.11 138.67 261.59 150.88 169.48 224.56 212" fill="#fafafa" class="animable"/>
   <polygon id="el1rn0c6t8mps" style="transform-origin:189.445px 189.73px" points="228.01 210.01 224.56 212 150.88 169.48 154.38 167.46" fill="#ebebeb" class="animable"/>
   <polygon id="elg0z9rhxlbn6" style="transform-origin:181.41px 235.96px" points="220.71 213.38 153.19 174.42 142.11 258.58 209.63 297.5" fill="#407bff" class="animable"/>
   <g id="el7v09xseup7n">
    <polygon opacity=".8" style="transform-origin:181.41px 235.96px" points="220.71 213.38 153.19 174.42 142.11 258.58 209.63 297.5" class="animable" fill="#fff"/>
   </g>
   <path id="elm48h91vqz9i" class="animable" style="transform-origin:179.925px 251.445px" fill="#407bff" d="m149.34 226.16l17.32-16.41c1.81-1.72 4-1.19 4.75 1.17l12.42 36.58a0.82 0.82 0 0 0 1.6 -0.32l-0.54-7.71 11.05-7.77a3.8 3.8 0 0 1 5.74 1.45l13 26-4.61 35-64.9-37.43z"/>
   <path id="eltl1gw7ktr4e" class="animable" style="transform-origin:207.275px 219.475px" fill="#407bff" d="m208.09 213.6c-3.05-1.76-5.89-0.57-6.36 2.66s1.65 7.3 4.74 9.08 5.93 0.58 6.36-2.67-1.69-7.31-4.74-9.07z"/>
   <polygon id="elkz46y1fepw" style="transform-origin:149.185px 216.47px" points="156.25 176.19 145.17 256.75 142.12 258.52 153.19 174.42" fill="#e0e0e0" class="animable"/>
   <polygon id="el85pe0jpfw44" style="transform-origin:176.09px 277.125px" points="145.17 256.75 210.06 294.18 209.63 297.5 142.12 258.52" fill="#ebebeb" class="animable"/>
   <polygon id="elbhaz4zbq4vn" style="transform-origin:201.85px 267.675px" points="197.46 312.74 194.02 314.73 206.23 222.62 209.68 220.62" fill="#e0e0e0" class="animable"/>
   <polygon id="elvh5hav3tmmm" style="transform-origin:163.285px 247.415px" points="194.02 314.73 120.34 272.21 132.56 180.1 206.23 222.62" fill="#fafafa" class="animable"/>
   <polygon id="el8n6alcgn8ew" style="transform-origin:171.12px 200.35px" points="209.68 220.62 206.23 222.62 132.56 180.1 136.06 178.08" fill="#ebebeb" class="animable"/>
   <polygon id="elmub1u8qqmh" style="transform-origin:163.08px 246.57px" points="202.38 224 134.86 185.03 123.78 269.2 191.3 308.11" fill="#407bff" class="animable"/>
   <g id="el7rfz7a9fffo">
    <polygon opacity=".8" style="transform-origin:163.08px 246.57px" points="202.38 224 134.86 185.03 123.78 269.2 191.3 308.11" class="animable" fill="#fff"/>
   </g>
   <path id="el7tat40t3qgo" class="animable" style="transform-origin:161.58px 262.058px" fill="#407bff" d="m131 236.78l17.32-16.42c1.81-1.71 3.94-1.18 4.75 1.18l12.41 36.58a0.82 0.82 0 0 0 1.6 -0.32l-0.54-7.71 11.06-7.78a3.79 3.79 0 0 1 5.73 1.45l13 26-4.61 35-64.89-37.43z"/>
   <path id="eln7iz1jr5ex" class="animable" style="transform-origin:188.945px 230.088px" fill="#407bff" d="m189.77 224.21c-3.05-1.76-5.9-0.56-6.37 2.67s1.66 7.29 4.74 9.07 5.93 0.59 6.36-2.66-1.69-7.29-4.73-9.08z"/>
   <polygon id="elhpehanmrvq" style="transform-origin:130.855px 227.085px" points="137.92 186.81 126.85 267.37 123.79 269.14 134.86 185.03" fill="#e0e0e0" class="animable"/>
   <polygon id="elfrfkyq97ptf" style="transform-origin:157.765px 287.74px" points="126.85 267.37 191.74 304.8 191.3 308.11 123.79 269.14" fill="#ebebeb" class="animable"/>
   <polygon id="el8yyuj3tlol" style="transform-origin:183.52px 278.29px" points="179.13 323.35 175.69 325.34 187.91 233.23 191.35 231.24" fill="#e0e0e0" class="animable"/>
   <polygon id="eld5w3wyj9j7m" style="transform-origin:144.965px 258.025px" points="175.69 325.34 102.02 282.82 114.23 190.71 187.91 233.23" fill="#fafafa" class="animable"/>
   <polygon id="elu508bpmlpvs" style="transform-origin:152.79px 210.96px" points="191.35 231.24 187.91 233.23 114.23 190.71 117.73 188.69" fill="#ebebeb" class="animable"/>
   <polygon id="elzesx3qig0nk" style="transform-origin:144.76px 257.19px" points="184.06 234.61 116.54 195.65 105.46 279.81 172.98 318.73" fill="#407bff" class="animable"/>
   <g id="elbhc4olmbodj">
    <polygon opacity=".8" style="transform-origin:144.76px 257.19px" points="184.06 234.61 116.54 195.65 105.46 279.81 172.98 318.73" class="animable" fill="#fff"/>
   </g>
   <path id="elcsr5oplcrje" class="animable" style="transform-origin:143.245px 272.697px" fill="#407bff" d="m112.69 247.39 17.31-16.39c1.81-1.71 4-1.19 4.75 1.17l12.42 36.58a0.82 0.82 0 0 0 1.6 -0.32l-0.54-7.71 11-7.77a3.8 3.8 0 0 1 5.74 1.45l13 26-4.62 35-64.83-37.4z"/>
   <path id="elgjeq84nxcgu" class="animable" style="transform-origin:170.626px 240.706px" fill="#407bff" d="m171.44 234.83c-3.05-1.76-5.9-0.57-6.36 2.66s1.65 7.3 4.73 9.08 5.94 0.59 6.37-2.67-1.69-7.31-4.74-9.07z"/>
   <polygon id="elm38ecsjpasf" style="transform-origin:112.525px 237.7px" points="119.59 197.43 108.52 277.98 105.46 279.75 116.54 195.65" fill="#e0e0e0" class="animable"/>
   <polygon id="elz310tgsthuo" style="transform-origin:139.435px 298.355px" points="108.52 277.98 173.41 315.41 172.98 318.73 105.46 279.75" fill="#ebebeb" class="animable"/>
   <polygon id="elbe832txehzk" style="transform-origin:165.2px 288.905px" points="160.81 333.96 157.37 335.96 169.58 243.84 173.03 241.85" fill="#e0e0e0" class="animable"/>
   <polygon id="el50jct0yf169" style="transform-origin:126.635px 268.645px" points="157.37 335.96 83.69 293.44 95.91 201.33 169.58 243.84" fill="#fafafa" class="animable"/>
   <polygon id="elhvu04brbz0e" style="transform-origin:134.47px 221.575px" points="173.03 241.85 169.58 243.84 95.91 201.33 99.4 199.31" fill="#ebebeb" class="animable"/>
   <polygon id="elmeooiao0fxr" style="transform-origin:126.43px 267.8px" points="165.73 245.23 98.21 206.26 87.13 290.43 154.65 329.34" fill="#407bff" class="animable"/>
   <g id="el7vhsrd95ns3">
    <polygon opacity=".8" style="transform-origin:126.43px 267.8px" points="165.73 245.23 98.21 206.26 87.13 290.43 154.65 329.34" class="animable" fill="#fff"/>
   </g>
   <path id="ela09f6wr85d9" class="animable" style="transform-origin:124.95px 283.288px" fill="#407bff" d="m94.37 258l17.32-16.42c1.81-1.71 3.94-1.18 4.74 1.18l12.42 36.58a0.82 0.82 0 0 0 1.6 -0.32l-0.54-7.71 11.09-7.77a3.8 3.8 0 0 1 5.7 1.46l13 26-4.61 35-64.89-37.4z"/>
   <path id="el6zlqfdwq51q" class="animable" style="transform-origin:152.295px 251.32px" fill="#407bff" d="m153.11 245.44c-3-1.75-5.89-0.56-6.36 2.67s1.66 7.29 4.74 9.07 5.93 0.59 6.36-2.66-1.69-7.32-4.74-9.08z"/>
   <polygon id="elddk5qq2wir" style="transform-origin:94.205px 248.315px" points="101.27 208.04 90.2 288.6 87.14 290.37 98.21 206.26" fill="#e0e0e0" class="animable"/>
   <polygon id="elvvciqme3iha" style="transform-origin:121.115px 308.97px" points="90.2 288.6 155.09 326.03 154.65 329.34 87.14 290.37" fill="#ebebeb" class="animable"/>
   <polygon id="elgy8k02ojsqq" style="transform-origin:146.87px 299.52px" points="142.48 344.58 139.04 346.57 151.25 254.46 154.7 252.47" fill="#e0e0e0" class="animable"/>
   <polygon id="eli02oj1zt6bg" style="transform-origin:108.31px 279.255px" points="139.04 346.57 65.37 304.05 77.58 211.94 151.25 254.46" fill="#fafafa" class="animable"/>
   <polygon id="elseqn7ha3cjt" style="transform-origin:116.14px 232.19px" points="154.7 252.47 151.25 254.46 77.58 211.94 81.08 209.92" fill="#ebebeb" class="animable"/>
   <polygon id="elekah08fsmnw" style="transform-origin:108.1px 278.42px" points="147.4 255.84 79.89 216.88 68.8 301.04 136.32 339.96" fill="#407bff" class="animable"/>
   <g id="elddcseeiim1q">
    <polygon opacity=".8" style="transform-origin:108.1px 278.42px" points="147.4 255.84 79.89 216.88 68.8 301.04 136.32 339.96" class="animable" fill="#fff"/>
   </g>
   <path id="el9fdhrqctpup" class="animable" style="transform-origin:106.595px 293.927px" fill="#407bff" d="m76 268.62l17.32-16.41c1.81-1.71 4-1.19 4.75 1.17l12.46 36.62a0.82 0.82 0 0 0 1.6 -0.32l-0.54-7.71 11-7.77a3.79 3.79 0 0 1 5.73 1.45l13 26-4.62 35-64.83-37.44z"/>
   <path id="elie2zicd49j" class="animable" style="transform-origin:133.977px 261.936px" fill="#407bff" d="m134.79 256.06c-3-1.76-5.9-0.57-6.36 2.67s1.65 7.29 4.73 9.07 5.93 0.59 6.37-2.67-1.69-7.31-4.74-9.07z"/>
   <polygon id="eltkrfeoqtlm" style="transform-origin:75.875px 258.935px" points="82.94 218.66 71.87 299.21 68.81 300.99 79.89 216.88" fill="#e0e0e0" class="animable"/>
   <polygon id="eldwn5udz9tat" style="transform-origin:102.785px 319.585px" points="71.87 299.21 136.76 336.64 136.32 339.96 68.81 300.99" fill="#ebebeb" class="animable"/>
  </g>
  <g id="photos--inject-1" style="transform-origin:148.04px 144.995px" class="animable">
   <path id="eldqsptmtjqdh" class="animable" style="transform-origin:148.04px 185.222px" fill="#37474f" d="m167.92 120.58-125.69 72.58a3.6 3.6 0 0 0 -1.64 2.84v3.31a3.62 3.62 0 0 0 1.64 2.84l82.64 47.71a3.62 3.62 0 0 0 3.27 0l125.72-72.59a3.62 3.62 0 0 0 1.63 -2.83v-3.31a3.6 3.6 0 0 0 -1.64 -2.83l-82.66-47.71a3.62 3.62 0 0 0 -3.27 -0.01z"/>
   <path id="el65ud3u2n6ul" class="animable" style="transform-origin:148.045px 181.674px" fill="#455a64" d="m124.87 242.76-82.64-47.71a1 1 0 0 1 0 -1.89l125.69-72.58a3.62 3.62 0 0 1 3.27 0l82.66 47.71c0.91 0.52 0.91 1.36 0 1.89l-125.71 72.58a3.56 3.56 0 0 1 -3.27 0z"/>
   <path id="elpyqpbtfpvq" class="animable" style="transform-origin:83.6px 221.806px" fill="#263238" d="m126.61 243.15v7.09a3.5 3.5 0 0 1 -1.73 -0.38l-82.66-47.73a3.61 3.61 0 0 1 -1.63 -2.82v-3.31a3.67 3.67 0 0 1 1.33 -2.63c-0.58 0.53-0.48 1.22 0.3 1.68l82.66 47.71a3.3 3.3 0 0 0 1.73 0.39z"/>
   <polygon id="elkuq2k6fw31" style="transform-origin:238.5px 129.34px" points="234.11 174.4 230.67 176.39 242.88 84.28 246.33 82.29" fill="#e0e0e0" class="animable"/>
   <polygon id="elz5pdhg2wm8c" style="transform-origin:199.94px 109.075px" points="230.67 176.39 157 133.87 169.21 41.76 242.88 84.28" fill="#fafafa" class="animable"/>
   <polygon id="elzajv48omije" style="transform-origin:207.77px 62.01px" points="246.33 82.29 242.88 84.28 169.21 41.76 172.71 39.74" fill="#ebebeb" class="animable"/>
   <polygon id="el08pabkq90046" style="transform-origin:199.73px 108.24px" points="239.03 85.66 171.51 46.7 160.43 130.86 227.95 169.78" fill="#407bff" class="animable"/>
   <g id="elg10ljsrn9r">
    <polygon opacity=".8" style="transform-origin:199.73px 108.24px" points="239.03 85.66 171.51 46.7 160.43 130.86 227.95 169.78" class="animable" fill="#fff"/>
   </g>
   <path id="el9ell6hormh" class="animable" style="transform-origin:198.25px 123.715px" fill="#407bff" d="m167.67 98.44 17.33-16.44c1.81-1.72 3.95-1.19 4.75 1.17l12.42 36.58a0.82 0.82 0 0 0 1.6 -0.32l-0.54-7.71 11.04-7.72a3.78 3.78 0 0 1 5.73 1.44l13 26-4.62 35-64.88-37.44z"/>
   <path id="elubvneqohmob" class="animable" style="transform-origin:225.601px 91.7553px" fill="#407bff" d="m226.42 85.88c-3-1.76-5.9-0.57-6.37 2.66s1.66 7.3 4.74 9.08 5.93 0.58 6.37-2.67-1.69-7.31-4.74-9.07z"/>
   <polygon id="elcvpmzdrmpes" style="transform-origin:167.505px 88.75px" points="174.57 48.47 163.5 129.03 160.44 130.8 171.51 46.7" fill="#e0e0e0" class="animable"/>
   <polygon id="elgh3ryayk85o" style="transform-origin:194.415px 149.405px" points="163.5 129.03 228.39 166.46 227.95 169.78 160.44 130.8" fill="#ebebeb" class="animable"/>
   <polygon id="elgffbko669kc" style="transform-origin:220.175px 139.95px" points="215.79 185.01 212.34 187 224.56 94.89 228.01 92.9" fill="#e0e0e0" class="animable"/>
   <polygon id="elev1k63p9t3e" style="transform-origin:181.615px 119.69px" points="212.34 187 138.67 144.49 150.88 52.38 224.56 94.89" fill="#fafafa" class="animable"/>
   <polygon id="elpog7891iv2" style="transform-origin:189.445px 72.625px" points="228.01 92.9 224.56 94.89 150.88 52.38 154.38 50.36" fill="#ebebeb" class="animable"/>
   <polygon id="elo6p3m3xouue" style="transform-origin:181.41px 118.85px" points="220.71 96.28 153.19 57.31 142.11 141.47 209.63 180.39" fill="#407bff" class="animable"/>
   <g id="elkfgocun0acq">
    <polygon opacity=".8" style="transform-origin:181.41px 118.85px" points="220.71 96.28 153.19 57.31 142.11 141.47 209.63 180.39" class="animable" fill="#fff"/>
   </g>
   <path id="elc2qf5eb0kf" class="animable" style="transform-origin:179.925px 134.338px" fill="#407bff" d="m149.34 109.05l17.32-16.41c1.81-1.71 4-1.18 4.75 1.18l12.42 36.58a0.82 0.82 0 0 0 1.6 -0.33l-0.54-7.7 11.05-7.78a3.8 3.8 0 0 1 5.74 1.45l13 26-4.61 35-64.9-37.43z"/>
   <path id="elmg10zm86okn" class="animable" style="transform-origin:207.275px 102.368px" fill="#407bff" d="m208.09 96.49c-3.05-1.76-5.89-0.56-6.36 2.67s1.65 7.29 4.74 9.07 5.93 0.59 6.36-2.66-1.69-7.32-4.74-9.08z"/>
   <polygon id="elyqcxbzaqqb" style="transform-origin:149.185px 99.365px" points="156.25 59.09 145.17 139.64 142.12 141.42 153.19 57.31" fill="#e0e0e0" class="animable"/>
   <polygon id="elk1nond5ybc" style="transform-origin:176.09px 160.015px" points="145.17 139.64 210.06 177.07 209.63 180.39 142.12 141.42" fill="#ebebeb" class="animable"/>
   <polygon id="elu8z0bhgg02i" style="transform-origin:201.85px 150.57px" points="197.46 195.63 194.02 197.62 206.23 105.51 209.68 103.52" fill="#e0e0e0" class="animable"/>
   <polygon id="elw3430de97ko" style="transform-origin:163.285px 130.305px" points="194.02 197.62 120.34 155.1 132.56 62.99 206.23 105.51" fill="#fafafa" class="animable"/>
   <polygon id="el1gofg2rq6ss" style="transform-origin:171.12px 83.24px" points="209.68 103.52 206.23 105.51 132.56 62.99 136.06 60.97" fill="#ebebeb" class="animable"/>
   <polygon id="elnja1y692d8e" style="transform-origin:163.08px 129.46px" points="202.38 106.89 134.86 67.92 123.78 152.09 191.3 191" fill="#407bff" class="animable"/>
   <g id="eljky19nwl4ur">
    <polygon opacity=".8" style="transform-origin:163.08px 129.46px" points="202.38 106.89 134.86 67.92 123.78 152.09 191.3 191" class="animable" fill="#fff"/>
   </g>
   <path id="elf5dc1f8c0un" class="animable" style="transform-origin:161.6px 144.945px" fill="#407bff" d="m131 119.67l17.32-16.41c1.81-1.72 3.94-1.19 4.75 1.17l12.43 36.57a0.82 0.82 0 0 0 1.6 -0.32l-0.54-7.71 11.06-7.77a3.78 3.78 0 0 1 5.73 1.44l13 26-4.61 35-64.89-37.43z"/>
   <path id="el8vbvcj1pofu" class="animable" style="transform-origin:188.945px 112.985px" fill="#407bff" d="m189.77 107.11c-3.05-1.76-5.9-0.57-6.37 2.66s1.66 7.3 4.74 9.08 5.93 0.58 6.36-2.67-1.69-7.31-4.73-9.07z"/>
   <polygon id="elhtqa9nqi51i" style="transform-origin:130.855px 109.975px" points="137.92 69.7 126.85 150.26 123.79 152.03 134.86 67.92" fill="#e0e0e0" class="animable"/>
   <polygon id="elhqr4c0q3c7" style="transform-origin:157.765px 170.63px" points="126.85 150.26 191.74 187.69 191.3 191 123.79 152.03" fill="#ebebeb" class="animable"/>
   <polygon id="elu1zwybjlh8" style="transform-origin:183.52px 161.18px" points="179.13 206.24 175.69 208.23 187.91 116.12 191.35 114.13" fill="#e0e0e0" class="animable"/>
   <polygon id="el01qoh943ehgz" style="transform-origin:144.965px 140.92px" points="175.69 208.23 102.02 165.72 114.23 73.61 187.91 116.12" fill="#fafafa" class="animable"/>
   <polygon id="elo4dgfb9yaz" style="transform-origin:152.79px 93.855px" points="191.35 114.13 187.91 116.12 114.23 73.61 117.73 71.59" fill="#ebebeb" class="animable"/>
   <polygon id="elzbzhylno6l" style="transform-origin:144.76px 140.08px" points="184.06 117.5 116.54 78.54 105.46 162.7 172.98 201.62" fill="#407bff" class="animable"/>
   <g id="elw5qf8erhty">
    <polygon opacity=".8" style="transform-origin:144.76px 140.08px" points="184.06 117.5 116.54 78.54 105.46 162.7 172.98 201.62" class="animable" fill="#fff"/>
   </g>
   <path id="el3lsvqnthju2" class="animable" style="transform-origin:143.215px 155.568px" fill="#407bff" d="m112.69 130.28 17.31-16.41c1.81-1.71 4-1.18 4.75 1.18l12.42 36.58a0.82 0.82 0 0 0 1.6 -0.32l-0.54-7.71 11-7.78a3.8 3.8 0 0 1 5.74 1.45l13 26-4.62 35-64.89-37.44z"/>
   <path id="elicnd6t06no" class="animable" style="transform-origin:170.626px 123.598px" fill="#407bff" d="m171.44 117.72c-3.05-1.76-5.9-0.56-6.36 2.67s1.65 7.29 4.73 9.07 5.94 0.59 6.37-2.66-1.69-7.32-4.74-9.08z"/>
   <polygon id="el8mcrdtqv3n6" style="transform-origin:112.525px 120.595px" points="119.59 80.32 108.52 160.87 105.46 162.65 116.54 78.54" fill="#e0e0e0" class="animable"/>
   <polygon id="el8q8df8xskf3" style="transform-origin:139.435px 181.245px" points="108.52 160.87 173.41 198.31 172.98 201.62 105.46 162.65" fill="#ebebeb" class="animable"/>
   <polygon id="elxfyy9j6cz2a" style="transform-origin:165.2px 171.8px" points="160.81 216.86 157.37 218.85 169.58 126.74 173.03 124.75" fill="#e0e0e0" class="animable"/>
   <polygon id="el4lk66zzuyj" style="transform-origin:126.635px 151.535px" points="157.37 218.85 83.69 176.33 95.91 84.22 169.58 126.74" fill="#fafafa" class="animable"/>
   <polygon id="eldtmapyq8i16" style="transform-origin:134.47px 104.47px" points="173.03 124.75 169.58 126.74 95.91 84.22 99.4 82.2" fill="#ebebeb" class="animable"/>
   <polygon id="elukiiz3p0tp9" style="transform-origin:126.43px 150.7px" points="165.73 128.12 98.21 89.16 87.13 173.32 154.65 212.24" fill="#407bff" class="animable"/>
   <g id="elrvgrox46za">
    <polygon opacity=".8" style="transform-origin:126.43px 150.7px" points="165.73 128.12 98.21 89.16 87.13 173.32 154.65 212.24" class="animable" fill="#fff"/>
   </g>
   <path id="elmd08eftnt6" class="animable" style="transform-origin:124.97px 166.18px" fill="#407bff" d="m94.37 140.9l17.32-16.41c1.81-1.72 3.94-1.19 4.74 1.17l12.42 36.58a0.82 0.82 0 0 0 1.6 -0.32l-0.54-7.71 11.09-7.77a3.79 3.79 0 0 1 5.74 1.44l13 26-4.61 35-64.93-37.39z"/>
   <path id="elyduf4n2gice" class="animable" style="transform-origin:152.295px 134.215px" fill="#407bff" d="m153.11 128.34c-3-1.76-5.89-0.57-6.36 2.66s1.66 7.3 4.74 9.08 5.93 0.58 6.36-2.67-1.69-7.31-4.74-9.07z"/>
   <polygon id="elbpk3nc21mpm" style="transform-origin:94.205px 131.21px" points="101.27 90.93 90.2 171.49 87.14 173.26 98.21 89.16" fill="#e0e0e0" class="animable"/>
   <polygon id="elol8hs4zkej" style="transform-origin:121.115px 191.865px" points="90.2 171.49 155.09 208.92 154.65 212.24 87.14 173.26" fill="#ebebeb" class="animable"/>
   <polygon id="elsbbzfg1imqn" style="transform-origin:146.87px 182.41px" points="142.48 227.47 139.04 229.46 151.25 137.35 154.7 135.36" fill="#e0e0e0" class="animable"/>
   <polygon id="elq9r2t079lim" style="transform-origin:108.31px 162.15px" points="139.04 229.46 65.37 186.95 77.58 94.84 151.25 137.35" fill="#fafafa" class="animable"/>
   <polygon id="el3mg4d1ka77d" style="transform-origin:116.14px 115.085px" points="154.7 135.36 151.25 137.35 77.58 94.84 81.08 92.82" fill="#ebebeb" class="animable"/>
   <polygon id="elfuu6kqrjpo5" style="transform-origin:108.1px 161.31px" points="147.4 138.74 79.89 99.77 68.8 183.93 136.32 222.85" fill="#407bff" class="animable"/>
   <g id="elbx7gfkjxvqi">
    <polygon opacity=".8" style="transform-origin:108.1px 161.31px" points="147.4 138.74 79.89 99.77 68.8 183.93 136.32 222.85" class="animable" fill="#fff"/>
   </g>
   <path id="eljxyisklwgv" class="animable" style="transform-origin:106.595px 176.798px" fill="#407bff" d="m76 151.52 17.36-16.42c1.81-1.71 4-1.18 4.75 1.18l12.42 36.58a0.82 0.82 0 0 0 1.6 -0.32l-0.54-7.71 11-7.78a3.79 3.79 0 0 1 5.73 1.45l13 26-4.62 35-64.83-37.4z"/>
   <path id="elsx2s6wjqped" class="animable" style="transform-origin:133.977px 144.878px" fill="#407bff" d="m134.79 139c-3-1.76-5.9-0.56-6.36 2.67s1.65 7.29 4.73 9.07 5.93 0.59 6.37-2.66-1.69-7.37-4.74-9.08z"/>
   <polygon id="elny62d2uu8da" style="transform-origin:75.875px 141.825px" points="82.94 101.55 71.87 182.1 68.81 183.88 79.89 99.77" fill="#e0e0e0" class="animable"/>
   <polygon id="eln7kbiqmihjs" style="transform-origin:102.785px 202.475px" points="71.87 182.1 136.76 219.53 136.32 222.85 68.81 183.88" fill="#ebebeb" class="animable"/>
  </g>
 </g>
 <g id="Window--inject-1" style="transform-origin:294.125px 195.542px" class="animable">
  <g id="window--inject-1" style="transform-origin:294.125px 195.542px" class="animable">
   <path id="elf6qza055loj" class="animable" style="transform-origin:297.115px 197.231px" fill="#455a64" d="m366.2 45.32v224.29a10.29 10.29 0 0 1 -4.66 8.07l-128.85 74.32a2.89 2.89 0 0 1 -1.54 0.44 3.07 3.07 0 0 1 -0.6 -0.07 1.9 1.9 0 0 1 -0.4 -0.14l-0.24-0.14-0.28-0.18a2.85 2.85 0 0 1 -0.26 -0.23 3.77 3.77 0 0 1 -0.85 -1.22 5.79 5.79 0 0 1 -0.49 -2.36v-223.1a10.3 10.3 0 0 1 4.66 -8.07l128.85-74.3a3.38 3.38 0 0 1 3.13 -0.39 1.6 1.6 0 0 1 0.4 0.23 1.47 1.47 0 0 1 0.31 0.3 1.15 1.15 0 0 1 0.14 0.17 0.87 0.87 0 0 1 0.15 0.24 2.3 2.3 0 0 1 0.27 0.6 1.3 1.3 0 0 1 0.11 0.41 0.1 0.1 0 0 1 0 0.09 2 2 0 0 1 0.07 0.43 5.63 5.63 0 0 1 0.08 0.61z"/>
   <path id="elz1feib33nw9" class="animable" style="transform-origin:293.36px 89.4217px" fill="#407bff" d="m364.67 42.24a3.38 3.38 0 0 0 -3.13 0.39l-128.85 74.27a10.3 10.3 0 0 0 -4.69 8.1v15.2l-5.95-3.49v-15.12a10.27 10.27 0 0 1 4.65 -8l128.89-74.32a3.27 3.27 0 0 1 3.41 -0.27c0.81 0.5 4.68 2.72 5.67 3.24z"/>
   <path id="eltfaa1guzlw" class="animable" style="transform-origin:297.095px 91.1018px" fill="#407bff" d="m366.19 45.29c0-2.94-2.09-4.13-4.65-2.65l-128.85 74.26a10.32 10.32 0 0 0 -4.69 8.1v15.2l138.19-79.62z"/>
   <g id="elpc70wj1z3go">
    <g opacity=".4" style="transform-origin:294.095px 79.5017px" class="animable">
     <path id="eldnt2w4xxk3j" class="animable" style="transform-origin:294.095px 79.5017px" fill="#fff" d="m361.54 42.64-128.85 74.26a9.69 9.69 0 0 0 -3.28 3.46l-5.91-3.43a9.32 9.32 0 0 1 3.24 -3.4l128.85-74.26a3.27 3.27 0 0 1 3.41 -0.27c0.84 0.51 4.71 2.71 5.69 3.24a3.35 3.35 0 0 0 -3.15 0.4z"/>
    </g>
   </g>
   <g id="elu7b25fforr8">
    <path opacity=".15" style="transform-origin:225.745px 128.565px" d="m222.07 136.73v-15.14a9.55 9.55 0 0 1 1.42 -4.66l5.93 3.41a9.37 9.37 0 0 0 -1.42 4.66v15.2z" class="animable"/>
   </g>
   <path id="elygz3tjra2ql" class="animable" style="transform-origin:338.14px 66.685px" fill="#455a64" d="m338.14 62.63c-1.45 0.84-2.63 3.34-2.63 5.57s1.18 3.38 2.63 2.54 2.63-3.34 2.63-5.57-1.18-3.38-2.63-2.54z"/>
   <path id="el98ipbvqpc6k" class="animable" style="transform-origin:347.61px 61.205px" fill="#455a64" d="m347.61 57.15c-1.45 0.84-2.63 3.34-2.63 5.57s1.18 3.38 2.63 2.54 2.63-3.34 2.63-5.57-1.17-3.38-2.63-2.54z"/>
   <path id="el270g1gv5xvm" class="animable" style="transform-origin:357.09px 55.727px" fill="#455a64" d="m357.09 51.67c-1.46 0.84-2.63 3.34-2.63 5.57s1.17 3.38 2.63 2.54 2.63-3.34 2.63-5.57-1.18-3.37-2.63-2.54z"/>
   <path id="elsnnehvyv1pe" class="animable" style="transform-origin:225.925px 244.375px" fill="#37474f" d="m229.74 352c-0.17-0.11-0.37-0.22-0.58-0.34-0.43-0.26-0.92-0.54-1.44-0.81l-0.78-0.44h-0.06c-0.43-0.24-0.84-0.49-1.23-0.7l-1-0.58a6.19 6.19 0 0 0 -0.58 -0.32 2.73 2.73 0 0 1 -0.8 -0.65 3.49 3.49 0 0 1 -0.62 -0.94 5.75 5.75 0 0 1 -0.54 -2.47v-208l5.89 3.45v207.92a6.75 6.75 0 0 0 0.49 2.36 3.77 3.77 0 0 0 0.85 1.22 0.83 0.83 0 0 0 0.26 0.23 0.38 0.38 0 0 0 0.14 0.07z"/>
   <path id="elbud6y0gox0n" class="animable" style="transform-origin:241.569px 151.483px" fill="#407bff" d="m239.47 152.85a1.85 1.85 0 0 1 0.24 -0.87l3.35-6.93a0.49 0.49 0 0 1 0.15 -0.2s0.07-0.06 0.09-0.06a0.19 0.19 0 0 1 0.26 0 0.46 0.46 0 0 1 0.11 0.34v2.32a2.81 2.81 0 0 1 -0.07 0.72 2.71 2.71 0 0 1 -0.24 0.64l-1.76 3.66 1.76 1.62a0.82 0.82 0 0 1 0.24 0.36 2 2 0 0 1 0.07 0.64v2.33a1.15 1.15 0 0 1 -0.11 0.47 0.73 0.73 0 0 1 -0.26 0.32h-0.09a0.17 0.17 0 0 1 -0.15 0l-3.35-3.07a0.67 0.67 0 0 1 -0.24 -0.59z"/>
   <path id="ellyjhk5dsed" class="animable" style="transform-origin:250.065px 147.025px" fill="#407bff" d="m251.72 135.47a3.37 3.37 0 0 1 0.26 -0.68 1.15 1.15 0 0 1 0.49 -0.53l1.26-0.73a0.2 0.2 0 0 1 0.26 0 0.48 0.48 0 0 1 0.11 0.34 1.38 1.38 0 0 1 0 0.26l-5.75 24.47a2.9 2.9 0 0 1 -0.23 0.66 1.32 1.32 0 0 1 -0.51 0.56l-1.21 0.7a0.2 0.2 0 0 1 -0.26 0 0.44 0.44 0 0 1 -0.11 -0.34 1.38 1.38 0 0 1 0 -0.26z"/>
   <path id="el9h7wogj4trm" class="animable" style="transform-origin:258.499px 143.742px" fill="#407bff" d="m260.61 142.38a1.85 1.85 0 0 1 -0.24 0.87l-3.37 6.93a0.6 0.6 0 0 1 -0.15 0.2c-0.05 0-0.07 0.06-0.09 0.06a0.2 0.2 0 0 1 -0.26 0 0.51 0.51 0 0 1 -0.11 -0.35v-2.32a2.81 2.81 0 0 1 0.07 -0.72 2.71 2.71 0 0 1 0.24 -0.64l1.76-3.66-1.76-1.62a0.82 0.82 0 0 1 -0.24 -0.36 2 2 0 0 1 -0.07 -0.64v-2.33a1.15 1.15 0 0 1 0.11 -0.47 0.73 0.73 0 0 1 0.26 -0.32h0.09a0.21 0.21 0 0 1 0.15 0l3.35 3.07a0.67 0.67 0 0 1 0.24 0.59z"/>
   <path id="elj8jms4xb3f" class="animable" style="transform-origin:269.129px 143.207px" fill="#407bff" d="m269.92 140.77a0.25 0.25 0 0 1 0.32 0 0.57 0.57 0 0 1 0.14 0.42v2.56a1.34 1.34 0 0 1 -0.14 0.58 0.86 0.86 0 0 1 -0.32 0.39l-1.58 0.92a0.25 0.25 0 0 1 -0.33 0 0.53 0.53 0 0 1 -0.13 -0.41v-2.57a1.31 1.31 0 0 1 0.13 -0.57 0.85 0.85 0 0 1 0.33 -0.4z"/>
   <path id="el7jrq93khbhj" class="animable" style="transform-origin:274.41px 140.155px" fill="#407bff" d="m275.2 137.72a0.24 0.24 0 0 1 0.32 0 0.53 0.53 0 0 1 0.14 0.42v2.56a1.21 1.21 0 0 1 -0.14 0.58 0.81 0.81 0 0 1 -0.32 0.39l-1.58 0.92a0.24 0.24 0 0 1 -0.32 0 0.54 0.54 0 0 1 -0.14 -0.42v-2.57a1.33 1.33 0 0 1 0.14 -0.57 0.84 0.84 0 0 1 0.32 -0.4z"/>
   <path id="elw83n0s3ewc" class="animable" style="transform-origin:279.694px 137.104px" fill="#407bff" d="m280.48 134.67a0.25 0.25 0 0 1 0.33 0 0.57 0.57 0 0 1 0.13 0.42v2.56a1.33 1.33 0 0 1 -0.13 0.58 0.82 0.82 0 0 1 -0.33 0.39l-1.58 0.92a0.24 0.24 0 0 1 -0.32 0 0.54 0.54 0 0 1 -0.13 -0.42v-2.56a1.31 1.31 0 0 1 0.13 -0.57 0.84 0.84 0 0 1 0.32 -0.4z"/>
   <path id="el3mmj3hdv8ue" class="animable" style="transform-origin:279.595px 150.989px" fill="#407bff" d="m240.88 171.54l77.42-44.69c0.91-0.53 1.66-0.16 1.66 0.83a3.57 3.57 0 0 1 -1.66 2.75l-77.42 44.7c-0.91 0.53-1.65 0.15-1.65-0.84a3.56 3.56 0 0 1 1.65 -2.75z"/>
   <path id="el2p29gt200xm" class="animable" style="transform-origin:304.435px 179.67px" fill="#fff" d="m265.72 200.23l77.42-44.7c0.91-0.53 1.66-0.15 1.66 0.84a3.54 3.54 0 0 1 -1.66 2.74l-77.42 44.7c-0.91 0.53-1.65 0.15-1.65-0.84a3.53 3.53 0 0 1 1.65 -2.74z"/>
   <path id="ell9es58u5sj" class="animable" style="transform-origin:284.25px 220.011px" fill="#e0e0e0" d="m265.72 228.91l37.06-21.38c0.91-0.53 1.65-0.15 1.65 0.84a3.56 3.56 0 0 1 -1.65 2.75l-37.06 21.37c-0.91 0.53-1.65 0.16-1.65-0.83a3.56 3.56 0 0 1 1.65 -2.75z"/>
   <path id="el3k21i95i5qd" class="animable" style="transform-origin:340.135px 116px" fill="#407bff" d="m324.72 123.14l30.84-17.87c0.91-0.53 1.65-0.15 1.65 0.84a3.53 3.53 0 0 1 -1.65 2.74l-30.84 17.88c-0.92 0.53-1.66 0.15-1.66-0.84a3.55 3.55 0 0 1 1.66 -2.75z"/>
   <path id="eldf65tti6itn" class="animable" style="transform-origin:279.595px 308.725px" fill="#407bff" d="m240.88 329.28l77.42-44.7c0.91-0.52 1.66-0.15 1.66 0.84a3.57 3.57 0 0 1 -1.66 2.75l-77.42 44.7c-0.91 0.52-1.65 0.15-1.65-0.84a3.56 3.56 0 0 1 1.65 -2.75z"/>
   <path id="elcrzvm21q08u" class="animable" style="transform-origin:340.135px 273.725px" fill="#407bff" d="m324.72 280.88 30.84-17.88c0.91-0.53 1.65-0.16 1.65 0.83a3.56 3.56 0 0 1 -1.65 2.75l-30.84 17.87c-0.92 0.53-1.66 0.16-1.66-0.83a3.55 3.55 0 0 1 1.66 -2.74z"/>
   <path id="el97sq92ehggt" class="animable" style="transform-origin:340.135px 230.79px" fill="#407bff" d="m324.72 237.93l30.84-17.87c0.91-0.53 1.65-0.15 1.65 0.84a3.56 3.56 0 0 1 -1.65 2.75l-30.84 17.87c-0.92 0.53-1.66 0.15-1.66-0.84a3.55 3.55 0 0 1 1.66 -2.75z"/>
   <path id="elmsw92kxm13l" class="animable" style="transform-origin:340.135px 245.127px" fill="#407bff" d="m324.72 252.27l30.84-17.87c0.91-0.53 1.65-0.16 1.65 0.83a3.56 3.56 0 0 1 -1.65 2.75l-30.84 17.88c-0.92 0.52-1.66 0.15-1.66-0.84a3.55 3.55 0 0 1 1.66 -2.75z"/>
   <path id="el1g3k4xq3wwjj" class="animable" style="transform-origin:307.08px 249.865px" fill="#407bff" d="m298.42 253.07l17.32-10c0.92-0.53 1.66-0.15 1.66 0.84a3.55 3.55 0 0 1 -1.66 2.75l-17.32 10c-0.92 0.53-1.66 0.15-1.66-0.84a3.55 3.55 0 0 1 1.66 -2.75z"/>
   <path id="elzlu2d0k4tng" class="animable" style="transform-origin:263.44px 174.666px" fill="#407bff" d="m240.88 185.92 45.12-26.09c0.91-0.53 1.65-0.15 1.65 0.83a3.55 3.55 0 0 1 -1.65 2.75l-45.12 26.09c-0.91 0.53-1.65 0.16-1.65-0.83a3.56 3.56 0 0 1 1.65 -2.75z"/>
   <g id="ela2db0vc9qfl">
    <path opacity=".6" style="transform-origin:263.44px 174.666px" fill="#fff" d="m240.88 185.92 45.12-26.09c0.91-0.53 1.65-0.15 1.65 0.83a3.55 3.55 0 0 1 -1.65 2.75l-45.12 26.09c-0.91 0.53-1.65 0.16-1.65-0.83a3.56 3.56 0 0 1 1.65 -2.75z" class="animable"/>
   </g>
   <path id="elbd75x5le0a9" class="animable" style="transform-origin:248.545px 197.617px" fill="#407bff" d="m240.88 200.23l15.32-8.85c0.92-0.53 1.66-0.16 1.66 0.83a3.55 3.55 0 0 1 -1.66 2.79l-15.32 8.86c-0.91 0.52-1.65 0.15-1.65-0.84a3.56 3.56 0 0 1 1.65 -2.79z"/>
   <g id="eljbd4yhthn7">
    <path opacity=".6" style="transform-origin:248.545px 197.617px" fill="#fff" d="m240.88 200.23l15.32-8.85c0.92-0.53 1.66-0.16 1.66 0.83a3.55 3.55 0 0 1 -1.66 2.79l-15.32 8.86c-0.91 0.52-1.65 0.15-1.65-0.84a3.56 3.56 0 0 1 1.65 -2.79z" class="animable"/>
   </g>
   <path id="elm60ebtz8wlc" class="animable" style="transform-origin:248.545px 211.939px" fill="#407bff" d="m240.88 214.57l15.32-8.85c0.92-0.53 1.66-0.16 1.66 0.83a3.55 3.55 0 0 1 -1.66 2.75l-15.32 8.86c-0.91 0.53-1.65 0.15-1.65-0.84a3.56 3.56 0 0 1 1.65 -2.75z"/>
   <g id="elm8g5chm1dab">
    <path opacity=".6" style="transform-origin:248.545px 211.939px" fill="#fff" d="m240.88 214.57l15.32-8.85c0.92-0.53 1.66-0.16 1.66 0.83a3.55 3.55 0 0 1 -1.66 2.75l-15.32 8.86c-0.91 0.53-1.65 0.15-1.65-0.84a3.56 3.56 0 0 1 1.65 -2.75z" class="animable"/>
   </g>
   <path id="ell84bupemy9" class="animable" style="transform-origin:248.545px 226.279px" fill="#407bff" d="m240.88 228.91l15.32-8.85c0.92-0.53 1.66-0.16 1.66 0.83a3.55 3.55 0 0 1 -1.66 2.75l-15.32 8.86c-0.91 0.53-1.65 0.15-1.65-0.84a3.56 3.56 0 0 1 1.65 -2.75z"/>
   <g id="elrmlkskxngtf">
    <path opacity=".6" style="transform-origin:248.545px 226.271px" fill="#fff" d="m240.88 228.91l15.32-8.86c0.92-0.53 1.66-0.15 1.66 0.84a3.55 3.55 0 0 1 -1.66 2.75l-15.32 8.85c-0.91 0.53-1.65 0.16-1.65-0.83a3.56 3.56 0 0 1 1.65 -2.75z" class="animable"/>
   </g>
   <path id="elxxep3fazt3" class="animable" style="transform-origin:288.3px 203.315px" fill="#407bff" d="m265.72 214.57l45.16-26.09c0.91-0.53 1.65-0.16 1.65 0.83a3.56 3.56 0 0 1 -1.65 2.75l-45.16 26.09c-0.91 0.53-1.65 0.16-1.65-0.83a3.55 3.55 0 0 1 1.65 -2.75z"/>
   <path id="el2xd6fy7tgs9" class="animable" style="transform-origin:327.11px 180.915px" fill="#407bff" d="m317.29 184.77l19.64-11.3c0.91-0.53 1.65-0.15 1.65 0.84a3.56 3.56 0 0 1 -1.65 2.75l-19.64 11.3c-0.91 0.53-1.65 0.15-1.65-0.84a3.56 3.56 0 0 1 1.65 -2.75z"/>
   <path id="elfs61mgv2ul" class="animable" style="transform-origin:248.545px 240.629px" fill="#407bff" d="m240.88 243.25l15.32-8.85c0.92-0.53 1.66-0.16 1.66 0.83a3.55 3.55 0 0 1 -1.66 2.77l-15.32 8.86c-0.91 0.53-1.65 0.15-1.65-0.84a3.56 3.56 0 0 1 1.65 -2.77z"/>
   <g id="elcmje9cyoust">
    <path opacity=".6" style="transform-origin:248.545px 240.629px" fill="#fff" d="m240.88 243.25l15.32-8.85c0.92-0.53 1.66-0.16 1.66 0.83a3.55 3.55 0 0 1 -1.66 2.77l-15.32 8.86c-0.91 0.53-1.65 0.15-1.65-0.84a3.56 3.56 0 0 1 1.65 -2.77z" class="animable"/>
   </g>
   <path id="eltfrjvst9ll8" class="animable" style="transform-origin:302.275px 152.267px" fill="#407bff" d="m292.45 156.12l19.64-11.3c0.91-0.52 1.66-0.15 1.66 0.84a3.57 3.57 0 0 1 -1.66 2.75l-19.64 11.3c-0.91 0.53-1.65 0.15-1.65-0.84a3.56 3.56 0 0 1 1.65 -2.75z"/>
   <g id="elafaainknxd8">
    <path opacity=".6" style="transform-origin:302.275px 152.267px" fill="#fff" d="m292.45 156.12l19.64-11.3c0.91-0.52 1.66-0.15 1.66 0.84a3.57 3.57 0 0 1 -1.66 2.75l-19.64 11.3c-0.91 0.53-1.65 0.15-1.65-0.84a3.56 3.56 0 0 1 1.65 -2.75z" class="animable"/>
   </g>
   <path id="elgex45glukwq" class="animable" style="transform-origin:306.93px 221.218px" fill="#e0e0e0" d="m284.35 232.47l45.16-26.09c0.91-0.53 1.65-0.15 1.65 0.84a3.56 3.56 0 0 1 -1.65 2.75l-45.16 26.09c-0.91 0.52-1.65 0.15-1.65-0.84a3.56 3.56 0 0 1 1.65 -2.75z"/>
   <path id="elsiekbctc2c" class="animable" style="transform-origin:332.985px 220.576px" fill="#fff" d="m310.4 231.83l45.16-26.09c0.91-0.53 1.66-0.15 1.66 0.84a3.54 3.54 0 0 1 -1.66 2.74l-45.16 26.09c-0.91 0.53-1.65 0.16-1.65-0.83a3.56 3.56 0 0 1 1.65 -2.75z"/>
   <path id="elfzlsjh3cgyw" class="animable" style="transform-origin:345.74px 198.82px" fill="#e0e0e0" d="m335.92 202.68l19.64-11.3c0.91-0.53 1.65-0.16 1.65 0.83a3.56 3.56 0 0 1 -1.65 2.75l-19.64 11.3c-0.91 0.53-1.65 0.16-1.65-0.83a3.55 3.55 0 0 1 1.65 -2.75z"/>
   <path id="elndqrtnatri" class="animable" style="transform-origin:345.74px 255.619px" fill="#e0e0e0" d="m335.92 259.48l19.64-11.3c0.91-0.53 1.65-0.16 1.65 0.83a3.56 3.56 0 0 1 -1.65 2.75l-19.64 11.3c-0.91 0.53-1.65 0.15-1.65-0.84a3.53 3.53 0 0 1 1.65 -2.74z"/>
   <path id="elramejl5o9ci" class="animable" style="transform-origin:288.3px 174.638px" fill="#407bff" d="m265.72 185.89l45.16-26.09c0.91-0.53 1.65-0.15 1.65 0.84a3.56 3.56 0 0 1 -1.65 2.75l-45.16 26.09c-0.91 0.52-1.65 0.15-1.65-0.84a3.56 3.56 0 0 1 1.65 -2.75z"/>
   <g id="el8z7dibzr9vd">
    <path opacity=".6" style="transform-origin:288.3px 174.638px" fill="#fff" d="m265.72 185.89l45.16-26.09c0.91-0.53 1.65-0.15 1.65 0.84a3.56 3.56 0 0 1 -1.65 2.75l-45.16 26.09c-0.91 0.52-1.65 0.15-1.65-0.84a3.56 3.56 0 0 1 1.65 -2.75z" class="animable"/>
   </g>
   <path id="elk9d6f5i9l7b" class="animable" style="transform-origin:327.11px 152.24px" fill="#407bff" d="m317.29 156.1l19.64-11.3c0.91-0.53 1.65-0.16 1.65 0.83a3.56 3.56 0 0 1 -1.65 2.75l-19.64 11.3c-0.91 0.53-1.65 0.16-1.65-0.83a3.53 3.53 0 0 1 1.65 -2.75z"/>
   <g id="el3fyw5i6cukn">
    <path opacity=".6" style="transform-origin:327.11px 152.24px" fill="#fff" d="m317.29 156.1l19.64-11.3c0.91-0.53 1.65-0.16 1.65 0.83a3.56 3.56 0 0 1 -1.65 2.75l-19.64 11.3c-0.91 0.53-1.65 0.16-1.65-0.83a3.53 3.53 0 0 1 1.65 -2.75z" class="animable"/>
   </g>
   <g id="el2jhzo2c1egc">
    <path opacity=".6" style="transform-origin:288.3px 203.315px" fill="#fff" d="m265.72 214.57l45.16-26.09c0.91-0.53 1.65-0.16 1.65 0.83a3.56 3.56 0 0 1 -1.65 2.75l-45.16 26.09c-0.91 0.53-1.65 0.16-1.65-0.83a3.55 3.55 0 0 1 1.65 -2.75z" class="animable"/>
   </g>
   <g id="elpdpgxv5zcva">
    <path opacity=".6" style="transform-origin:327.11px 180.915px" fill="#fff" d="m317.29 184.77l19.64-11.3c0.91-0.53 1.65-0.15 1.65 0.84a3.56 3.56 0 0 1 -1.65 2.75l-19.64 11.3c-0.91 0.53-1.65 0.15-1.65-0.84a3.56 3.56 0 0 1 1.65 -2.75z" class="animable"/>
   </g>
  </g>
 </g>
 <g id="Icons--inject-1" style="transform-origin:425.398px 176.9px" class="animable animator-active">
  <g id="Java--inject-1" style="transform-origin:425.399px 84.675px" class="animable">
   <path id="elczxb6aszu6k" class="animable" style="transform-origin:408.905px 66.5913px" fill="#407bff" d="m419.89 64l-10.77 6.17-10.83-1a0.76 0.76 0 0 0 -0.37 0.06c0.87-0.51 10.31-5.91 10.7-6.12a0.68 0.68 0 0 1 0.45 -0.09z"/>
   <g id="elzqjm72qe4g8">
    <path opacity=".5" style="transform-origin:408.905px 66.5913px" fill="#fff" d="m419.89 64l-10.77 6.17-10.83-1a0.76 0.76 0 0 0 -0.37 0.06c0.87-0.51 10.31-5.91 10.7-6.12a0.68 0.68 0 0 1 0.45 -0.09z" class="animable"/>
   </g>
   <polygon id="elyubyykjszr" style="transform-origin:430.02px 84.65px" points="453.36 66.16 414.42 43.67 406.68 48.17 409.53 105.95 426.15 125.63 442.77 125.14 450.51 120.64" fill="#407bff" class="animable"/>
   <g id="el6kry4spivpe">
    <polygon opacity=".5" style="transform-origin:430.02px 57.165px" points="453.36 66.16 445.63 70.66 406.68 48.17 414.42 43.67" class="animable" fill="#fff"/>
   </g>
   <g id="elm5xk7p5bh3">
    <polygon opacity=".15" style="transform-origin:448.065px 95.65px" points="453.36 66.16 445.63 70.66 442.77 125.14 450.51 120.64" class="animable"/>
   </g>
   <path id="elrhsv3xywie" class="animable" style="transform-origin:421.534px 86.925px" fill="#407bff" d="m406.68 48.17l1.08 21.88-9.46-0.83a0.8 0.8 0 0 0 -0.66 1.33l10.72 11.61 1.17 23.84 16.62 19.68 16.62-0.49 2.86-54.48z"/>
   <g id="elxl1cmevmf2">
    <polygon opacity=".5" style="transform-origin:433.89px 92.415px" points="426.15 65.05 441.63 73.98 439.35 118.8 426.15 119.78" class="animable" fill="#fff"/>
   </g>
   <polygon id="elnuztbk2zkt" style="transform-origin:426.155px 88.095px" points="437.95 76.26 436.32 112.97 426.15 113.55 415.99 101.23 415.47 90.86 419.15 92.98 419.45 99.17 426.15 107.56 432.85 106.9 433.99 79.61 414.65 68.44 414.36 62.64" fill="#fff" class="animable"/>
  </g>
  <g id="CSS--inject-1" style="transform-origin:425.398px 176.91px" class="animable">
   <path id="el0dokus35kljb" class="animable" style="transform-origin:408.905px 158.848px" fill="#407bff" d="m419.89 156.26l-10.77 6.17-10.83-1a0.9 0.9 0 0 0 -0.37 0.05c0.87-0.51 10.31-5.91 10.7-6.12a0.75 0.75 0 0 1 0.45 -0.09z"/>
   <polygon id="el5osknlhitbg" style="transform-origin:430.02px 176.91px" points="453.36 158.42 414.42 135.93 406.68 140.43 409.53 198.21 426.15 217.89 442.77 217.4 450.51 212.9" fill="#407bff" class="animable"/>
   <g id="elczeei5yyglf">
    <polygon opacity=".35" style="transform-origin:448.065px 187.91px" points="453.36 158.42 445.63 162.91 442.77 217.4 450.51 212.9" class="animable"/>
   </g>
   <path id="ellpgwa5tec48" class="animable" style="transform-origin:421.533px 179.16px" fill="#407bff" d="m406.68 140.43l1.08 21.87-9.46-0.82a0.8 0.8 0 0 0 -0.66 1.33l10.72 11.61 1.17 23.79 16.62 19.68 16.62-0.49 2.86-54.49z"/>
   <g id="elcepi1llxqmr">
    <path opacity=".25" style="transform-origin:421.533px 179.16px" d="m406.68 140.43l1.08 21.87-9.46-0.82a0.8 0.8 0 0 0 -0.66 1.33l10.72 11.61 1.17 23.79 16.62 19.68 16.62-0.49 2.86-54.49z" class="animable"/>
   </g>
   <g id="el2ezw6syhfxm">
    <polygon opacity=".7" style="transform-origin:433.89px 184.67px" points="426.15 157.3 441.63 166.24 439.35 211.05 426.15 212.04" class="animable" fill="#407bff"/>
   </g>
   <polygon id="els8fi8w9cb8" style="transform-origin:426.155px 180.355px" points="414.36 154.9 414.6 160.67 433.99 171.86 433.52 183.24 415.11 172.61 415.35 178.38 433.29 188.74 432.85 199.16 426.15 199.82 419.45 191.42 419.15 185.24 415.47 183.12 415.99 193.49 426.15 205.81 436.32 205.23 437.95 168.51" fill="#fff" class="animable"/>
  </g>
  <g id="HTML--inject-1" style="transform-origin:425.399px 269.155px" class="animable">
   <polygon id="el30uw2wiy8uc" style="transform-origin:430.02px 269.155px" points="453.36 250.66 414.42 228.18 406.68 232.67 409.53 290.45 426.15 310.13 442.77 309.64 450.51 305.14" fill="#407bff" class="animable"/>
   <g id="elgjmxzpm8zmh">
    <polygon opacity=".25" style="transform-origin:430.02px 241.67px" points="453.36 250.66 445.63 255.16 406.68 232.67 414.42 228.18" class="animable"/>
   </g>
   <g id="ell7qgysmdju">
    <polygon opacity=".55" style="transform-origin:448.065px 280.15px" points="453.36 250.66 445.63 255.16 442.77 309.64 450.51 305.14" class="animable"/>
   </g>
   <path id="elzru0hhmpi6" class="animable" style="transform-origin:408.905px 251.114px" fill="#407bff" d="m419.89 248.5l-10.77 6.17-10.83-0.95a0.76 0.76 0 0 0 -0.37 0.06c0.87-0.51 10.31-5.92 10.7-6.13a0.83 0.83 0 0 1 0.45 -0.09z"/>
   <g id="ell0guck47wh">
    <path opacity=".25" style="transform-origin:408.905px 251.114px" d="m419.89 248.5l-10.77 6.17-10.83-0.95a0.76 0.76 0 0 0 -0.37 0.06c0.87-0.51 10.31-5.92 10.7-6.13a0.83 0.83 0 0 1 0.45 -0.09z" class="animable"/>
   </g>
   <path id="eladvp503s8" class="animable" style="transform-origin:421.534px 271.4px" fill="#407bff" d="m406.68 232.67l1.08 21.88-9.46-0.83a0.8 0.8 0 0 0 -0.66 1.33l10.72 11.61 1.17 23.79 16.62 19.68 16.62-0.49 2.86-54.48z"/>
   <g id="elc29ch675gym">
    <path opacity=".4" style="transform-origin:421.534px 271.4px" d="m406.68 232.67l1.08 21.88-9.46-0.83a0.8 0.8 0 0 0 -0.66 1.33l10.72 11.61 1.17 23.79 16.62 19.68 16.62-0.49 2.86-54.48z" class="animable"/>
   </g>
   <g id="eltf3whlvrghi">
    <polygon opacity=".5" style="transform-origin:433.89px 276.915px" points="426.15 249.55 441.63 258.48 439.35 303.3 426.15 304.28" class="animable" fill="#407bff"/>
   </g>
   <polygon id="eleyq31ztoexf" style="transform-origin:426.155px 272.595px" points="437.95 260.76 414.36 247.14 415.35 270.63 433.29 280.98 432.85 291.41 426.15 292.06 419.45 283.67 419.15 277.48 415.47 275.36 415.99 285.74 426.15 298.05 436.32 297.47 437.19 277.6 418.79 266.98 418.31 255.06 437.66 266.23" fill="#fff" class="animable"/>
  </g>
 </g>
 <g id="Character--inject-1" style="transform-origin:295.598px 338.078px" class="animable">
  <g id="character--inject-1" style="transform-origin:295.598px 338.078px" class="animable">
   <path id="elb2koedvouki" class="animable" style="transform-origin:296.98px 396.369px" fill="#37474f" d="m250.31 367.18c-2.8 8.36-5.2 19.16-9 35.43-3.55 15.24-3.57 26 1.36 29.7s19.06 1.44 28-17.6c2.8-6 13.33-24.35 13.33-24.35s7.8-2.81 10.49-4.92 26 0.76 38.64-1.83 26.08-18 20.9-19.54c-9.3-2.74-34.08-3.78-55.07-5.13z"/>
   <path id="el546g7xqpjl" class="animable" style="transform-origin:305.59px 383.46px" fill="#263238" d="m320.75 380.35c-5.69 1.32-14.12-0.44-18.87-1.82a12.52 12.52 0 0 0 -0.16 -5 16.43 16.43 0 0 1 -2.11 6.32c-0.78 0.44-1.44 0.81-1.92 1.06-3.16 1.61-11.84 6.05-13.45 4.65a16.94 16.94 0 0 0 -9.73 -6.17c2.72 1.83 10.6 7.48 7.8 14l1.71-3s7.8-2.81 10.49-4.92 14.55 0.42 27.16-0.44l15-10.37s-7.2-0.45-15.92 5.69z"/>
   <path id="el8ehc0c593q6" class="animable" style="transform-origin:292.843px 417.034px" fill="#f28f8f" d="m306.17 398.09a16.42 16.42 0 0 1 -6.76 4 5.88 5.88 0 0 1 -2.54 0c-2.92-0.61-7.6-0.6-9.24 5.23-1.85 6.61-9.24 9.75-11.21 14.28-1 2.26-1.5 8.81-0.54 12.84 0.8 3.3 7.19 0.85 9.56-3.18s7.45-9.34 10.8-12.4c5.45-3.07 11.5-7.57 14.08-9.38z"/>
   <path id="elevc5lzix9n6" class="animable" style="transform-origin:329.616px 387.835px" fill="#263238" d="m344.61 361.82c16.77 1.12 17.34 10 13.15 16.76-4.51 7.25-21 17-30 22.16-8.21 4.73-22.22 13.11-22.22 13.11s-7.09-5.54-6.17-11.77c9.28-6.47 21.78-24.89 37.25-27.45z"/>
   <path id="elsfg9q71amj" class="animable" style="transform-origin:282.935px 418.285px" fill="#263238" d="m278.41 436.47a3.83 3.83 0 0 1 -2.75 -0.64c-0.75-0.53-2.41-5.2-1-10.86a24.15 24.15 0 0 1 6.2 -11.14c1.83-1.94 2.49-4.17 3.15-7s2.72-6.3 4.15-6.69 3.6 0.72 3.6 0.72z"/>
   <path id="ely3nkk83kfr" class="animable" style="transform-origin:288.414px 418.731px" fill="#407bff" d="m300.52 416.47c-0.35 1.8-1.83 2.26-3.42 2.89-2.17 0.86-4.23 3.1-6.19 5.6-1.33 1.7-2.43 3.4-3.64 5.18s-2.23 4.35-3.53 5.71c-1.91 2-5.77 1.62-6.83-1.21-0.92-2.44-1.31-8.5 1.47-14.3 1.52-3.17 5.72-6.24 6.82-10.55 0.73-2.88 1.74-6.31 3.86-8.5 1.26-1.3 2.41-1 4-0.54a51.32 51.32 0 0 0 6.36 1.33 9.66 9.66 0 0 1 -1.55 5 4.17 4.17 0 0 0 -0.8 1.62 3.36 3.36 0 0 0 0.11 1.22c0.12 0.56 0.32 1.21 0.87 1.37a5.34 5.34 0 0 0 0.69 0.05c0.86 0.11 1.28 1.1 1.5 1.94a8 8 0 0 1 0.35 2.79 3.58 3.58 0 0 1 -0.07 0.4z"/>
   <g id="elr4z6vblty3">
    <path opacity=".4" style="transform-origin:288.414px 418.731px" d="m300.52 416.47c-0.35 1.8-1.83 2.26-3.42 2.89-2.17 0.86-4.23 3.1-6.19 5.6-1.33 1.7-2.43 3.4-3.64 5.18s-2.23 4.35-3.53 5.71c-1.91 2-5.77 1.62-6.83-1.21-0.92-2.44-1.31-8.5 1.47-14.3 1.52-3.17 5.72-6.24 6.82-10.55 0.73-2.88 1.74-6.31 3.86-8.5 1.26-1.3 2.41-1 4-0.54a51.32 51.32 0 0 0 6.36 1.33 9.66 9.66 0 0 1 -1.55 5 4.17 4.17 0 0 0 -0.8 1.62 3.36 3.36 0 0 0 0.11 1.22c0.12 0.56 0.32 1.21 0.87 1.37a5.34 5.34 0 0 0 0.69 0.05c0.86 0.11 1.28 1.1 1.5 1.94a8 8 0 0 1 0.35 2.79 3.58 3.58 0 0 1 -0.07 0.4z" class="animable"/>
   </g>
   <path id="elgoyswiuo1ri" class="animable" style="transform-origin:293.2px 418.835px" fill="#f5f5f5" d="m292.87 422.63a2.61 2.61 0 0 0 1.73 -1.81c0.45-1.22-0.09-3.62-1-5.2a1 1 0 0 0 -1.73 -0.15 1.06 1.06 0 0 0 -0.08 1.21 8 8 0 0 1 1.08 5.95z"/>
   <path id="elj4a246v6lu" class="animable" style="transform-origin:290.222px 421.945px" fill="#f5f5f5" d="m290 426.16a3 3 0 0 0 1.67 -2.21 9.34 9.34 0 0 0 -1.07 -5.68 1 1 0 0 0 -1.68 -0.15 1 1 0 0 0 -0.07 1.16 8 8 0 0 1 1.15 6.88z"/>
   <path id="elakfyg7mg5oj" class="animable" style="transform-origin:287.35px 425.975px" fill="#f5f5f5" d="m287.27 430.14a3.38 3.38 0 0 0 1.57 -2.32 9 9 0 0 0 -1.13 -5.47 1 1 0 0 0 -1.68 -0.15 1 1 0 0 0 -0.07 1.17 7.63 7.63 0 0 1 1.31 6.77z"/>
   <path id="el2vovxre1g6r" class="animable" style="transform-origin:321.966px 402.562px" fill="#ffa8a7" d="m299.48 400.57c3-0.75 7.34-1.81 9.14-4.19s5.55-4.68 10.61-1.35c3.2 2.11 7 2.8 10.8 3.05a35.52 35.52 0 0 1 5.06 0.24 18.65 18.65 0 0 1 5.6 2.59 9.25 9.25 0 0 1 2.79 2.41 5.72 5.72 0 0 1 0.09 6.24 3.12 3.12 0 0 1 -0.79 0.87 3.29 3.29 0 0 1 -1.32 0.55c-1.75 0.39-3.21-0.16-4.86-0.62-1.37-0.38-2.77-0.67-4.16-0.92a70.11 70.11 0 0 0 -9.58 -1.12c-1.37-0.05-4.22-0.27-5.59-0.17-5.72 0.39-13.81 3.61-13.81 3.61z"/>
   <path id="elydenhirrv07" class="animable" style="transform-origin:274.17px 417.447px" fill="#37474f" d="m240 428c0.94 5.78 7.43 8.57 21.34 5.79s47-23.63 47-23.63-1.29-8-8.9-10.14-6.92 1.26-18.22 3.72a146 146 0 0 0 -15.07 4.17c-7.64 10.25-15.58 6.11-18.44 9.71-4.71 5.99-7.71 10.38-7.71 10.38z"/>
   <path id="elx45km5lsh3j" class="animable" style="transform-origin:329.083px 399.343px" fill="#263238" d="m345 409.88a3.84 3.84 0 0 0 1.65 -2.3c0.21-0.89-1.61-5.49-6.39-8.85a24.2 24.2 0 0 0 -12 -4.29c-2.65-0.25-4.62-1.49-7-3.17s-6.19-2.94-7.53-2.29-2.23 2.91-2.23 2.91z"/>
   <path id="el15djp60ircl" class="animable" style="transform-origin:325.879px 401.704px" fill="#407bff" d="m315.21 409.4c1.45 1.12 2.87 0.49 4.48-0.08 2.2-0.78 5.23-0.46 8.35 0.13 2.12 0.4 4.07 1 6.15 1.5s4.54 1.8 6.42 2c2.74 0.23 5.4-2.59 4.34-5.41-0.92-2.44-4.62-7.26-10.54-9.79-3.22-1.38-8.4-0.93-12.07-3.44-2.45-1.68-5.47-3.61-8.51-3.85-1.8-0.15-2.46 0.85-3.36 2.22a51.83 51.83 0 0 1 -3.9 5.2 9.74 9.74 0 0 0 4.48 2.76 4.4 4.4 0 0 1 1.67 0.68 3.59 3.59 0 0 1 0.72 1c0.28 0.49 0.55 1.12 0.24 1.6a5.55 5.55 0 0 1 -0.48 0.49c-0.57 0.66-0.23 1.67 0.15 2.45a8.13 8.13 0 0 0 1.58 2.33 3 3 0 0 0 0.28 0.21z"/>
   <g id="elhyhyj0pcsdr">
    <path opacity=".4" style="transform-origin:325.879px 401.704px" d="m315.21 409.4c1.45 1.12 2.87 0.49 4.48-0.08 2.2-0.78 5.23-0.46 8.35 0.13 2.12 0.4 4.07 1 6.15 1.5s4.54 1.8 6.42 2c2.74 0.23 5.4-2.59 4.34-5.41-0.92-2.44-4.62-7.26-10.54-9.79-3.22-1.38-8.4-0.93-12.07-3.44-2.45-1.68-5.47-3.61-8.51-3.85-1.8-0.15-2.46 0.85-3.36 2.22a51.83 51.83 0 0 1 -3.9 5.2 9.74 9.74 0 0 0 4.48 2.76 4.4 4.4 0 0 1 1.67 0.68 3.59 3.59 0 0 1 0.72 1c0.28 0.49 0.55 1.12 0.24 1.6a5.55 5.55 0 0 1 -0.48 0.49c-0.57 0.66-0.23 1.67 0.15 2.45a8.13 8.13 0 0 0 1.58 2.33 3 3 0 0 0 0.28 0.21z" class="animable"/>
   </g>
   <path id="eltiylhnhhi5n" class="animable" style="transform-origin:322.395px 406.074px" fill="#f5f5f5" d="m325 409a2.6 2.6 0 0 1 -2.49 -0.22c-1.15-0.62-2.32-2.78-2.68-4.57a1 1 0 0 1 1.21 -1.25 1.05 1.05 0 0 1 0.85 0.85 8 8 0 0 0 3.11 5.19z"/>
   <path id="elsal068g9afk" class="animable" style="transform-origin:326.68px 406.43px" fill="#f5f5f5" d="m329.52 409.76a3 3 0 0 1 -2.72 -0.57 9.35 9.35 0 0 1 -2.94 -5 1 1 0 0 1 1.14 -1.19 1 1 0 0 1 0.81 0.83 8.07 8.07 0 0 0 3.71 5.93z"/>
   <path id="elmq0inqwqvzl" class="animable" style="transform-origin:331.446px 407.621px" fill="#f5f5f5" d="m334.19 411a3.38 3.38 0 0 1 -2.71 -0.71 9 9 0 0 1 -2.75 -4.86 1 1 0 0 1 1.16 -1.22 1 1 0 0 1 0.82 0.83 7.67 7.67 0 0 0 3.48 5.96z"/>
   <path id="elp3u1bwq4ysf" class="animable" style="transform-origin:268.58px 406.575px" fill="#263238" d="m275.79 405s-9.34 1.83-16.27 6.49 7.12-8.34 18.12-9.83z"/>
   <path id="eld1iydross6a" class="animable" style="transform-origin:303.415px 322.31px" fill="#ffa8a7" d="m310.77 333.78-11.64-32.88-3.07 1.1l1.84 36.32 2 5.4c5.21-2.72 9.46-4.72 10.87-9.94z"/>
   <path id="elb0s6wx2rvka" class="animable" style="transform-origin:297.195px 315.824px" fill="#407bff" d="m283.39 292.26c7.21 0.08 13.79 2.7 16.52 8.35s11.09 31.32 11.09 31.32-6.86 8.07-17 7.42z"/>
   <g id="elqzi5es3e6l">
    <path opacity=".1" style="transform-origin:297.195px 315.824px" d="m283.39 292.26c7.21 0.08 13.79 2.7 16.52 8.35s11.09 31.32 11.09 31.32-6.86 8.07-17 7.42z" class="animable"/>
   </g>
   <path id="elupdr7ao1vx" class="animable" style="transform-origin:274.452px 332.156px" fill="#fafafa" d="m268.6 292.7c-10.11 1.87-16.85 4-18.76 5.89-4.3 8.81 1.29 38.34 1.29 38.34l1 14.05-1.78 16.2c10.93 9.24 44.38 4.7 50.34-8.24 0 0-1.67-42.12-1.67-49.59s-4.14-16.42-15.59-17.09z"/>
   <path id="el31t87aoyz17" class="animable" style="transform-origin:271.53px 340.077px" fill="#ebebeb" d="m261.24 360.83c-2.93-4.49-2.81-15.91-2.81-15.91s5.12-29.8 3.94-36.9l-13.51 12.98c0.86 8.53 2.27 16 2.27 16l1 14.05-1.78 16.2c8.74 7.39 31.88 6 43.85-1.53-17.57 6.97-30.04-0.4-32.96-4.89z"/>
   <path id="el6dxsont4wow" class="animable" style="transform-origin:265.73px 276.815px" fill="#263238" d="m263 269s1.52 11.21 2.33 13.09a5 5 0 0 0 2.71 2.54l0.42-7.77z"/>
   <path id="elgxgfpkur2en" class="animable" style="transform-origin:264.323px 261.529px" fill="#263238" d="m267.15 253.37a5.43 5.43 0 0 0 -4.62 1.24c-2.08 1.83-1.46 8.1 0.49 14.34l4.39 0.84z"/>
   <path id="elsi6xjfamah" class="animable" style="transform-origin:279.468px 274.268px" fill="#ffa8a7" d="m268.73 269.89c-0.92 0.46-2.06-1.33-3.07-2.56s-4.46-3.06-6.52 0.56 0.9 9 3.65 10.09c4.73 1.88 5.69-1.17 5.69-1.17l-1 17.84c4.39 9.56 21.91 6.15 15.93-0.42l0.32-4.53a51.5 51.5 0 0 0 7.31 0.55c3.61-0.29 5.25-2.64 6.62-6.42 2.2-6.06 3.24-11 2.67-23.31-0.61-13.47-16.13-14.77-24.91-10.12s-6.69 19.49-6.69 19.49z"/>
   <path id="elutuhdkwxcm" class="animable" style="transform-origin:284.737px 255.345px" fill="#263238" d="m268.42 246.12a43.08 43.08 0 0 1 9.37 -2.07c6.88-1 13.88-1.8 20.3-4.47a4.3 4.3 0 0 1 2.48 -0.51c1.62 0.33 2.18 2.36 2.12 4a13.46 13.46 0 0 1 -0.92 4.47 2.59 2.59 0 0 1 3.64 0.33 4.5 4.5 0 0 1 0.77 3.88 9.53 9.53 0 0 1 -6 6.49 21.49 21.49 0 0 1 -9.06 1.11 61.69 61.69 0 0 1 -12.68 -1.92 9 9 0 0 0 -3.07 -0.45 2.78 2.78 0 0 0 -2.45 1.66c-0.57 1.65-1.9 13.08-4.26 13-0.44 0-1.89-3-2.91-4.14-1.27-1.4-1.91-11.33-2-13.16a1 1 0 0 0 -0.16 -0.4c-1.38-2.28 0.7-5.78 2.69-6.82a21.52 21.52 0 0 1 2.14 -1z"/>
   <path id="elq7z96bpsfhn" class="animable" style="transform-origin:261.656px 252.321px" fill="#263238" d="m264.43 254.12a3.24 3.24 0 0 1 -4.61 -4.56z"/>
   <path id="eli85ywtrqoyg" class="animable" style="transform-origin:276.66px 287.655px" fill="#f28f8f" d="m283.72 289.7s-7.89-1.36-10.56-3a9.21 9.21 0 0 1 -3.56 -4.09 12.46 12.46 0 0 0 1.85 4.65c1.84 2.75 12.05 5.44 12.05 5.44z"/>
   <path id="elhitcqilgrp" class="animable" style="transform-origin:282.929px 268.816px" fill="#263238" d="m284.52 269a1.6 1.6 0 1 1 -1.47 -1.78 1.63 1.63 0 0 1 1.47 1.78z"/>
   <path id="elsdzv4efpd4a" class="animable" style="transform-origin:281.422px 263.057px" fill="#263238" d="m283.28 262.84l-3.55 1.63a2.05 2.05 0 0 1 1 -2.66 1.91 1.91 0 0 1 2.55 1.03z"/>
   <path id="elvipki6c9mvb" class="animable" style="transform-origin:285.4px 281.487px" fill="#f28f8f" d="m283.72 280.08l3.54 1.64a1.92 1.92 0 0 1 -2.57 1 2 2 0 0 1 -0.97 -2.64z"/>
   <path id="eldjk44w5s4i9" class="animable" style="transform-origin:297.41px 263.695px" fill="#263238" d="m298.64 265.36l-2.93-2.63a1.88 1.88 0 0 1 2.73 -0.21 2.07 2.07 0 0 1 0.2 2.84z"/>
   <path id="eleknrw46u9t" class="animable" style="transform-origin:295.779px 269.336px" fill="#263238" d="m297.37 269.52a1.6 1.6 0 1 1 -1.47 -1.78 1.64 1.64 0 0 1 1.47 1.78z"/>
   <polygon id="el0pu4d9ni5pjm" style="transform-origin:291.61px 272.69px" points="289.24 267.88 289.04 277.5 294.18 276.17" fill="#f28f8f" class="animable"/>
   <path id="elczm5kqbogzt" class="animable" style="transform-origin:245.365px 331.635px" fill="#ffa8a7" d="m238.16 365.91c-6.48-6.52-7.52-8.65-6.64-12.72 1.74-8 8.85-33.61 11.55-41.22 3.39-9.56 4.9-13.38 10.54-14.61 4.55 3.6 9 17.08 2.88 29.22l-7.38 26.5"/>
   <path id="elzx1d77dl1fl" class="animable" style="transform-origin:248.393px 321.075px" fill="#407bff" d="m258.45 295c-8.71 1-12.4 4.52-15.54 13.93s-8.66 31.07-8.66 31.07 7.31 7.92 17.56 7.09l8.54-28.3s6.01-20.58-1.9-23.79z"/>
   <g id="elmucy9muc8of">
    <path opacity=".1" style="transform-origin:248.393px 321.075px" d="m258.45 295c-8.71 1-12.4 4.52-15.54 13.93s-8.66 31.07-8.66 31.07 7.31 7.92 17.56 7.09l8.54-28.3s6.01-20.58-1.9-23.79z" class="animable"/>
   </g>
   <path id="elhfpx6puileb" class="animable" style="transform-origin:297.915px 395.81px" fill="#ebebeb" d="m256.43 392.48v1a2.89 2.89 0 0 0 1.43 2.48l27.26 15.68a2.86 2.86 0 0 0 2.85 0l50-28.87a2.84 2.84 0 0 0 1.43 -2.47v-0.7l-52.85 30.52z"/>
   <path id="el1977mtx1c27" class="animable" style="transform-origin:297.914px 386.199px" fill="#fafafa" d="m339.4 379.61-29.64-17.11a1.69 1.69 0 0 0 -1.71 0l-51.43 29.69a0.38 0.38 0 0 0 0 0.66l29.93 17.28z"/>
   <path id="elex78273yxi" class="animable" style="transform-origin:313.306px 351.943px" fill="#ffa8a7" d="m326.22 362.27c-4.07-7.22-15.45-28.49-15.45-28.49l-10.86 10c4.43 8.38 16.46 25.24 16.46 25.24 5.53 3.61 12.19-2.59 9.85-6.75z"/>
   <polygon id="el5x6uolm8mi" style="transform-origin:301.695px 389.505px" points="286.27 407.61 270.28 398.39 317.04 371.4 333.11 380.57" fill="#e0e0e0" class="animable"/>
   <polygon id="elc1ptzsjqczw" style="transform-origin:289.595px 380.2px" points="278.42 381.96 278.71 382.13 286.55 386.65 300.49 378.61 300.77 378.44 292.64 373.75" fill="#e0e0e0" class="animable"/>
   <polygon id="el9e27egp69tl" style="transform-origin:289.6px 380.365px" points="278.71 382.13 286.55 386.65 300.49 378.61 292.64 374.08" fill="#e6e6e6" class="animable"/>
   <path id="elhsoc6dk2fc9" class="animable" style="transform-origin:312.975px 395.79px" fill="#ebebeb" d="m286.55 410.13v1.87a2.78 2.78 0 0 0 1.42 -0.38l50-28.87a2.84 2.84 0 0 0 1.43 -2.47v-0.7z"/>
   <path id="elc7jg66l5brc" class="animable" style="transform-origin:312.975px 395.79px" fill="#e0e0e0" d="m286.55 410.13v1.87a2.78 2.78 0 0 0 1.42 -0.38l50-28.87a2.84 2.84 0 0 0 1.43 -2.47v-0.7z"/>
   <path id="el2qvfkluhebn" class="animable" style="transform-origin:317.256px 377.272px" fill="#407bff" d="m287.35 410.55a3.37 3.37 0 0 0 2.92 -0.22l49.78-28.75a3.37 3.37 0 0 0 1.65 -2.36l5.45-32.5a3.52 3.52 0 0 0 0 -0.56 3.37 3.37 0 0 0 -1 -2.4l-51.73 29.87a2.5 2.5 0 0 0 -1.22 1.75z"/>
   <g id="el875bbp5jxuv">
    <g opacity=".7" style="transform-origin:317.256px 377.272px" class="animable">
     <path id="elzetxtl0h2ho" class="animable" style="transform-origin:317.256px 377.272px" fill="#fff" d="m287.35 410.55a3.37 3.37 0 0 0 2.92 -0.22l49.78-28.75a3.37 3.37 0 0 0 1.65 -2.36l5.45-32.5a3.52 3.52 0 0 0 0 -0.56 3.37 3.37 0 0 0 -1 -2.4l-51.73 29.87a2.5 2.5 0 0 0 -1.22 1.75z"/>
    </g>
   </g>
   <path id="el8dkx83snjhw" class="animable" style="transform-origin:316.37px 376.89px" fill="#fafafa" d="m286.55 410.13l0.34 0.2a3.88 3.88 0 0 0 0.46 0.22l5.89-35.17a2.5 2.5 0 0 1 1.22 -1.75l51.73-29.87a3.32 3.32 0 0 0 -0.69 -0.53l-51.84 29.93a2.48 2.48 0 0 0 -1.21 1.75z"/>
   <path id="elxkx35bh4vjj" class="animable" style="transform-origin:319.733px 378.031px" fill="#407bff" d="m315.39 380.55c0.36-2.18 2.61-5.07 5-6.46s4.06-0.75 3.69 1.43-2.61 5.06-5 6.45-4.08 0.76-3.69-1.42z"/>
   <path id="elhup01eg1aa" class="animable" style="transform-origin:262.703px 374.79px" fill="#ffa8a7" d="m249.11 353.08s3.74 6.21 8.06 12 9 11.89 12.5 12.92c3.29 1 7.15 2.13 8.27 3.16a86.23 86.23 0 0 1 7.5 8.7c1 1.71 3.51 5.19 0 6.3-3.21 1-5.83-0.36-8.43-2.15a33.78 33.78 0 0 1 -3.49 -2.87 12.75 12.75 0 0 1 -7.53 -1.5c-2-1.12-5.3-3.08-5.3-3.08-2.74-1.88-16.35-14.48-22.53-20.68"/>
  </g>
 </g>
</svg>
